font.ufo
<glyph name="numbersign" format="1">
  <advance width="600"/>
  <unicode hex="0023"/>
  <outline>
    <contour>
      <point x="342" y="0" type="line"/>
      <point x="370" y="0" type="line"/>
      <point x="450" y="650" type="line"/>
      <point x="422" y="650" type="line"/>
    </contour>
    <contour>
      <point x="158" y="0" type="line"/>
      <point x="186" y="0" type="line"/>
      <point x="266" y="650" type="line"/>
      <point x="238" y="650" type="line"/>
    </contour>
    <contour>
      <point x="120" y="424" type="line"/>
      <point x="506" y="424" type="line"/>
      <point x="506" y="452" type="line"/>
      <point x="120" y="452" type="line"/>
    </contour>
    <contour>
      <point x="100" y="218" type="line"/>
      <point x="486" y="218" type="line"/>
      <point x="486" y="246" type="line"/>
      <point x="100" y="246" type="line"/>
    </contour>
  </outline>
</glyph>
<glyph name="F" format="1">
  <advance width="600"/>
  <unicode hex="0046"/>
  <outline>
    <contour>
      <point x="156" y="0" type="line"/>
      <point x="187" y="0" type="line"/>
      <point x="187" y="326" type="line"/>
      <point x="479" y="326" type="line"/>
      <point x="479" y="354" type="line"/>
      <point x="187" y="354" type="line"/>
      <point x="187" y="632" type="line"/>
      <point x="534" y="632" type="line"/>
      <point x="534" y="660" type="line"/>
      <point x="156" y="660" type="line"/>
    </contour>
    <contour>
      <point x="349" y="680" type="move" name="aboveUC"/>
    </contour>
    <contour>
      <point x="164" y="0" type="move" name="baseLC"/>
    </contour>
    <contour>
      <point x="181" y="-20" type="move" name="belowLC"/>
    </contour>
  </outline>
</glyph>
<glyph name="J" format="1">
  <advance width="600"/>
  <unicode hex="004A"/>
  <outline>
    <contour>
      <point x="278" y="-12" type="curve" smooth="yes"/>
      <point x="427" y="-12"/>
      <point x="475" y="83"/>
      <point x="475" y="201" type="curve" smooth="yes"/>
      <point x="475" y="661" type="line"/>
      <point x="152" y="661" type="line"/>
      <point x="152" y="634" type="line"/>
      <point x="443" y="634" type="line"/>
      <point x="443" y="204" type="line" smooth="yes"/>
      <point x="443" y="80"/>
      <point x="394" y="18"/>
      <point x="278" y="18" type="curve" smooth="yes"/>
      <point x="222" y="18"/>
      <point x="162" y="48"/>
      <point x="124" y="116" type="curve"/>
      <point x="98" y="98" type="line"/>
      <point x="134" y="26"/>
      <point x="204" y="-12"/>
    </contour>
    <contour>
      <point x="320" y="680" type="move" name="aboveUC"/>
    </contour>
    <contour>
      <point x="300" y="-20" type="move" name="belowLC"/>
    </contour>
  </outline>
</glyph>
<glyph name="K" format="1">
  <advance width="600"/>
  <unicode hex="004B"/>
  <outline>
    <contour>
      <point x="122" y="0" type="line"/>
      <point x="154" y="0" type="line"/>
      <point x="154" y="234" type="line"/>
      <point x="539" y="660" type="line"/>
      <point x="500" y="660" type="line"/>
      <point x="156" y="280" type="line"/>
      <point x="154" y="280" type="line"/>
      <point x="154" y="660" type="line"/>
      <point x="122" y="660" type="line"/>
    </contour>
    <contour>
      <point x="530" y="0" type="line"/>
      <point x="568" y="0" type="line"/>
      <point x="308" y="444" type="line"/>
      <point x="286" y="418" type="line"/>
    </contour>
    <contour>
      <point x="329" y="680" type="move" name="aboveUC"/>
    </contour>
    <contour>
      <point x="349" y="-20" type="move" name="belowLC"/>
    </contour>
  </outline>
</glyph>
<glyph name="O" format="1">
  <advance width="600"/>
  <unicode hex="004F"/>
  <outline>
    <contour>
      <point x="300" y="-12" type="curve" smooth="yes"/>
      <point x="442" y="-12"/>
      <point x="544" y="124"/>
      <point x="544" y="332" type="curve" smooth="yes"/>
      <point x="544" y="540"/>
      <point x="442" y="672"/>
      <point x="300" y="672" type="curve" smooth="yes"/>
      <point x="158" y="672"/>
      <point x="56" y="540"/>
      <point x="56" y="332" type="curve" smooth="yes"/>
      <point x="56" y="124"/>
      <point x="158" y="-12"/>
    </contour>
    <contour>
      <point x="300" y="18" type="curve" smooth="yes"/>
      <point x="175" y="18"/>
      <point x="90" y="142"/>
      <point x="90" y="332" type="curve" smooth="yes"/>
      <point x="90" y="522"/>
      <point x="175" y="642"/>
      <point x="300" y="642" type="curve" smooth="yes"/>
      <point x="425" y="642"/>
      <point x="510" y="522"/>
      <point x="510" y="332" type="curve" smooth="yes"/>
      <point x="510" y="142"/>
      <point x="425" y="18"/>
    </contour>
    <contour>
      <point x="300" y="680" type="move" name="aboveUC"/>
    </contour>
    <contour>
      <point x="416" y="650" type="move" name="hornLC"/>
    </contour>
    <contour>
      <point x="300" y="0" type="move" name="ogonekUC"/>
    </contour>
    <contour>
      <point x="300" y="0" type="move" name="baseLC"/>
    </contour>
    <contour>
      <point x="300" y="-20" type="move" name="belowLC"/>
    </contour>
  </outline>
</glyph>
<glyph name="Q" format="1">
  <advance width="600"/>
  <unicode hex="0051"/>
  <outline>
    <contour>
      <point x="300" y="-12" type="curve" smooth="yes"/>
      <point x="443" y="-12"/>
      <point x="540" y="125"/>
      <point x="540" y="332" type="curve" smooth="yes"/>
      <point x="540" y="540"/>
      <point x="443" y="673"/>
      <point x="300" y="673" type="curve" smooth="yes"/>
      <point x="157" y="673"/>
      <point x="60" y="540"/>
      <point x="60" y="332" type="curve" smooth="yes"/>
      <point x="60" y="125"/>
      <point x="157" y="-12"/>
    </contour>
    <contour>
      <point x="300" y="16" type="curve" smooth="yes"/>
      <point x="173" y="16"/>
      <point x="92" y="143"/>
      <point x="92" y="332" type="curve" smooth="yes"/>
      <point x="92" y="522"/>
      <point x="173" y="645"/>
      <point x="300" y="645" type="curve" smooth="yes"/>
      <point x="427" y="645"/>
      <point x="508" y="522"/>
      <point x="508" y="332" type="curve" smooth="yes"/>
      <point x="508" y="143"/>
      <point x="427" y="16"/>
    </contour>
    <contour>
      <point x="475" y="-150" type="curve" smooth="yes"/>
      <point x="494" y="-150"/>
      <point x="511" y="-147"/>
      <point x="532" y="-142" type="curve"/>
      <point x="525" y="-110" type="line"/>
      <point x="514" y="-114"/>
      <point x="499" y="-117"/>
      <point x="479" y="-117" type="curve" smooth="yes"/>
      <point x="389" y="-117"/>
      <point x="335" y="-74"/>
      <point x="315" y="-4" type="curve"/>
      <point x="279" y="-5" type="line"/>
      <point x="305" y="-86"/>
      <point x="366" y="-150"/>
    </contour>
    <contour>
      <point x="300" y="694" type="move" name="aboveUC"/>
    </contour>
  </outline>
</glyph>
<glyph name="b" format="1">
  <advance width="600"/>
  <unicode hex="0062"/>
  <outline>
    <contour>
      <point x="306" y="-12" type="curve" smooth="yes"/>
      <point x="425" y="-12"/>
      <point x="530" y="84"/>
      <point x="530" y="246" type="curve" smooth="yes"/>
      <point x="530" y="394"/>
      <point x="463" y="490"/>
      <point x="326" y="490" type="curve" smooth="yes"/>
      <point x="262" y="490"/>
      <point x="190" y="454"/>
      <point x="140" y="402" type="curve"/>
      <point x="138" y="402" type="line"/>
      <point x="140" y="508" type="line"/>
      <point x="140" y="722" type="line"/>
      <point x="110" y="722" type="line"/>
      <point x="110" y="0" type="line"/>
      <point x="136" y="0" type="line"/>
      <point x="140" y="54" type="line"/>
      <point x="142" y="54" type="line"/>
      <point x="191" y="14"/>
      <point x="257" y="-12"/>
    </contour>
    <contour>
      <point x="308" y="16" type="curve" smooth="yes"/>
      <point x="267" y="16"/>
      <point x="200" y="37"/>
      <point x="140" y="92" type="curve"/>
      <point x="140" y="368" type="line"/>
      <point x="204" y="432"/>
      <point x="271" y="462"/>
      <point x="324" y="462" type="curve" smooth="yes"/>
      <point x="449" y="462"/>
      <point x="498" y="368"/>
      <point x="498" y="246" type="curve" smooth="yes"/>
      <point x="498" y="112"/>
      <point x="418" y="16"/>
    </contour>
    <contour>
      <point x="130" y="740" type="move" name="aboveUC"/>
    </contour>
    <contour>
      <point x="310" y="-20" type="move" name="belowLC"/>
    </contour>
  </outline>
</glyph>
<glyph name="e" format="1">
  <advance width="600"/>
  <unicode hex="0065"/>
  <outline>
    <contour>
      <point x="330" y="-12" type="curve" smooth="yes"/>
      <point x="417" y="-12"/>
      <point x="468" y="17"/>
      <point x="510" y="44" type="curve"/>
      <point x="496" y="70" type="line"/>
      <point x="451" y="38"/>
      <point x="398" y="16"/>
      <point x="330" y="16" type="curve" smooth="yes"/>
      <point x="214" y="16"/>
      <point x="112" y="96"/>
      <point x="112" y="240" type="curve" smooth="yes"/>
      <point x="112" y="380"/>
      <point x="214" y="462"/>
      <point x="318" y="462" type="curve" smooth="yes"/>
      <point x="426" y="462"/>
      <point x="502" y="394"/>
      <point x="502" y="250" type="curve"/>
      <point x="520" y="266" type="line"/>
      <point x="90" y="266" type="line"/>
      <point x="90" y="238" type="line"/>
      <point x="528" y="238" type="line"/>
      <point x="530" y="250"/>
      <point x="530" y="260"/>
      <point x="530" y="270" type="curve" smooth="yes"/>
      <point x="530" y="408"/>
      <point x="446" y="490"/>
      <point x="318" y="490" type="curve" smooth="yes"/>
      <point x="194" y="490"/>
      <point x="80" y="394"/>
      <point x="80" y="238" type="curve" smooth="yes"/>
      <point x="80" y="82"/>
      <point x="194" y="-12"/>
    </contour>
    <contour>
      <point x="406" y="0" type="move" name="ogonekLC"/>
    </contour>
    <contour>
      <point x="320" y="500" type="move" name="aboveLC"/>
    </contour>
    <contour>
      <point x="320" y="0" type="move" name="baseLC"/>
    </contour>
    <contour>
      <point x="320" y="-20" type="move" name="belowLC"/>
    </contour>
  </outline>
</glyph>
<glyph name="k" format="1">
  <advance width="600"/>
  <unicode hex="006B"/>
  <outline>
    <contour>
      <point x="130" y="0" type="line"/>
      <point x="160" y="0" type="line"/>
      <point x="160" y="138" type="line"/>
      <point x="530" y="478" type="line"/>
      <point x="490" y="478" type="line"/>
      <point x="164" y="176" type="line"/>
      <point x="160" y="176" type="line"/>
      <point x="160" y="722" type="line"/>
      <point x="130" y="722" type="line"/>
    </contour>
    <contour>
      <point x="528" y="0" type="line"/>
      <point x="564" y="0" type="line"/>
      <point x="322" y="308" type="line"/>
      <point x="300" y="286" type="line"/>
    </contour>
    <contour>
      <point x="188" y="740" type="move" name="aboveUC"/>
    </contour>
    <contour>
      <point x="344" y="-20" type="move" name="belowLC"/>
    </contour>
  </outline>
</glyph>
<glyph name="q" format="1">
  <advance width="600"/>
  <unicode hex="0071"/>
  <outline>
    <contour>
      <point x="460" y="-222" type="line"/>
      <point x="490" y="-222" type="line"/>
      <point x="490" y="478" type="line"/>
      <point x="464" y="478" type="line"/>
      <point x="460" y="422" type="line"/>
      <point x="458" y="422" type="line"/>
      <point x="409" y="464"/>
      <point x="360" y="490"/>
      <point x="298" y="490" type="curve" smooth="yes"/>
      <point x="177" y="490"/>
      <point x="70" y="392"/>
      <point x="70" y="238" type="curve" smooth="yes"/>
      <point x="70" y="76"/>
      <point x="156" y="-12"/>
      <point x="282" y="-12" type="curve" smooth="yes"/>
      <point x="352" y="-12"/>
      <point x="414" y="28"/>
      <point x="460" y="76" type="curve"/>
      <point x="462" y="76" type="line"/>
      <point x="460" y="-22" type="line"/>
    </contour>
    <contour>
      <point x="284" y="16" type="curve" smooth="yes"/>
      <point x="170" y="16"/>
      <point x="102" y="106"/>
      <point x="102" y="238" type="curve" smooth="yes"/>
      <point x="102" y="362"/>
      <point x="188" y="462"/>
      <point x="296" y="462" type="curve" smooth="yes"/>
      <point x="349" y="462"/>
      <point x="402" y="441"/>
      <point x="460" y="386" type="curve"/>
      <point x="460" y="110" type="line"/>
      <point x="403" y="50"/>
      <point x="343" y="16"/>
    </contour>
    <contour>
      <point x="300" y="500" type="move" name="aboveLC"/>
    </contour>
    <contour>
      <point x="470" y="-230" type="move" name="belowLC"/>
    </contour>
  </outline>
</glyph>
<glyph name="t" format="1">
  <advance width="600"/>
  <unicode hex="0074"/>
  <outline>
    <contour>
      <point x="398" y="-12" type="curve" smooth="yes"/>
      <point x="456" y="-12"/>
      <point x="498" y="0"/>
      <point x="542" y="18" type="curve"/>
      <point x="532" y="42" type="line"/>
      <point x="492" y="26"/>
      <point x="452" y="16"/>
      <point x="400" y="16" type="curve" smooth="yes"/>
      <point x="288" y="16"/>
      <point x="262" y="76"/>
      <point x="262" y="172" type="curve" smooth="yes"/>
      <point x="262" y="450" type="line"/>
      <point x="524" y="450" type="line"/>
      <point x="524" y="478" type="line"/>
      <point x="262" y="478" type="line"/>
      <point x="262" y="638" type="line"/>
      <point x="236" y="638" type="line"/>
      <point x="232" y="478" type="line"/>
      <point x="84" y="474" type="line"/>
      <point x="84" y="450" type="line"/>
      <point x="232" y="450" type="line"/>
      <point x="232" y="176" type="line" smooth="yes"/>
      <point x="232" y="64"/>
      <point x="270" y="-12"/>
    </contour>
    <contour>
      <point x="250" y="630" type="move" name="aboveLC"/>
    </contour>
    <contour>
      <point x="400" y="0" type="move" name="baseLC"/>
    </contour>
    <contour>
      <point x="390" y="-20" type="move" name="belowLC"/>
    </contour>
  </outline>
</glyph>
<glyph name="w" format="1">
  <advance width="600"/>
  <unicode hex="0077"/>
  <outline>
    <contour>
      <point x="142" y="0" type="line"/>
      <point x="184" y="0" type="line"/>
      <point x="264" y="310" type="line" smooth="yes"/>
      <point x="278" y="356"/>
      <point x="287" y="402"/>
      <point x="298" y="448" type="curve"/>
      <point x="302" y="448" type="line"/>
      <point x="315" y="402"/>
      <point x="324" y="358"/>
      <point x="336" y="312" type="curve" smooth="yes"/>
      <point x="418" y="0" type="line"/>
      <point x="460" y="0" type="line"/>
      <point x="588" y="478" type="line"/>
      <point x="556" y="478" type="line"/>
      <point x="474" y="156" type="line" smooth="yes"/>
      <point x="464" y="112"/>
      <point x="453" y="72"/>
      <point x="442" y="30" type="curve"/>
      <point x="438" y="30" type="line"/>
      <point x="427" y="72"/>
      <point x="416" y="112"/>
      <point x="405" y="156" type="curve" smooth="yes"/>
      <point x="322" y="478" type="line"/>
      <point x="280" y="478" type="line"/>
      <point x="197" y="156" type="line"/>
      <point x="186" y="112"/>
      <point x="175" y="72"/>
      <point x="164" y="30" type="curve"/>
      <point x="160" y="30" type="line"/>
      <point x="151" y="72"/>
      <point x="140" y="112"/>
      <point x="129" y="156" type="curve" smooth="yes"/>
      <point x="46" y="478" type="line"/>
      <point x="12" y="478" type="line"/>
    </contour>
    <contour>
      <point x="300" y="500" type="move" name="aboveLC"/>
    </contour>
    <contour>
      <point x="300" y="-20" type="move" name="belowLC"/>
    </contour>
  </outline>
</glyph>
<glyph name="paragraph" format="1">
	<unicode hex="00B6"/>
	<advance width="600"/>
	<outline>
		<contour>
			<point x="342" y="250" type="curve" smooth="yes"/>
			<point x="368" y="250" type="line"/>
			<point x="368" y="660" type="line"/>
			<point x="324" y="660" type="line" smooth="yes"/>
			<point x="186" y="660"/>
			<point x="92" y="602"/>
			<point x="92" y="454" type="curve" smooth="yes"/>
			<point x="92" y="306"/>
			<point x="192" y="250"/>
		</contour>
		<contour>
			<point x="424" y="-80" type="line"/>
			<point x="452" y="-80" type="line"/>
			<point x="452" y="660" type="line"/>
			<point x="424" y="660" type="line"/>
		</contour>
	</outline>
</glyph>
<glyph name="Adieresis" format="1">
	<unicode hex="00C4"/>
	<advance width="600"/>
	<outline>
		<component base="A"/>
		<component base="dieresiscmb.cap"/>
		<contour>
			<point name="ogonekUC" x="512" y="0" type="move"/>
		</contour>
	</outline>
</glyph>
<glyph name="AE" format="1">
  <advance width="600"/>
  <unicode hex="00C6"/>
  <outline>
    <contour>
      <point x="0" y="0" type="line"/>
      <point x="36" y="0" type="line"/>
      <point x="212" y="394" type="line" smooth="yes"/>
      <point x="248" y="476"/>
      <point x="284" y="552"/>
      <point x="318" y="630" type="curve"/>
      <point x="322" y="630" type="line"/>
      <point x="322" y="0" type="line"/>
      <point x="588" y="0" type="line"/>
      <point x="588" y="28" type="line"/>
      <point x="354" y="28" type="line"/>
      <point x="354" y="338" type="line"/>
      <point x="524" y="338" type="line"/>
      <point x="524" y="366" type="line"/>
      <point x="354" y="366" type="line"/>
      <point x="354" y="632" type="line"/>
      <point x="578" y="632" type="line"/>
      <point x="578" y="660" type="line"/>
      <point x="302" y="660" type="line"/>
    </contour>
    <contour>
      <point x="130" y="226" type="line"/>
      <point x="348" y="226" type="line"/>
      <point x="348" y="254" type="line"/>
      <point x="130" y="254" type="line"/>
    </contour>
    <contour>
      <point x="444" y="680" type="move" name="aboveUC"/>
    </contour>
    <contour>
      <point x="460" y="0" type="move" name="baseLC"/>
    </contour>
    <contour>
      <point x="340" y="-20" type="move" name="belowLC"/>
    </contour>
  </outline>
</glyph>
<glyph name="ae" format="1">
  <advance width="600"/>
  <unicode hex="00E6"/>
  <outline>
    <contour>
      <point x="142" y="-12" type="curve" smooth="yes"/>
      <point x="216" y="-12"/>
      <point x="280" y="40"/>
      <point x="328" y="104" type="curve"/>
      <point x="310" y="126" type="line"/>
      <point x="272" y="60"/>
      <point x="202" y="16"/>
      <point x="145" y="16" type="curve" smooth="yes"/>
      <point x="88" y="16"/>
      <point x="50" y="51"/>
      <point x="50" y="112" type="curve" smooth="yes"/>
      <point x="50" y="192"/>
      <point x="102" y="243"/>
      <point x="300" y="268" type="curve"/>
      <point x="300" y="294" type="line"/>
      <point x="94" y="272"/>
      <point x="18" y="208"/>
      <point x="18" y="112" type="curve" smooth="yes"/>
      <point x="18" y="31"/>
      <point x="72" y="-12"/>
    </contour>
    <contour>
      <point x="461" y="-12" type="curve" smooth="yes"/>
      <point x="518" y="-12"/>
      <point x="556" y="8"/>
      <point x="586" y="28" type="curve"/>
      <point x="572" y="52" type="line"/>
      <point x="546" y="34"/>
      <point x="508" y="16"/>
      <point x="462" y="16" type="curve" smooth="yes"/>
      <point x="360" y="16"/>
      <point x="314" y="110"/>
      <point x="314" y="240" type="curve" smooth="yes"/>
      <point x="314" y="402"/>
      <point x="386" y="462"/>
      <point x="458" y="462" type="curve" smooth="yes"/>
      <point x="536" y="462"/>
      <point x="572" y="390"/>
      <point x="572" y="254" type="curve"/>
      <point x="580" y="266" type="line"/>
      <point x="292" y="266" type="line"/>
      <point x="292" y="238" type="line"/>
      <point x="598" y="238" type="line"/>
      <point x="600" y="258"/>
      <point x="600" y="270"/>
      <point x="600" y="282" type="curve" smooth="yes"/>
      <point x="600" y="392"/>
      <point x="556" y="490"/>
      <point x="458" y="490" type="curve" smooth="yes"/>
      <point x="390" y="490"/>
      <point x="322" y="442"/>
      <point x="298" y="334" type="curve"/>
      <point x="312" y="334" type="line"/>
      <point x="300" y="442"/>
      <point x="252" y="490"/>
      <point x="180" y="490" type="curve" smooth="yes"/>
      <point x="120" y="490"/>
      <point x="65" y="460"/>
      <point x="36" y="440" type="curve"/>
      <point x="50" y="417" type="line"/>
      <point x="78" y="438"/>
      <point x="132" y="462"/>
      <point x="176" y="462" type="curve" smooth="yes"/>
      <point x="244" y="462"/>
      <point x="285" y="414"/>
      <point x="284" y="290" type="curve" smooth="yes"/>
      <point x="284" y="244" type="line"/>
      <point x="284" y="96"/>
      <point x="346" y="-12"/>
    </contour>
    <contour>
      <point x="320" y="500" type="move" name="aboveLC"/>
    </contour>
    <contour>
      <point x="460" y="0" type="move" name="baseLC"/>
    </contour>
    <contour>
      <point x="310" y="-20" type="move" name="belowLC"/>
    </contour>
  </outline>
</glyph>
<glyph name="Aogonek" format="1">
	<unicode hex="0104"/>
	<advance width="600"/>
	<outline>
		<contour>
			<point x="522" y="-224" type="curve" smooth="yes"/>
			<point x="560" y="-224"/>
			<point x="580" y="-208"/>
			<point x="600" y="-188" type="curve"/>
			<point x="582" y="-170" type="line"/>
			<point x="568" y="-184"/>
			<point x="550" y="-196"/>
			<point x="524" y="-196" type="curve" smooth="yes"/>
			<point x="491" y="-196"/>
			<point x="460" y="-176"/>
			<point x="460" y="-134" type="curve" smooth="yes"/>
			<point x="460" y="-80"/>
			<point x="502" y="-36"/>
			<point x="550" y="0" type="curve"/>
			<point x="314" y="660" type="line"/>
			<point x="286" y="660" type="line"/>
			<point x="50" y="0" type="line"/>
			<point x="82" y="0" type="line"/>
			<point x="222" y="396" type="line" smooth="yes"/>
			<point x="250" y="476"/>
			<point x="274" y="544"/>
			<point x="298" y="626" type="curve"/>
			<point x="302" y="626" type="line"/>
			<point x="326" y="544"/>
			<point x="350" y="476"/>
			<point x="378" y="396" type="curve" smooth="yes"/>
			<point x="516" y="0" type="line"/>
			<point x="518" y="0" type="line"/>
			<point x="474" y="-32"/>
			<point x="430" y="-76"/>
			<point x="430" y="-136" type="curve" smooth="yes"/>
			<point x="430" y="-196"/>
			<point x="469" y="-224"/>
		</contour>
		<contour>
			<point x="152" y="236" type="line"/>
			<point x="446" y="236" type="line"/>
			<point x="446" y="264" type="line"/>
			<point x="152" y="264" type="line"/>
		</contour>
		<contour>
			<point name="aboveUC" x="300" y="680" type="move"/>
		</contour>
	</outline>
</glyph>
<glyph name="dcaron" format="1">
  <advance width="600"/>
  <unicode hex="010F"/>
  <outline>
    <contour>
      <point x="282" y="-12" type="curve" smooth="yes"/>
      <point x="352" y="-12"/>
      <point x="415" y="29"/>
      <point x="458" y="74" type="curve"/>
      <point x="460" y="74" type="line"/>
      <point x="464" y="0" type="line"/>
      <point x="490" y="0" type="line"/>
      <point x="490" y="722" type="line"/>
      <point x="460" y="722" type="line"/>
      <point x="460" y="520" type="line"/>
      <point x="462" y="420" type="line"/>
      <point x="460" y="420" type="line"/>
      <point x="410" y="464"/>
      <point x="359" y="490"/>
      <point x="298" y="490" type="curve" smooth="yes"/>
      <point x="177" y="490"/>
      <point x="70" y="392"/>
      <point x="70" y="238" type="curve" smooth="yes"/>
      <point x="70" y="76"/>
      <point x="156" y="-12"/>
    </contour>
    <contour>
      <point x="284" y="16" type="curve" smooth="yes"/>
      <point x="170" y="16"/>
      <point x="102" y="106"/>
      <point x="102" y="238" type="curve" smooth="yes"/>
      <point x="102" y="362"/>
      <point x="188" y="462"/>
      <point x="296" y="462" type="curve" smooth="yes"/>
      <point x="349" y="462"/>
      <point x="402" y="441"/>
      <point x="460" y="386" type="curve"/>
      <point x="460" y="110" type="line"/>
      <point x="403" y="50"/>
      <point x="343" y="16"/>
    </contour>
    <component base="caron.a" xOffset="308"/>
  </outline>
</glyph>
<glyph name="dcroat" format="1">
  <advance width="600"/>
  <unicode hex="0111"/>
  <outline>
    <contour>
      <point x="282" y="-12" type="curve" smooth="yes"/>
      <point x="352" y="-12"/>
      <point x="415" y="29"/>
      <point x="458" y="74" type="curve"/>
      <point x="460" y="74" type="line"/>
      <point x="464" y="0" type="line"/>
      <point x="490" y="0" type="line"/>
      <point x="490" y="722" type="line"/>
      <point x="460" y="722" type="line"/>
      <point x="460" y="500" type="line"/>
      <point x="462" y="400" type="line"/>
      <point x="460" y="400" type="line"/>
      <point x="410" y="444"/>
      <point x="360" y="470"/>
      <point x="298" y="470" type="curve" smooth="yes"/>
      <point x="177" y="470"/>
      <point x="70" y="376"/>
      <point x="70" y="228" type="curve" smooth="yes"/>
      <point x="70" y="72"/>
      <point x="156" y="-12"/>
    </contour>
    <contour>
      <point x="284" y="16" type="curve" smooth="yes"/>
      <point x="170" y="16"/>
      <point x="102" y="102"/>
      <point x="102" y="228" type="curve" smooth="yes"/>
      <point x="102" y="345"/>
      <point x="188" y="442"/>
      <point x="296" y="442" type="curve" smooth="yes"/>
      <point x="349" y="442"/>
      <point x="402" y="421"/>
      <point x="460" y="366" type="curve"/>
      <point x="460" y="110" type="line"/>
      <point x="403" y="50"/>
      <point x="343" y="16"/>
    </contour>
    <contour>
      <point x="272" y="584" type="line"/>
      <point x="490" y="584" type="line"/>
      <point x="566" y="588" type="line"/>
      <point x="566" y="612" type="line"/>
      <point x="272" y="612" type="line"/>
    </contour>
    <contour>
      <point x="470" y="740" type="move" name="aboveUC"/>
    </contour>
    <contour>
      <point x="300" y="-20" type="move" name="belowLC"/>
    </contour>
  </outline>
</glyph>
<glyph name="Eogonek" format="1">
	<unicode hex="0118"/>
	<advance width="600"/>
	<outline>
		<contour>
			<point x="472" y="-224" type="curve" smooth="yes"/>
			<point x="510" y="-224"/>
			<point x="530" y="-208"/>
			<point x="550" y="-188" type="curve"/>
			<point x="532" y="-170" type="line"/>
			<point x="518" y="-184"/>
			<point x="500" y="-196"/>
			<point x="474" y="-196" type="curve" smooth="yes"/>
			<point x="441" y="-196"/>
			<point x="410" y="-176"/>
			<point x="410" y="-134" type="curve" smooth="yes"/>
			<point x="410" y="-74"/>
			<point x="470" y="-12"/>
			<point x="524" y="0" type="curve"/>
			<point x="526" y="0" type="line"/>
			<point x="526" y="28" type="line"/>
			<point x="164" y="28" type="line"/>
			<point x="164" y="338" type="line"/>
			<point x="460" y="338" type="line"/>
			<point x="460" y="366" type="line"/>
			<point x="164" y="366" type="line"/>
			<point x="164" y="632" type="line"/>
			<point x="516" y="632" type="line"/>
			<point x="516" y="660" type="line"/>
			<point x="132" y="660" type="line"/>
			<point x="132" y="0" type="line"/>
			<point x="470" y="0" type="line"/>
			<point x="420" y="-30"/>
			<point x="380" y="-78"/>
			<point x="380" y="-136" type="curve" smooth="yes"/>
			<point x="380" y="-196"/>
			<point x="419" y="-224"/>
		</contour>
		<contour>
			<point name="aboveUC" x="338" y="680" type="move"/>
		</contour>
	</outline>
</glyph>
<glyph name="Lslash" format="1">
	<unicode hex="0141"/>
	<advance width="600"/>
	<outline>
		<contour>
			<point x="36" y="190" type="line"/>
			<point x="158" y="252" type="line"/>
			<point x="184" y="264" type="line"/>
			<point x="434" y="394" type="line"/>
			<point x="422" y="418" type="line"/>
			<point x="184" y="294" type="line"/>
			<point x="158" y="282" type="line"/>
			<point x="24" y="214" type="line"/>
		</contour>
		<component base="L"/>
		<contour>
			<point name="aboveUC" x="186" y="680" type="move"/>
		</contour>
		<contour>
			<point name="belowLC" x="360" y="-20" type="move"/>
		</contour>
	</outline>
</glyph>
<glyph name="lslash" format="1">
  <advance width="600"/>
  <unicode hex="0142"/>
  <outline>
    <contour>
      <point x="154" y="304" type="line"/>
      <point x="282" y="380" type="line"/>
      <point x="308" y="392" type="line"/>
      <point x="490" y="498" type="line"/>
      <point x="478" y="522" type="line"/>
      <point x="308" y="424" type="line"/>
      <point x="282" y="412" type="line"/>
      <point x="142" y="328" type="line"/>
    </contour>
    <component base="l"/>
    <contour>
      <point x="294" y="740" type="move" name="aboveUC"/>
    </contour>
    <contour>
      <point x="400" y="-20" type="move" name="belowLC"/>
    </contour>
  </outline>
</glyph>
<glyph name="Eng" format="1">
  <advance width="600"/>
  <unicode hex="014A"/>
  <outline>
    <contour>
      <point x="324" y="682" type="move" name="aboveUC"/>
    </contour>
    <contour>
      <point x="392" y="-12" type="curve" smooth="yes"/>
      <point x="471" y="-12"/>
      <point x="544" y="70"/>
      <point x="544" y="338" type="curve" smooth="yes"/>
      <point x="544" y="584"/>
      <point x="447" y="672"/>
      <point x="318" y="672" type="curve" smooth="yes"/>
      <point x="248" y="672"/>
      <point x="177" y="621"/>
      <point x="132" y="570" type="curve"/>
      <point x="132" y="660" type="line"/>
      <point x="100" y="660" type="line"/>
      <point x="100" y="0" type="line"/>
      <point x="132" y="0" type="line"/>
      <point x="132" y="532" type="line"/>
      <point x="176" y="589"/>
      <point x="256" y="642"/>
      <point x="316" y="642" type="curve" smooth="yes"/>
      <point x="430" y="642"/>
      <point x="510" y="574"/>
      <point x="510" y="338" type="curve" smooth="yes"/>
      <point x="510" y="98"/>
      <point x="455" y="20"/>
      <point x="390" y="20" type="curve" smooth="yes"/>
      <point x="366" y="20"/>
      <point x="350" y="24"/>
      <point x="334" y="32" type="curve"/>
      <point x="322" y="0" type="line"/>
      <point x="340" y="-8"/>
      <point x="369" y="-12"/>
    </contour>
  </outline>
</glyph>
<glyph name="tbar" format="1">
  <advance width="600"/>
  <unicode hex="0167"/>
  <outline>
    <contour>
      <point x="262" y="630" type="move" name="aboveLC"/>
    </contour>
    <contour>
      <point x="388" y="-22" type="move" name="belowLC"/>
    </contour>
    <contour>
      <point x="84" y="238" type="line"/>
      <point x="504" y="238" type="line"/>
      <point x="504" y="266" type="line"/>
      <point x="232" y="266" type="line"/>
      <point x="84" y="262" type="line"/>
    </contour>
    <component base="t"/>
  </outline>
</glyph>
<glyph name="Dhook" format="1">
	<unicode hex="018A"/>
	<advance width="600"/>
	<outline>
		<contour>
			<point x="232" y="0" type="line"/>
			<point x="292" y="0" type="line" smooth="yes"/>
			<point x="466" y="0"/>
			<point x="556" y="138"/>
			<point x="556" y="340" type="curve" smooth="yes"/>
			<point x="556" y="540"/>
			<point x="469" y="672"/>
			<point x="260" y="672" type="curve" smooth="yes"/>
			<point x="116" y="672"/>
			<point x="40" y="582"/>
			<point x="40" y="456" type="curve" smooth="yes"/>
			<point x="40" y="362"/>
			<point x="80" y="304"/>
			<point x="148" y="270" type="curve"/>
			<point x="166" y="296" type="line"/>
			<point x="104" y="332"/>
			<point x="74" y="378"/>
			<point x="74" y="456" type="curve" smooth="yes"/>
			<point x="74" y="562"/>
			<point x="140" y="642"/>
			<point x="258" y="642" type="curve" smooth="yes"/>
			<point x="260" y="642" type="line" smooth="yes"/>
			<point x="453" y="642"/>
			<point x="522" y="516"/>
			<point x="522" y="340" type="curve" smooth="yes"/>
			<point x="522" y="161"/>
			<point x="454" y="28"/>
			<point x="296" y="28" type="curve" smooth="yes"/>
			<point x="264" y="28" type="line"/>
			<point x="264" y="660" type="line"/>
			<point x="232" y="660" type="line"/>
		</contour>
		<contour>
			<point name="aboveUC" x="320" y="680" type="move"/>
		</contour>
		<contour>
			<point name="belowLC" x="370" y="-20" type="move"/>
		</contour>
	</outline>
</glyph>
<glyph name="Schwa" format="1">
  <advance width="600"/>
  <unicode hex="018F"/>
  <outline>
    <contour>
      <point x="298" y="-12" type="curve" smooth="yes"/>
      <point x="444" y="-12"/>
      <point x="542" y="124"/>
      <point x="542" y="332" type="curve" smooth="yes"/>
      <point x="542" y="540"/>
      <point x="456" y="672"/>
      <point x="302" y="672" type="curve" smooth="yes"/>
      <point x="230" y="672"/>
      <point x="174" y="640"/>
      <point x="136" y="598" type="curve"/>
      <point x="154" y="576" type="line"/>
      <point x="192" y="618"/>
      <point x="244" y="644"/>
      <point x="304" y="644" type="curve" smooth="yes"/>
      <point x="438" y="644"/>
      <point x="510" y="520"/>
      <point x="510" y="332" type="curve" smooth="yes"/>
      <point x="510" y="144"/>
      <point x="428" y="16"/>
      <point x="298" y="16" type="curve" smooth="yes"/>
      <point x="172" y="16"/>
      <point x="98" y="140"/>
      <point x="98" y="332" type="curve"/>
      <point x="76" y="304" type="line"/>
      <point x="514" y="304" type="line"/>
      <point x="514" y="332" type="line"/>
      <point x="66" y="332" type="line"/>
      <point x="66" y="332"/>
      <point x="66" y="332"/>
      <point x="66" y="330" type="curve" smooth="yes"/>
      <point x="66" y="132"/>
      <point x="152" y="-12"/>
    </contour>
    <contour>
      <point x="316" y="680" type="move" name="aboveUC"/>
    </contour>
    <contour>
      <point x="310" y="0" type="move" name="ogonekUC"/>
    </contour>
    <contour>
      <point x="310" y="0" type="move" name="baseLC"/>
    </contour>
    <contour>
      <point x="300" y="-20" type="move" name="belowLC"/>
    </contour>
  </outline>
</glyph>
<glyph name="oogonek" format="1">
  <advance width="600"/>
  <unicode hex="01EB"/>
  <outline>
    <contour>
      <point x="328" y="-224" type="curve" smooth="yes"/>
      <point x="366" y="-224"/>
      <point x="386" y="-208"/>
      <point x="406" y="-188" type="curve"/>
      <point x="388" y="-170" type="line"/>
      <point x="374" y="-184"/>
      <point x="356" y="-196"/>
      <point x="330" y="-196" type="curve" smooth="yes"/>
      <point x="297" y="-196"/>
      <point x="266" y="-176"/>
      <point x="266" y="-134" type="curve" smooth="yes"/>
      <point x="266" y="-86"/>
      <point x="304" y="-30"/>
      <point x="360" y="-6" type="curve" smooth="yes"/>
      <point x="462" y="38"/>
      <point x="530" y="100"/>
      <point x="530" y="238" type="curve" smooth="yes"/>
      <point x="530" y="398"/>
      <point x="425" y="490"/>
      <point x="300" y="490" type="curve" smooth="yes"/>
      <point x="175" y="490"/>
      <point x="70" y="398"/>
      <point x="70" y="238" type="curve" smooth="yes"/>
      <point x="70" y="86"/>
      <point x="166" y="-12"/>
      <point x="308" y="-12" type="curve"/>
      <point x="268" y="-44"/>
      <point x="236" y="-84"/>
      <point x="236" y="-136" type="curve" smooth="yes"/>
      <point x="236" y="-196"/>
      <point x="275" y="-224"/>
    </contour>
    <contour>
      <point x="300" y="16" type="curve" smooth="yes"/>
      <point x="186" y="16"/>
      <point x="102" y="106"/>
      <point x="102" y="238" type="curve" smooth="yes"/>
      <point x="102" y="370"/>
      <point x="186" y="462"/>
      <point x="300" y="462" type="curve" smooth="yes"/>
      <point x="414" y="462"/>
      <point x="498" y="370"/>
      <point x="498" y="238" type="curve" smooth="yes"/>
      <point x="498" y="106"/>
      <point x="414" y="16"/>
    </contour>
    <contour>
      <point x="300" y="500" type="move" name="aboveLC"/>
    </contour>
  </outline>
</glyph>
<glyph name="Aringacute" format="1">
  <advance width="600"/>
  <unicode hex="01FA"/>
  <outline>
    <contour>
      <point x="262" y="836" type="line"/>
      <point x="388" y="912" type="line"/>
      <point x="370" y="936" type="line"/>
      <point x="246" y="850" type="line"/>
    </contour>
    <component base="Aring"/>
  </outline>
</glyph>
<glyph name="ereversed" format="1">
  <advance width="600"/>
  <unicode hex="0258"/>
  <outline>
    <contour>
      <point x="270" y="-12" type="curve" smooth="yes"/>
      <point x="406" y="-12"/>
      <point x="520" y="82"/>
      <point x="520" y="238" type="curve" smooth="yes"/>
      <point x="520" y="394"/>
      <point x="418" y="490"/>
      <point x="294" y="490" type="curve" smooth="yes"/>
      <point x="166" y="490"/>
      <point x="70" y="408"/>
      <point x="70" y="270" type="curve" smooth="yes"/>
      <point x="70" y="260"/>
      <point x="70" y="250"/>
      <point x="72" y="238" type="curve"/>
      <point x="510" y="238" type="line"/>
      <point x="510" y="266" type="line"/>
      <point x="80" y="266" type="line"/>
      <point x="98" y="250" type="line"/>
      <point x="98" y="394"/>
      <point x="186" y="462"/>
      <point x="294" y="462" type="curve" smooth="yes"/>
      <point x="398" y="462"/>
      <point x="488" y="380"/>
      <point x="488" y="240" type="curve" smooth="yes"/>
      <point x="488" y="96"/>
      <point x="386" y="16"/>
      <point x="270" y="16" type="curve" smooth="yes"/>
      <point x="202" y="16"/>
      <point x="149" y="38"/>
      <point x="104" y="70" type="curve"/>
      <point x="90" y="44" type="line"/>
      <point x="132" y="17"/>
      <point x="183" y="-12"/>
    </contour>
    <contour>
      <point x="300" y="500" type="move" name="aboveLC"/>
    </contour>
    <contour>
      <point x="290" y="-20" type="move" name="belowLC"/>
    </contour>
  </outline>
</glyph>
<glyph name="schwa" format="1">
  <advance width="600"/>
  <unicode hex="0259"/>
  <outline>
    <contour>
      <point x="302" y="-12" type="curve" smooth="yes"/>
      <point x="436" y="-12"/>
      <point x="530" y="80"/>
      <point x="530" y="240" type="curve" smooth="yes"/>
      <point x="530" y="396"/>
      <point x="436" y="490"/>
      <point x="292" y="490" type="curve" smooth="yes"/>
      <point x="205" y="490"/>
      <point x="154" y="461"/>
      <point x="112" y="434" type="curve"/>
      <point x="126" y="408" type="line"/>
      <point x="171" y="440"/>
      <point x="224" y="462"/>
      <point x="292" y="462" type="curve" smooth="yes"/>
      <point x="416" y="462"/>
      <point x="498" y="382"/>
      <point x="498" y="238" type="curve" smooth="yes"/>
      <point x="498" y="94"/>
      <point x="416" y="16"/>
      <point x="302" y="16" type="curve" smooth="yes"/>
      <point x="184" y="16"/>
      <point x="108" y="92"/>
      <point x="108" y="240" type="curve"/>
      <point x="90" y="224" type="line"/>
      <point x="520" y="224" type="line"/>
      <point x="520" y="252" type="line"/>
      <point x="82" y="252" type="line"/>
      <point x="80" y="240"/>
      <point x="80" y="230"/>
      <point x="80" y="220" type="curve" smooth="yes"/>
      <point x="80" y="78"/>
      <point x="164" y="-12"/>
    </contour>
    <contour>
      <point x="300" y="0" type="move" name="ogonekLC"/>
    </contour>
    <contour>
      <point x="310" y="500" type="move" name="aboveLC"/>
    </contour>
    <contour>
      <point x="300" y="0" type="move" name="baseLC"/>
    </contour>
    <contour>
      <point x="300" y="-20" type="move" name="belowLC"/>
    </contour>
  </outline>
</glyph>
<glyph name="gsmall" format="1">
  <advance width="600"/>
  <unicode hex="0262"/>
  <outline>
    <contour>
      <point x="340" y="-12" type="curve" smooth="yes"/>
      <point x="422" y="-12"/>
      <point x="482" y="19"/>
      <point x="522" y="58" type="curve"/>
      <point x="522" y="234" type="line"/>
      <point x="324" y="234" type="line"/>
      <point x="324" y="206" type="line"/>
      <point x="492" y="206" type="line"/>
      <point x="492" y="71" type="line"/>
      <point x="458" y="39"/>
      <point x="404" y="16"/>
      <point x="343" y="16" type="curve" smooth="yes"/>
      <point x="218" y="16"/>
      <point x="122" y="102"/>
      <point x="122" y="242" type="curve" smooth="yes"/>
      <point x="122" y="376"/>
      <point x="222" y="462"/>
      <point x="346" y="462" type="curve" smooth="yes"/>
      <point x="416" y="462"/>
      <point x="465" y="428"/>
      <point x="498" y="394" type="curve"/>
      <point x="518" y="416" type="line"/>
      <point x="483" y="452"/>
      <point x="428" y="490"/>
      <point x="346" y="490" type="curve" smooth="yes"/>
      <point x="202" y="490"/>
      <point x="90" y="393"/>
      <point x="90" y="242" type="curve" smooth="yes"/>
      <point x="90" y="84"/>
      <point x="198" y="-12"/>
    </contour>
    <contour>
      <point x="330" y="500" type="move" name="aboveLC"/>
    </contour>
    <contour>
      <point x="330" y="-20" type="move" name="belowLC"/>
    </contour>
  </outline>
</glyph>
<glyph name="gammalatin" format="1">
  <advance width="600"/>
  <unicode hex="0263"/>
  <outline>
    <contour>
      <point x="283" y="20" type="line"/>
      <point x="319" y="20" type="line"/>
      <point x="534" y="478" type="line"/>
      <point x="502" y="478" type="line"/>
      <point x="365" y="178" type="line"/>
      <point x="342" y="130"/>
      <point x="328" y="96"/>
      <point x="303" y="52" type="curve"/>
      <point x="299" y="52" type="line"/>
      <point x="274" y="96"/>
      <point x="260" y="130"/>
      <point x="237" y="178" type="curve"/>
      <point x="100" y="478" type="line"/>
      <point x="66" y="478" type="line"/>
    </contour>
    <contour>
      <point x="301" y="-234" type="curve" smooth="yes"/>
      <point x="356" y="-234"/>
      <point x="381" y="-194"/>
      <point x="381" y="-138" type="curve" smooth="yes"/>
      <point x="381" y="-94"/>
      <point x="353" y="-45"/>
      <point x="319" y="32" type="curve"/>
      <point x="282" y="32" type="line"/>
      <point x="249" y="-45"/>
      <point x="221" y="-94"/>
      <point x="221" y="-138" type="curve" smooth="yes"/>
      <point x="221" y="-194"/>
      <point x="246" y="-234"/>
    </contour>
    <contour>
      <point x="301" y="-206" type="curve" smooth="yes"/>
      <point x="266" y="-206"/>
      <point x="253" y="-176"/>
      <point x="253" y="-140" type="curve" smooth="yes"/>
      <point x="253" y="-103"/>
      <point x="275" y="-48"/>
      <point x="299" y="0" type="curve"/>
      <point x="303" y="0" type="line"/>
      <point x="327" y="-48"/>
      <point x="349" y="-99"/>
      <point x="349" y="-140" type="curve" smooth="yes"/>
      <point x="349" y="-176"/>
      <point x="336" y="-206"/>
    </contour>
    <contour>
      <point x="300" y="500" type="move" name="aboveLC"/>
    </contour>
    <contour>
      <point x="300" y="-230" type="move" name="belowLC"/>
    </contour>
  </outline>
</glyph>
<glyph name="hhook" format="1">
	<unicode hex="0266"/>
	<advance width="600"/>
	<outline>
		<contour>
			<point x="110" y="0" type="line"/>
			<point x="140" y="0" type="line"/>
			<point x="140" y="346" type="line"/>
			<point x="214" y="424"/>
			<point x="264" y="462"/>
			<point x="336" y="462" type="curve" smooth="yes"/>
			<point x="437" y="462"/>
			<point x="480" y="407"/>
			<point x="480" y="294" type="curve" smooth="yes"/>
			<point x="480" y="0" type="line"/>
			<point x="510" y="0" type="line"/>
			<point x="510" y="298" type="line" smooth="yes"/>
			<point x="510" y="429"/>
			<point x="453" y="490"/>
			<point x="336" y="490" type="curve" smooth="yes"/>
			<point x="259" y="490"/>
			<point x="200" y="444"/>
			<point x="140" y="378" type="curve"/>
			<point x="136" y="378" type="line"/>
			<point x="140" y="562" type="line"/>
			<point x="141" y="646"/>
			<point x="175" y="706"/>
			<point x="258" y="706" type="curve" smooth="yes"/>
			<point x="279" y="706"/>
			<point x="303" y="702"/>
			<point x="326" y="690" type="curve"/>
			<point x="338" y="716" type="line"/>
			<point x="313" y="727"/>
			<point x="283" y="734"/>
			<point x="260" y="734" type="curve" smooth="yes"/>
			<point x="168" y="734"/>
			<point x="110" y="674"/>
			<point x="110" y="566" type="curve"/>
		</contour>
		<contour>
			<point name="aboveUC" x="260" y="740" type="move"/>
		</contour>
		<contour>
			<point name="belowLC" x="320" y="-20" type="move"/>
		</contour>
	</outline>
</glyph>
<glyph name="henghook" format="1">
  <advance width="600"/>
  <unicode hex="0267"/>
  <outline>
    <contour>
      <point x="402" y="-180" type="curve" smooth="yes"/>
      <point x="475" y="-180"/>
      <point x="510" y="-137"/>
      <point x="510" y="-38" type="curve"/>
      <point x="510" y="298" type="line" smooth="yes"/>
      <point x="510" y="429"/>
      <point x="453" y="490"/>
      <point x="336" y="490" type="curve" smooth="yes"/>
      <point x="259" y="490"/>
      <point x="200" y="444"/>
      <point x="140" y="378" type="curve"/>
      <point x="136" y="378" type="line"/>
      <point x="140" y="509" type="line"/>
      <point x="140" y="562" type="line"/>
      <point x="141" y="646"/>
      <point x="175" y="706"/>
      <point x="258" y="706" type="curve" smooth="yes"/>
      <point x="279" y="706"/>
      <point x="302" y="701"/>
      <point x="326" y="690" type="curve"/>
      <point x="338" y="716" type="line"/>
      <point x="312" y="727"/>
      <point x="283" y="734"/>
      <point x="260" y="734" type="curve" smooth="yes"/>
      <point x="168" y="734"/>
      <point x="110" y="674"/>
      <point x="110" y="566" type="curve"/>
      <point x="110" y="0" type="line"/>
      <point x="140" y="0" type="line"/>
      <point x="140" y="346" type="line"/>
      <point x="214" y="424"/>
      <point x="264" y="462"/>
      <point x="336" y="462" type="curve" smooth="yes"/>
      <point x="437" y="462"/>
      <point x="480" y="407"/>
      <point x="480" y="294" type="curve" smooth="yes"/>
      <point x="480" y="-34" type="line"/>
      <point x="480" y="-102"/>
      <point x="468" y="-152"/>
      <point x="404" y="-152" type="curve" smooth="yes"/>
      <point x="380" y="-152"/>
      <point x="356" y="-145"/>
      <point x="342" y="-140" type="curve"/>
      <point x="334" y="-166" type="line"/>
      <point x="350" y="-173"/>
      <point x="379" y="-180"/>
    </contour>
    <contour>
      <point x="260" y="740" type="move" name="aboveUC"/>
    </contour>
    <contour>
      <point x="390" y="-230" type="move" name="belowLC"/>
    </contour>
  </outline>
</glyph>
<glyph name="lretroflex" format="1">
  <advance width="600"/>
  <unicode hex="026D"/>
  <outline>
    <contour>
      <point x="415" y="-180" type="curve" smooth="yes"/>
      <point x="461" y="-180"/>
      <point x="494" y="-165"/>
      <point x="532" y="-150" type="curve"/>
      <point x="520" y="-125" type="line"/>
      <point x="480" y="-144"/>
      <point x="449" y="-152"/>
      <point x="417" y="-152" type="curve" smooth="yes"/>
      <point x="345" y="-152"/>
      <point x="310" y="-114"/>
      <point x="310" y="-36" type="curve" smooth="yes"/>
      <point x="310" y="722" type="line"/>
      <point x="97" y="722" type="line"/>
      <point x="97" y="694" type="line"/>
      <point x="280" y="694" type="line"/>
      <point x="280" y="-30" type="line" smooth="yes"/>
      <point x="280" y="-137"/>
      <point x="329" y="-180"/>
    </contour>
    <contour>
      <point x="294" y="740" type="move" name="aboveUC"/>
    </contour>
    <contour>
      <point x="400" y="-230" type="move" name="belowLC"/>
    </contour>
  </outline>
</glyph>
<glyph name="mhook" format="1">
  <advance width="600"/>
  <unicode hex="0271"/>
  <outline>
    <contour>
      <point x="444" y="-234" type="curve" smooth="yes"/>
      <point x="510" y="-234"/>
      <point x="542" y="-194"/>
      <point x="542" y="-102" type="curve"/>
      <point x="542" y="348" type="line" smooth="yes"/>
      <point x="542" y="444"/>
      <point x="505" y="490"/>
      <point x="439" y="490" type="curve" smooth="yes"/>
      <point x="386" y="490"/>
      <point x="357" y="460"/>
      <point x="320" y="404" type="curve"/>
      <point x="307" y="462"/>
      <point x="277" y="490"/>
      <point x="223" y="490" type="curve" smooth="yes"/>
      <point x="170" y="490"/>
      <point x="141" y="460"/>
      <point x="112" y="412" type="curve"/>
      <point x="110" y="412" type="line"/>
      <point x="106" y="478" type="line"/>
      <point x="80" y="478" type="line"/>
      <point x="80" y="0" type="line"/>
      <point x="110" y="0" type="line"/>
      <point x="110" y="366" type="line"/>
      <point x="144" y="430"/>
      <point x="174" y="462"/>
      <point x="221" y="462" type="curve" smooth="yes"/>
      <point x="271" y="462"/>
      <point x="296" y="422"/>
      <point x="296" y="344" type="curve" smooth="yes"/>
      <point x="296" y="0" type="line"/>
      <point x="326" y="0" type="line"/>
      <point x="326" y="366" type="line"/>
      <point x="360" y="430"/>
      <point x="390" y="462"/>
      <point x="437" y="462" type="curve" smooth="yes"/>
      <point x="487" y="462"/>
      <point x="511" y="422"/>
      <point x="512" y="344" type="curve" smooth="yes"/>
      <point x="512" y="-98" type="line"/>
      <point x="512" y="-160"/>
      <point x="502" y="-206"/>
      <point x="446" y="-206" type="curve" smooth="yes"/>
      <point x="426" y="-206"/>
      <point x="406" y="-200"/>
      <point x="394" y="-196" type="curve"/>
      <point x="386" y="-222" type="line"/>
      <point x="400" y="-228"/>
      <point x="424" y="-234"/>
    </contour>
    <contour>
      <point x="300" y="500" type="move" name="aboveLC"/>
    </contour>
    <contour>
      <point x="300" y="-230" type="move" name="belowLC"/>
    </contour>
  </outline>
</glyph>
<glyph name="nretroflex" format="1">
  <advance width="600"/>
  <unicode hex="0273"/>
  <outline>
    <contour>
      <point x="568" y="-180" type="curve" smooth="yes"/>
      <point x="584" y="-180"/>
      <point x="606" y="-174"/>
      <point x="616" y="-168" type="curve"/>
      <point x="608" y="-142" type="line"/>
      <point x="598" y="-146"/>
      <point x="582" y="-152"/>
      <point x="566" y="-152" type="curve" smooth="yes"/>
      <point x="522" y="-152"/>
      <point x="510" y="-110"/>
      <point x="510" y="-50" type="curve"/>
      <point x="510" y="298" type="line" smooth="yes"/>
      <point x="510" y="429"/>
      <point x="453" y="490"/>
      <point x="336" y="490" type="curve" smooth="yes"/>
      <point x="258" y="490"/>
      <point x="201" y="444"/>
      <point x="144" y="382" type="curve"/>
      <point x="140" y="382" type="line"/>
      <point x="136" y="478" type="line"/>
      <point x="110" y="478" type="line"/>
      <point x="110" y="0" type="line"/>
      <point x="140" y="0" type="line"/>
      <point x="140" y="346" type="line"/>
      <point x="214" y="424"/>
      <point x="264" y="462"/>
      <point x="336" y="462" type="curve" smooth="yes"/>
      <point x="437" y="462"/>
      <point x="480" y="407"/>
      <point x="480" y="294" type="curve" smooth="yes"/>
      <point x="480" y="-54" type="line" smooth="yes"/>
      <point x="480" y="-144"/>
      <point x="508" y="-180"/>
    </contour>
    <contour>
      <point x="320" y="500" type="move" name="aboveLC"/>
    </contour>
    <contour>
      <point x="500" y="-230" type="move" name="belowLC"/>
    </contour>
  </outline>
</glyph>
<glyph name="nsmall" format="1">
  <advance width="600"/>
  <unicode hex="0274"/>
  <outline>
    <contour>
      <point x="114" y="0" type="line"/>
      <point x="144" y="0" type="line"/>
      <point x="144" y="254" type="line" smooth="yes"/>
      <point x="144" y="307"/>
      <point x="142" y="368"/>
      <point x="140" y="432" type="curve"/>
      <point x="144" y="432" type="line"/>
      <point x="168" y="400"/>
      <point x="198" y="359"/>
      <point x="220" y="328" type="curve" smooth="yes"/>
      <point x="454" y="0" type="line"/>
      <point x="486" y="0" type="line"/>
      <point x="486" y="478" type="line"/>
      <point x="456" y="478" type="line"/>
      <point x="456" y="224" type="line" smooth="yes"/>
      <point x="456" y="171"/>
      <point x="458" y="110"/>
      <point x="460" y="46" type="curve"/>
      <point x="456" y="46" type="line"/>
      <point x="430" y="78"/>
      <point x="402" y="119"/>
      <point x="380" y="150" type="curve" smooth="yes"/>
      <point x="146" y="478" type="line"/>
      <point x="114" y="478" type="line"/>
    </contour>
    <contour>
      <point x="310" y="500" type="move" name="aboveLC"/>
    </contour>
    <contour>
      <point x="300" y="-20" type="move" name="belowLC"/>
    </contour>
  </outline>
</glyph>
<glyph name="rfishhook" format="1">
  <advance width="600"/>
  <unicode hex="027E"/>
  <outline>
    <contour>
      <point x="170" y="0" type="line"/>
      <point x="200" y="0" type="line"/>
      <point x="200" y="238" type="line" smooth="yes"/>
      <point x="200" y="388"/>
      <point x="290" y="460"/>
      <point x="414" y="460" type="curve" smooth="yes"/>
      <point x="446" y="460"/>
      <point x="482" y="456"/>
      <point x="518" y="442" type="curve"/>
      <point x="528" y="470" type="line"/>
      <point x="494" y="484"/>
      <point x="455" y="490"/>
      <point x="416" y="490" type="curve" smooth="yes"/>
      <point x="284" y="490"/>
      <point x="170" y="420"/>
      <point x="170" y="242" type="curve" smooth="yes"/>
    </contour>
    <contour>
      <point x="360" y="500" type="move" name="aboveLC"/>
    </contour>
    <contour>
      <point x="190" y="-20" type="move" name="belowLC"/>
    </contour>
  </outline>
</glyph>
<glyph name="rsmall" format="1">
  <advance width="600"/>
  <unicode hex="0280"/>
  <outline>
    <contour>
      <point x="120" y="0" type="line"/>
      <point x="150" y="0" type="line"/>
      <point x="150" y="216" type="line"/>
      <point x="358" y="216" type="line"/>
      <point x="446" y="216"/>
      <point x="517" y="256"/>
      <point x="517" y="350" type="curve" smooth="yes"/>
      <point x="517" y="444"/>
      <point x="448" y="478"/>
      <point x="350" y="478" type="curve" smooth="yes"/>
      <point x="120" y="478" type="line"/>
    </contour>
    <contour>
      <point x="150" y="244" type="line"/>
      <point x="150" y="450" type="line"/>
      <point x="340" y="450" type="line" smooth="yes"/>
      <point x="429" y="450"/>
      <point x="485" y="421"/>
      <point x="485" y="350" type="curve" smooth="yes"/>
      <point x="485" y="279"/>
      <point x="429" y="244"/>
      <point x="340" y="244" type="curve" smooth="yes"/>
    </contour>
    <contour>
      <point x="492" y="0" type="line"/>
      <point x="528" y="0" type="line"/>
      <point x="356" y="230" type="line"/>
      <point x="330" y="218" type="line"/>
    </contour>
    <contour>
      <point x="320" y="500" type="move" name="aboveLC"/>
    </contour>
    <contour>
      <point x="320" y="-20" type="move" name="belowLC"/>
    </contour>
  </outline>
</glyph>
<glyph name="esh" format="1">
  <advance width="600"/>
  <unicode hex="0283"/>
  <outline>
    <contour>
      <point x="188" y="-234" type="curve" smooth="yes"/>
      <point x="274" y="-234"/>
      <point x="316" y="-182"/>
      <point x="316" y="-62" type="curve" smooth="yes"/>
      <point x="316" y="560" type="line" smooth="yes"/>
      <point x="316" y="644"/>
      <point x="333" y="708"/>
      <point x="422" y="708" type="curve" smooth="yes"/>
      <point x="457" y="708"/>
      <point x="482" y="696"/>
      <point x="514" y="678" type="curve"/>
      <point x="526" y="704" type="line"/>
      <point x="487" y="725"/>
      <point x="461" y="736"/>
      <point x="424" y="736" type="curve" smooth="yes"/>
      <point x="330" y="736"/>
      <point x="286" y="684"/>
      <point x="286" y="564" type="curve" smooth="yes"/>
      <point x="286" y="-58" type="line"/>
      <point x="286" y="-142"/>
      <point x="271" y="-206"/>
      <point x="190" y="-206" type="curve" smooth="yes"/>
      <point x="148" y="-206"/>
      <point x="112" y="-191"/>
      <point x="80" y="-176" type="curve"/>
      <point x="66" y="-202" type="line"/>
      <point x="106" y="-223"/>
      <point x="145" y="-234"/>
    </contour>
    <contour>
      <point x="340" y="740" type="move" name="aboveUC"/>
    </contour>
    <contour>
      <point x="280" y="-230" type="move" name="belowLC"/>
    </contour>
  </outline>
</glyph>
<glyph name="wturned" format="1">
  <advance width="600"/>
  <unicode hex="028D"/>
  <outline>
    <component base="w" xScale="-1" yScale="-1" xOffset="600" yOffset="478"/>
    <contour>
      <point x="300" y="500" type="move" name="aboveLC"/>
    </contour>
    <contour>
      <point x="300" y="-20" type="move" name="belowLC"/>
    </contour>
  </outline>
</glyph>
<glyph name="yturned" format="1">
	<unicode hex="028E"/>
	<advance width="600"/>
	<outline>
		<contour>
			<point x="64" y="0" type="line"/>
			<point x="94" y="0" type="line"/>
			<point x="226" y="314" type="line" smooth="yes"/>
			<point x="243" y="354"/>
			<point x="264" y="406"/>
			<point x="284" y="448" type="curve"/>
			<point x="288" y="448" type="line"/>
			<point x="312" y="406"/>
			<point x="337" y="354"/>
			<point x="356" y="314" type="curve" smooth="yes"/>
			<point x="504" y="0" type="line"/>
			<point x="536" y="0" type="line"/>
			<point x="300" y="490" type="line"/>
			<point x="334" y="568" type="line"/>
			<point x="363" y="646"/>
			<point x="410" y="704"/>
			<point x="481" y="704" type="curve" smooth="yes"/>
			<point x="500" y="704"/>
			<point x="516" y="700"/>
			<point x="528" y="696" type="curve"/>
			<point x="538" y="724" type="line"/>
			<point x="524" y="730"/>
			<point x="502" y="734"/>
			<point x="484" y="734" type="curve" smooth="yes"/>
			<point x="392" y="734"/>
			<point x="335" y="654"/>
			<point x="310" y="580" type="curve"/>
		</contour>
		<contour>
			<point name="aboveUC" x="430" y="740" type="move"/>
		</contour>
		<contour>
			<point name="belowLC" x="310" y="-20" type="move"/>
		</contour>
	</outline>
</glyph>
<glyph name="zretroflex" format="1">
	<unicode hex="0290"/>
	<advance width="600"/>
	<outline>
		<contour>
			<point x="560" y="-180" type="curve" smooth="yes"/>
			<point x="576" y="-180"/>
			<point x="598" y="-174"/>
			<point x="608" y="-168" type="curve"/>
			<point x="600" y="-142" type="line"/>
			<point x="590" y="-146"/>
			<point x="574" y="-152"/>
			<point x="558" y="-152" type="curve" smooth="yes"/>
			<point x="514" y="-152"/>
			<point x="502" y="-110"/>
			<point x="502" y="-50" type="curve" smooth="yes"/>
			<point x="502" y="28" type="line"/>
			<point x="120" y="28" type="line"/>
			<point x="502" y="462" type="line"/>
			<point x="502" y="478" type="line"/>
			<point x="114" y="478" type="line"/>
			<point x="114" y="450" type="line"/>
			<point x="454" y="450" type="line"/>
			<point x="72" y="16" type="line"/>
			<point x="72" y="0" type="line"/>
			<point x="472" y="0" type="line"/>
			<point x="472" y="-54" type="line" smooth="yes"/>
			<point x="472" y="-144"/>
			<point x="500" y="-180"/>
		</contour>
		<contour>
			<point name="aboveLC" x="318" y="500" type="move"/>
		</contour>
	</outline>
</glyph>
<glyph name="glottalstop" format="1">
  <advance width="600"/>
  <unicode hex="0294"/>
  <outline>
    <contour>
      <point x="266" y="0" type="line"/>
      <point x="296" y="0" type="line"/>
      <point x="296" y="288" type="line"/>
      <point x="410" y="356"/>
      <point x="496" y="419"/>
      <point x="496" y="542" type="curve" smooth="yes"/>
      <point x="496" y="666"/>
      <point x="407" y="734"/>
      <point x="290" y="734" type="curve" smooth="yes"/>
      <point x="188" y="734"/>
      <point x="128" y="683"/>
      <point x="88" y="638" type="curve"/>
      <point x="108" y="616" type="line"/>
      <point x="146" y="661"/>
      <point x="200" y="706"/>
      <point x="292" y="706" type="curve" smooth="yes"/>
      <point x="403" y="706"/>
      <point x="464" y="640"/>
      <point x="464" y="544" type="curve" smooth="yes"/>
      <point x="464" y="440"/>
      <point x="396" y="379"/>
      <point x="266" y="310" type="curve"/>
    </contour>
    <contour>
      <point x="300" y="740" type="move" name="aboveUC"/>
    </contour>
    <contour>
      <point x="280" y="-20" type="move" name="belowLC"/>
    </contour>
  </outline>
</glyph>
<glyph name="kturned" format="1">
  <advance width="600"/>
  <unicode hex="029E"/>
  <outline>
    <contour>
      <point x="440" y="-222" type="line"/>
      <point x="470" y="-222" type="line"/>
      <point x="470" y="478" type="line"/>
      <point x="440" y="478" type="line"/>
      <point x="440" y="340" type="line"/>
      <point x="70" y="0" type="line"/>
      <point x="110" y="0" type="line"/>
      <point x="436" y="302" type="line"/>
      <point x="440" y="302" type="line"/>
    </contour>
    <contour>
      <point x="278" y="170" type="line"/>
      <point x="300" y="192" type="line"/>
      <point x="72" y="478" type="line"/>
      <point x="36" y="478" type="line"/>
    </contour>
    <contour>
      <point x="274" y="500" type="move" name="aboveLC"/>
    </contour>
    <contour>
      <point x="450" y="-230" type="move" name="belowLC"/>
    </contour>
  </outline>
</glyph>
<glyph name="dezh" format="1">
  <advance width="600"/>
  <unicode hex="02A4"/>
  <outline>
    <contour>
      <point x="162" y="-12" type="curve" smooth="yes"/>
      <point x="218" y="-12"/>
      <point x="260" y="34"/>
      <point x="278" y="74" type="curve"/>
      <point x="280" y="74" type="line"/>
      <point x="284" y="0" type="line"/>
      <point x="310" y="0" type="line"/>
      <point x="310" y="722" type="line"/>
      <point x="280" y="722" type="line"/>
      <point x="280" y="520" type="line"/>
      <point x="282" y="420" type="line"/>
      <point x="280" y="420" type="line"/>
      <point x="260" y="456"/>
      <point x="226" y="490"/>
      <point x="178" y="490" type="curve" smooth="yes"/>
      <point x="90" y="490"/>
      <point x="10" y="392"/>
      <point x="10" y="238" type="curve" smooth="yes"/>
      <point x="10" y="76"/>
      <point x="72" y="-12"/>
    </contour>
    <contour>
      <point x="164" y="16" type="curve" smooth="yes"/>
      <point x="88" y="16"/>
      <point x="42" y="106"/>
      <point x="42" y="238" type="curve" smooth="yes"/>
      <point x="42" y="362"/>
      <point x="100" y="462"/>
      <point x="176" y="462" type="curve" smooth="yes"/>
      <point x="220" y="462"/>
      <point x="250" y="432"/>
      <point x="280" y="386" type="curve"/>
      <point x="280" y="110" type="line"/>
      <point x="250" y="58"/>
      <point x="212" y="16"/>
    </contour>
    <contour>
      <point x="468" y="-234" type="curve" smooth="yes"/>
      <point x="544" y="-234"/>
      <point x="618" y="-168"/>
      <point x="618" y="-22" type="curve" smooth="yes"/>
      <point x="618" y="106"/>
      <point x="534" y="210"/>
      <point x="392" y="152" type="curve"/>
      <point x="406" y="138" type="line"/>
      <point x="598" y="462" type="line"/>
      <point x="598" y="478" type="line"/>
      <point x="306" y="478" type="line"/>
      <point x="306" y="450" type="line"/>
      <point x="554" y="450" type="line"/>
      <point x="376" y="146" type="line"/>
      <point x="396" y="120" type="line"/>
      <point x="418" y="132"/>
      <point x="434" y="140"/>
      <point x="462" y="140" type="curve" smooth="yes"/>
      <point x="539" y="140"/>
      <point x="586" y="78"/>
      <point x="586" y="-24" type="curve" smooth="yes"/>
      <point x="586" y="-142"/>
      <point x="534" y="-206"/>
      <point x="470" y="-206" type="curve" smooth="yes"/>
      <point x="404" y="-206"/>
      <point x="372" y="-180"/>
      <point x="340" y="-147" type="curve"/>
      <point x="320" y="-169" type="line"/>
      <point x="354" y="-204"/>
      <point x="392" y="-234"/>
    </contour>
    <contour>
      <point x="280" y="730" type="move" name="aboveUC"/>
    </contour>
    <contour>
      <point x="330" y="-230" type="move" name="belowLC"/>
    </contour>
  </outline>
</glyph>
<glyph name="tesh" format="1">
  <advance width="600"/>
  <unicode hex="02A7"/>
  <outline>
    <contour>
      <point x="270" y="-12" type="curve" smooth="yes"/>
      <point x="286" y="-12"/>
      <point x="316" y="-4"/>
      <point x="344" y="6" type="curve"/>
      <point x="334" y="32" type="line"/>
      <point x="316" y="24"/>
      <point x="290" y="16"/>
      <point x="272" y="16" type="curve" smooth="yes"/>
      <point x="202" y="16"/>
      <point x="188" y="60"/>
      <point x="188" y="122" type="curve" smooth="yes"/>
      <point x="188" y="450" type="line"/>
      <point x="420" y="450" type="line"/>
      <point x="420" y="478" type="line"/>
      <point x="188" y="478" type="line"/>
      <point x="188" y="618" type="line"/>
      <point x="162" y="618" type="line"/>
      <point x="158" y="478" type="line"/>
      <point x="82" y="474" type="line"/>
      <point x="82" y="450" type="line"/>
      <point x="158" y="450" type="line"/>
      <point x="158" y="126" type="line" smooth="yes"/>
      <point x="158" y="44"/>
      <point x="182" y="-12"/>
    </contour>
    <contour>
      <point x="340" y="-234" type="curve" smooth="yes"/>
      <point x="406" y="-234"/>
      <point x="438" y="-194"/>
      <point x="438" y="-102" type="curve" smooth="yes"/>
      <point x="438" y="600" type="line" smooth="yes"/>
      <point x="438" y="662"/>
      <point x="450" y="708"/>
      <point x="514" y="708" type="curve" smooth="yes"/>
      <point x="530" y="708"/>
      <point x="546" y="702"/>
      <point x="556" y="698" type="curve"/>
      <point x="564" y="724" type="line"/>
      <point x="552" y="730"/>
      <point x="533" y="736"/>
      <point x="516" y="736" type="curve" smooth="yes"/>
      <point x="443" y="736"/>
      <point x="408" y="696"/>
      <point x="408" y="604" type="curve" smooth="yes"/>
      <point x="408" y="-98" type="line"/>
      <point x="408" y="-160"/>
      <point x="398" y="-206"/>
      <point x="342" y="-206" type="curve" smooth="yes"/>
      <point x="322" y="-206"/>
      <point x="302" y="-200"/>
      <point x="290" y="-196" type="curve"/>
      <point x="282" y="-222" type="line"/>
      <point x="296" y="-228"/>
      <point x="320" y="-234"/>
    </contour>
    <contour>
      <point x="315" y="730" type="move" name="aboveUC"/>
    </contour>
    <contour>
      <point x="331" y="-230" type="move" name="belowLC"/>
    </contour>
  </outline>
</glyph>
<glyph name="gravecmb" format="1">
	<unicode hex="0300"/>
	<advance width="600"/>
	<outline>
		<contour>
			<point x="334" y="574" type="line"/>
			<point x="352" y="590" type="line"/>
			<point x="220" y="746" type="line"/>
			<point x="196" y="724" type="line"/>
		</contour>
		<contour>
			<point name="_aboveLC" x="300" y="500" type="move"/>
		</contour>
		<contour>
			<point name="aboveLC" x="300" y="500" type="move"/>
		</contour>
	</outline>
</glyph>
<glyph name="circumflexcmb" format="1">
	<unicode hex="0302"/>
	<advance width="600"/>
	<outline>
		<contour>
			<point x="186" y="574" type="line"/>
			<point x="298" y="704" type="line"/>
			<point x="302" y="704" type="line"/>
			<point x="414" y="574" type="line"/>
			<point x="432" y="590" type="line"/>
			<point x="314" y="736" type="line"/>
			<point x="286" y="736" type="line"/>
			<point x="168" y="590" type="line"/>
		</contour>
		<contour>
			<point name="_aboveLC" x="300" y="500" type="move"/>
		</contour>
		<contour>
			<point name="aboveLC" x="300" y="728" type="move"/>
		</contour>
	</outline>
</glyph>
<glyph name="macroncmb" format="1">
	<unicode hex="0304"/>
	<advance width="600"/>
	<outline>
		<contour>
			<point x="180" y="608" type="line"/>
			<point x="420" y="608" type="line"/>
			<point x="420" y="636" type="line"/>
			<point x="180" y="636" type="line"/>
		</contour>
		<contour>
			<point name="_aboveLC" x="300" y="500" type="move"/>
		</contour>
		<contour>
			<point name="aboveLC" x="300" y="500" type="move"/>
		</contour>
	</outline>
</glyph>
<glyph name="candrabinducmb" format="1">
  <advance width="600"/>
  <unicode hex="0310"/>
  <outline>
    <contour>
      <point x="300" y="570" type="curve" smooth="yes"/>
      <point x="401" y="570"/>
      <point x="438" y="654"/>
      <point x="446" y="716" type="curve"/>
      <point x="420" y="720" type="line"/>
      <point x="412" y="662"/>
      <point x="375" y="596"/>
      <point x="300" y="596" type="curve" smooth="yes"/>
      <point x="225" y="596"/>
      <point x="188" y="662"/>
      <point x="180" y="720" type="curve"/>
      <point x="154" y="716" type="line"/>
      <point x="162" y="654"/>
      <point x="199" y="570"/>
    </contour>
    <contour>
      <point x="300" y="700" type="curve" smooth="yes"/>
      <point x="322" y="700"/>
      <point x="340" y="716"/>
      <point x="340" y="742" type="curve" smooth="yes"/>
      <point x="340" y="768"/>
      <point x="322" y="784"/>
      <point x="300" y="784" type="curve" smooth="yes"/>
      <point x="278" y="784"/>
      <point x="260" y="768"/>
      <point x="260" y="742" type="curve" smooth="yes"/>
      <point x="260" y="716"/>
      <point x="278" y="700"/>
    </contour>
    <contour>
      <point x="300" y="500" type="move" name="_aboveLC"/>
    </contour>
  </outline>
</glyph>
<glyph name="commaturnedabovecmb" format="1">
  <advance width="600"/>
  <unicode hex="0312"/>
  <outline>
    <contour>
      <point x="298" y="546" type="curve" smooth="yes"/>
      <point x="314" y="546"/>
      <point x="328" y="556"/>
      <point x="328" y="580" type="curve" smooth="yes"/>
      <point x="328" y="602"/>
      <point x="310" y="610"/>
      <point x="296" y="610" type="curve" smooth="yes"/>
      <point x="284" y="610"/>
      <point x="276" y="606"/>
      <point x="266" y="592" type="curve"/>
      <point x="304" y="560" type="line"/>
      <point x="288" y="608" type="line" smooth="yes"/>
      <point x="288" y="640"/>
      <point x="302" y="668"/>
      <point x="340" y="690" type="curve"/>
      <point x="326" y="712" type="line"/>
      <point x="278" y="686"/>
      <point x="260" y="644"/>
      <point x="260" y="604" type="curve" smooth="yes"/>
      <point x="260" y="566"/>
      <point x="274" y="546"/>
    </contour>
    <contour>
      <point x="300" y="500" type="move" name="_aboveLC"/>
    </contour>
  </outline>
</glyph>
<glyph name="cedillacmb" format="1">
  <advance width="600"/>
  <unicode hex="0327"/>
  <outline>
    <contour>
      <point x="226" y="-216" type="line"/>
      <point x="316" y="-210"/>
      <point x="364" y="-184"/>
      <point x="364" y="-134" type="curve" smooth="yes"/>
      <point x="364" y="-94"/>
      <point x="336" y="-76"/>
      <point x="294" y="-66" type="curve"/>
      <point x="324" y="2" type="line"/>
      <point x="296" y="2" type="line"/>
      <point x="256" y="-84" type="line"/>
      <point x="310" y="-92"/>
      <point x="334" y="-106"/>
      <point x="334" y="-136" type="curve" smooth="yes"/>
      <point x="334" y="-166"/>
      <point x="308" y="-184"/>
      <point x="220" y="-190" type="curve"/>
    </contour>
    <contour>
      <point x="300" y="0" type="move" name="_baseLC"/>
    </contour>
  </outline>
</glyph>
<glyph name="bridgeinvertedbelowcmb" format="1">
  <advance width="600"/>
  <unicode hex="033A"/>
  <outline>
    <contour>
      <point x="184" y="-234" type="line"/>
      <point x="416" y="-234" type="line"/>
      <point x="416" y="-90" type="line"/>
      <point x="390" y="-90" type="line"/>
      <point x="390" y="-206" type="line"/>
      <point x="210" y="-206" type="line"/>
      <point x="210" y="-90" type="line"/>
      <point x="184" y="-90" type="line"/>
    </contour>
    <contour>
      <point x="300" y="-20" type="move" name="_belowLC"/>
    </contour>
  </outline>
</glyph>
<glyph name="macrondoublebelowcmb" format="1">
  <advance width="600"/>
  <unicode hex="035F"/>
  <outline>
    <contour>
      <point x="-180" y="-156" type="line"/>
      <point x="780" y="-156" type="line"/>
      <point x="780" y="-128" type="line"/>
      <point x="-180" y="-128" type="line"/>
    </contour>
  </outline>
</glyph>
<glyph name="numeralsign" format="1">
  <advance width="600"/>
  <unicode hex="0374"/>
  <outline>
    <contour>
      <point x="278" y="498" type="line"/>
      <point x="298" y="498" type="line"/>
      <point x="322" y="630" type="line"/>
      <point x="330" y="694" type="line"/>
      <point x="302" y="694" type="line"/>
    </contour>
  </outline>
</glyph>
<glyph name="Etatonos" format="1">
  <advance width="600"/>
  <unicode hex="0389"/>
  <outline>
    <contour>
      <point x="192" y="0" type="line"/>
      <point x="224" y="0" type="line"/>
      <point x="224" y="338" type="line"/>
      <point x="476" y="338" type="line"/>
      <point x="476" y="0" type="line"/>
      <point x="508" y="0" type="line"/>
      <point x="508" y="660" type="line"/>
      <point x="476" y="660" type="line"/>
      <point x="476" y="366" type="line"/>
      <point x="224" y="366" type="line"/>
      <point x="224" y="660" type="line"/>
      <point x="192" y="660" type="line"/>
    </contour>
    <component base="tonos.cap" xOffset="-220"/>
  </outline>
</glyph>
<glyph name="Upsilontonos" format="1">
  <advance width="600"/>
  <unicode hex="038E"/>
  <outline>
    <contour>
      <point x="364" y="0" type="line"/>
      <point x="396" y="0" type="line"/>
      <point x="396" y="245" type="line"/>
      <point x="584" y="660" type="line"/>
      <point x="554" y="660" type="line"/>
      <point x="452" y="434" type="line" smooth="yes"/>
      <point x="429" y="383"/>
      <point x="406" y="328"/>
      <point x="384" y="278" type="curve"/>
      <point x="380" y="278" type="line"/>
      <point x="356" y="328"/>
      <point x="333" y="378"/>
      <point x="308" y="434" type="curve" smooth="yes"/>
      <point x="208" y="660" type="line"/>
      <point x="176" y="660" type="line"/>
      <point x="364" y="245" type="line"/>
    </contour>
    <component base="tonos.cap" xOffset="-200"/>
  </outline>
</glyph>
<glyph name="Omegatonos" format="1">
  <advance width="600"/>
  <unicode hex="038F"/>
  <outline>
    <contour>
      <point x="132" y="0" type="line"/>
      <point x="288" y="0" type="line"/>
      <point x="288" y="24" type="line"/>
      <point x="220" y="98"/>
      <point x="178" y="208"/>
      <point x="178" y="358" type="curve" smooth="yes"/>
      <point x="178" y="518"/>
      <point x="238" y="642"/>
      <point x="342" y="642" type="curve" smooth="yes"/>
      <point x="446" y="642"/>
      <point x="506" y="518"/>
      <point x="506" y="358" type="curve" smooth="yes"/>
      <point x="506" y="208"/>
      <point x="464" y="98"/>
      <point x="396" y="24" type="curve"/>
      <point x="396" y="0" type="line"/>
      <point x="552" y="0" type="line"/>
      <point x="552" y="28" type="line"/>
      <point x="440" y="28" type="line"/>
      <point x="440" y="32" type="line"/>
      <point x="506" y="122"/>
      <point x="540" y="220"/>
      <point x="540" y="356" type="curve" smooth="yes"/>
      <point x="540" y="536"/>
      <point x="464" y="672"/>
      <point x="342" y="672" type="curve" smooth="yes"/>
      <point x="220" y="672"/>
      <point x="144" y="536"/>
      <point x="144" y="356" type="curve" smooth="yes"/>
      <point x="144" y="220"/>
      <point x="178" y="122"/>
      <point x="244" y="32" type="curve"/>
      <point x="244" y="28" type="line"/>
      <point x="132" y="28" type="line"/>
    </contour>
    <component base="tonos.cap" xOffset="-220"/>
  </outline>
</glyph>
<glyph name="Gamma" format="1">
  <advance width="600"/>
  <unicode hex="0393"/>
  <outline>
    <contour>
      <point x="165" y="0" type="line"/>
      <point x="197" y="0" type="line"/>
      <point x="197" y="632" type="line"/>
      <point x="517" y="632" type="line"/>
      <point x="517" y="660" type="line"/>
      <point x="165" y="660" type="line"/>
    </contour>
  </outline>
</glyph>
<glyph name="Delta" format="1">
  <advance width="600"/>
  <unicode hex="0394"/>
  <outline>
    <contour>
      <point x="53" y="0" type="line"/>
      <point x="547" y="0" type="line"/>
      <point x="547" y="18" type="line"/>
      <point x="315" y="660" type="line"/>
      <point x="285" y="660" type="line"/>
      <point x="53" y="18" type="line"/>
    </contour>
    <contour>
      <point x="89" y="28" type="line"/>
      <point x="219" y="392" type="line"/>
      <point x="246" y="468"/>
      <point x="270" y="540"/>
      <point x="299" y="622" type="curve"/>
      <point x="303" y="622" type="line"/>
      <point x="330" y="540"/>
      <point x="354" y="468"/>
      <point x="381" y="392" type="curve" smooth="yes"/>
      <point x="511" y="28" type="line"/>
    </contour>
  </outline>
</glyph>
<glyph name="Sigma" format="1">
  <advance width="600"/>
  <unicode hex="03A3"/>
  <outline>
    <contour>
      <point x="84" y="0" type="line"/>
      <point x="526" y="0" type="line"/>
      <point x="526" y="28" type="line"/>
      <point x="128" y="28" type="line"/>
      <point x="364" y="336" type="line"/>
      <point x="132" y="632" type="line"/>
      <point x="494" y="632" type="line"/>
      <point x="494" y="660" type="line"/>
      <point x="90" y="660" type="line"/>
      <point x="90" y="642" type="line"/>
      <point x="330" y="336" type="line"/>
      <point x="84" y="18" type="line"/>
    </contour>
  </outline>
</glyph>
<glyph name="Phi" format="1">
  <advance width="600"/>
  <unicode hex="03A6"/>
  <outline>
    <contour>
      <point x="290" y="68" type="curve"/>
      <point x="310" y="68" type="line" smooth="yes"/>
      <point x="464" y="68"/>
      <point x="564" y="172"/>
      <point x="564" y="332" type="curve" smooth="yes"/>
      <point x="564" y="492"/>
      <point x="464" y="592"/>
      <point x="310" y="592" type="curve" smooth="yes"/>
      <point x="290" y="592" type="line" smooth="yes"/>
      <point x="136" y="592"/>
      <point x="36" y="492"/>
      <point x="36" y="332" type="curve" smooth="yes"/>
      <point x="36" y="172"/>
      <point x="136" y="68"/>
    </contour>
    <contour>
      <point x="290" y="96" type="line" smooth="yes"/>
      <point x="154" y="96"/>
      <point x="70" y="192"/>
      <point x="70" y="332" type="curve" smooth="yes"/>
      <point x="70" y="472"/>
      <point x="154" y="564"/>
      <point x="290" y="564" type="curve" smooth="yes"/>
      <point x="310" y="564" type="line" smooth="yes"/>
      <point x="445" y="564"/>
      <point x="530" y="472"/>
      <point x="530" y="332" type="curve" smooth="yes"/>
      <point x="530" y="192"/>
      <point x="445" y="96"/>
      <point x="310" y="96" type="curve" smooth="yes"/>
    </contour>
    <contour>
      <point x="286" y="-22" type="line"/>
      <point x="314" y="-22" type="line"/>
      <point x="314" y="682" type="line"/>
      <point x="286" y="682" type="line"/>
    </contour>
  </outline>
</glyph>
<glyph name="Psi" format="1">
  <advance width="600"/>
  <unicode hex="03A8"/>
  <outline>
    <contour>
      <point x="288" y="262" type="curve"/>
      <point x="312" y="262" type="line" smooth="yes"/>
      <point x="453" y="262"/>
      <point x="536" y="337"/>
      <point x="536" y="504" type="curve" smooth="yes"/>
      <point x="536" y="660" type="line"/>
      <point x="504" y="660" type="line"/>
      <point x="504" y="504" type="line" smooth="yes"/>
      <point x="504" y="363"/>
      <point x="440" y="290"/>
      <point x="312" y="290" type="curve" smooth="yes"/>
      <point x="288" y="290" type="line" smooth="yes"/>
      <point x="160" y="290"/>
      <point x="96" y="363"/>
      <point x="96" y="504" type="curve" smooth="yes"/>
      <point x="96" y="660" type="line"/>
      <point x="64" y="660" type="line"/>
      <point x="64" y="504" type="line" smooth="yes"/>
      <point x="64" y="337"/>
      <point x="147" y="262"/>
    </contour>
    <contour>
      <point x="284" y="0" type="line"/>
      <point x="316" y="0" type="line"/>
      <point x="316" y="660" type="line"/>
      <point x="284" y="660" type="line"/>
    </contour>
  </outline>
</glyph>
<glyph name="Omega" format="1">
  <advance width="600"/>
  <unicode hex="03A9"/>
  <outline>
    <contour>
      <point x="44" y="0" type="line"/>
      <point x="240" y="0" type="line"/>
      <point x="240" y="24" type="line"/>
      <point x="161" y="78"/>
      <point x="90" y="182"/>
      <point x="90" y="348" type="curve" smooth="yes"/>
      <point x="90" y="514"/>
      <point x="164" y="642"/>
      <point x="300" y="642" type="curve" smooth="yes"/>
      <point x="436" y="642"/>
      <point x="510" y="514"/>
      <point x="510" y="348" type="curve" smooth="yes"/>
      <point x="510" y="182"/>
      <point x="439" y="78"/>
      <point x="360" y="24" type="curve"/>
      <point x="360" y="0" type="line"/>
      <point x="556" y="0" type="line"/>
      <point x="556" y="28" type="line"/>
      <point x="418" y="28" type="line"/>
      <point x="418" y="32" type="line"/>
      <point x="483" y="94"/>
      <point x="544" y="194"/>
      <point x="544" y="346" type="curve" smooth="yes"/>
      <point x="544" y="532"/>
      <point x="452" y="672"/>
      <point x="300" y="672" type="curve" smooth="yes"/>
      <point x="148" y="672"/>
      <point x="56" y="532"/>
      <point x="56" y="346" type="curve" smooth="yes"/>
      <point x="56" y="194"/>
      <point x="117" y="94"/>
      <point x="182" y="32" type="curve"/>
      <point x="182" y="28" type="line"/>
      <point x="44" y="28" type="line"/>
    </contour>
    <contour>
      <point x="300" y="680" type="move" name="aboveUC"/>
    </contour>
    <contour>
      <point x="300" y="-20" type="move" name="belowLC"/>
    </contour>
  </outline>
</glyph>
<glyph name="alpha" format="1">
  <advance width="600"/>
  <unicode hex="03B1"/>
  <outline>
    <contour>
      <point x="266" y="-12" type="curve" smooth="yes"/>
      <point x="339" y="-12"/>
      <point x="396" y="24"/>
      <point x="446" y="100" type="curve"/>
      <point x="448" y="100" type="line"/>
      <point x="434" y="26"/>
      <point x="470" y="-12"/>
      <point x="518" y="-12" type="curve" smooth="yes"/>
      <point x="538" y="-12"/>
      <point x="552" y="-6"/>
      <point x="562" y="-2" type="curve"/>
      <point x="555" y="24" type="line"/>
      <point x="546" y="20"/>
      <point x="532" y="16"/>
      <point x="520" y="16" type="curve" smooth="yes"/>
      <point x="494" y="16"/>
      <point x="472" y="38"/>
      <point x="472" y="70" type="curve" smooth="yes"/>
      <point x="472" y="170"/>
      <point x="504" y="340"/>
      <point x="530" y="478" type="curve"/>
      <point x="500" y="478" type="line"/>
      <point x="476" y="340" type="line"/>
      <point x="474" y="340" type="line"/>
      <point x="450" y="451"/>
      <point x="367" y="490"/>
      <point x="296" y="490" type="curve" smooth="yes"/>
      <point x="176" y="490"/>
      <point x="70" y="394"/>
      <point x="70" y="225" type="curve" smooth="yes"/>
      <point x="70" y="67"/>
      <point x="151" y="-12"/>
    </contour>
    <contour>
      <point x="268" y="16" type="curve" smooth="yes"/>
      <point x="163" y="16"/>
      <point x="102" y="99"/>
      <point x="102" y="225" type="curve" smooth="yes"/>
      <point x="102" y="376"/>
      <point x="195" y="462"/>
      <point x="294" y="462" type="curve" smooth="yes"/>
      <point x="349" y="462"/>
      <point x="428" y="443"/>
      <point x="460" y="298" type="curve"/>
      <point x="452" y="202" type="line" smooth="yes"/>
      <point x="444" y="101"/>
      <point x="357" y="16"/>
    </contour>
    <contour>
      <point x="300" y="500" type="move" name="aboveLC"/>
    </contour>
    <contour>
      <point x="300" y="-20" type="move" name="belowLC"/>
    </contour>
  </outline>
</glyph>
<glyph name="beta" format="1">
  <advance width="600"/>
  <unicode hex="03B2"/>
  <outline>
    <contour>
      <point x="110" y="-180" type="line"/>
      <point x="140" y="-180" type="line"/>
      <point x="140" y="-94"/>
      <point x="140" y="-16"/>
      <point x="138" y="68" type="curve"/>
      <point x="190" y="9"/>
      <point x="263" y="-12"/>
      <point x="334" y="-12" type="curve" smooth="yes"/>
      <point x="442" y="-12"/>
      <point x="532" y="68"/>
      <point x="532" y="188" type="curve" smooth="yes"/>
      <point x="532" y="296"/>
      <point x="463" y="370"/>
      <point x="344" y="384" type="curve"/>
      <point x="344" y="388" type="line"/>
      <point x="425" y="432"/>
      <point x="468" y="492"/>
      <point x="468" y="568" type="curve" smooth="yes"/>
      <point x="468" y="678"/>
      <point x="387" y="734"/>
      <point x="298" y="734" type="curve" smooth="yes"/>
      <point x="172" y="734"/>
      <point x="110" y="640"/>
      <point x="110" y="512" type="curve" smooth="yes"/>
    </contour>
    <contour>
      <point x="334" y="16" type="curve" smooth="yes"/>
      <point x="269" y="16"/>
      <point x="196" y="33"/>
      <point x="140" y="104" type="curve"/>
      <point x="140" y="236"/>
      <point x="140" y="366"/>
      <point x="140" y="498" type="curve" smooth="yes"/>
      <point x="140" y="638"/>
      <point x="204" y="706"/>
      <point x="300" y="706" type="curve" smooth="yes"/>
      <point x="374" y="706"/>
      <point x="436" y="660"/>
      <point x="436" y="568" type="curve" smooth="yes"/>
      <point x="436" y="496"/>
      <point x="382" y="410"/>
      <point x="248" y="380" type="curve"/>
      <point x="256" y="352" type="line"/>
      <point x="276" y="356"/>
      <point x="296" y="358"/>
      <point x="314" y="358" type="curve" smooth="yes"/>
      <point x="439" y="358"/>
      <point x="500" y="286"/>
      <point x="500" y="188" type="curve" smooth="yes"/>
      <point x="500" y="84"/>
      <point x="426" y="16"/>
    </contour>
  </outline>
</glyph>
<glyph name="gamma" format="1">
  <advance width="600"/>
  <unicode hex="03B3"/>
  <outline>
    <contour>
      <point x="284" y="-180" type="curve"/>
      <point x="314" y="-180" type="line"/>
      <point x="314" y="-124"/>
      <point x="312" y="-56"/>
      <point x="306" y="-2" type="curve"/>
      <point x="432" y="194"/>
      <point x="486" y="316"/>
      <point x="520" y="478" type="curve"/>
      <point x="488" y="478" type="line"/>
      <point x="464" y="330"/>
      <point x="391" y="183"/>
      <point x="305" y="41" type="curve"/>
      <point x="301" y="41" type="line"/>
      <point x="268" y="203"/>
      <point x="186" y="388"/>
      <point x="98" y="490" type="curve"/>
      <point x="70" y="478" type="line"/>
      <point x="176" y="360"/>
      <point x="286" y="108"/>
      <point x="286" y="-72" type="curve" smooth="yes"/>
      <point x="286" y="-114"/>
      <point x="286" y="-134"/>
    </contour>
  </outline>
</glyph>
<glyph name="delta" format="1">
  <advance width="600"/>
  <unicode hex="03B4"/>
  <outline>
    <contour>
      <point x="303" y="-12" type="curve" smooth="yes"/>
      <point x="444" y="-12"/>
      <point x="525" y="80"/>
      <point x="525" y="216" type="curve" smooth="yes"/>
      <point x="525" y="340"/>
      <point x="431" y="409"/>
      <point x="337" y="466" type="curve" smooth="yes"/>
      <point x="230" y="531"/>
      <point x="163" y="570"/>
      <point x="163" y="636" type="curve" smooth="yes"/>
      <point x="163" y="672"/>
      <point x="197" y="706"/>
      <point x="275" y="706" type="curve" smooth="yes"/>
      <point x="329" y="706"/>
      <point x="395" y="699"/>
      <point x="511" y="658" type="curve"/>
      <point x="521" y="688" type="line"/>
      <point x="411" y="725"/>
      <point x="341" y="734"/>
      <point x="277" y="734" type="curve" smooth="yes"/>
      <point x="175" y="734"/>
      <point x="131" y="686"/>
      <point x="131" y="634" type="curve" smooth="yes"/>
      <point x="131" y="558"/>
      <point x="212" y="508"/>
      <point x="323" y="440" type="curve" smooth="yes"/>
      <point x="412" y="385"/>
      <point x="493" y="322"/>
      <point x="493" y="214" type="curve" smooth="yes"/>
      <point x="493" y="104"/>
      <point x="435" y="16"/>
      <point x="303" y="16" type="curve" smooth="yes"/>
      <point x="202" y="16"/>
      <point x="107" y="92"/>
      <point x="107" y="206" type="curve" smooth="yes"/>
      <point x="107" y="319"/>
      <point x="193" y="405"/>
      <point x="343" y="436" type="curve"/>
      <point x="323" y="458" type="line"/>
      <point x="184" y="428"/>
      <point x="75" y="339"/>
      <point x="75" y="204" type="curve" smooth="yes"/>
      <point x="75" y="68"/>
      <point x="192" y="-12"/>
    </contour>
  </outline>
</glyph>
<glyph name="epsilon" format="1">
  <advance width="600"/>
  <unicode hex="03B5"/>
  <outline>
    <contour>
      <point x="313" y="-12" type="curve" smooth="yes"/>
      <point x="402" y="-12"/>
      <point x="458" y="7"/>
      <point x="525" y="61" type="curve"/>
      <point x="508" y="85" type="line"/>
      <point x="444" y="31"/>
      <point x="393" y="16"/>
      <point x="317" y="16" type="curve" smooth="yes"/>
      <point x="203" y="16"/>
      <point x="141" y="60"/>
      <point x="141" y="129" type="curve" smooth="yes"/>
      <point x="141" y="197"/>
      <point x="205" y="238"/>
      <point x="327" y="238" type="curve" smooth="yes"/>
      <point x="349" y="238"/>
      <point x="367" y="238"/>
      <point x="395" y="236" type="curve"/>
      <point x="395" y="268" type="line"/>
      <point x="370" y="266"/>
      <point x="359" y="266"/>
      <point x="341" y="266" type="curve" smooth="yes"/>
      <point x="217" y="266"/>
      <point x="167" y="310"/>
      <point x="167" y="366" type="curve" smooth="yes"/>
      <point x="167" y="432"/>
      <point x="230" y="462"/>
      <point x="317" y="462" type="curve" smooth="yes"/>
      <point x="382" y="462"/>
      <point x="435" y="443"/>
      <point x="489" y="402" type="curve"/>
      <point x="505" y="425" type="line"/>
      <point x="452" y="467"/>
      <point x="393" y="490"/>
      <point x="319" y="490" type="curve" smooth="yes"/>
      <point x="212" y="490"/>
      <point x="135" y="448"/>
      <point x="135" y="368" type="curve" smooth="yes"/>
      <point x="135" y="318"/>
      <point x="165" y="277"/>
      <point x="217" y="256" type="curve"/>
      <point x="217" y="252" type="line"/>
      <point x="163" y="237"/>
      <point x="109" y="200"/>
      <point x="109" y="128" type="curve" smooth="yes"/>
      <point x="109" y="46"/>
      <point x="180" y="-12"/>
    </contour>
    <contour>
      <point x="300" y="0" type="move" name="ogonekLC"/>
    </contour>
    <contour>
      <point x="300" y="500" type="move" name="aboveLC"/>
    </contour>
    <contour>
      <point x="300" y="-20" type="move" name="belowLC"/>
    </contour>
  </outline>
</glyph>
<glyph name="zeta" format="1">
  <advance width="600"/>
  <unicode hex="03B6"/>
  <outline>
    <contour>
      <point x="462" y="-182" type="line"/>
      <point x="500" y="-134"/>
      <point x="516" y="-98"/>
      <point x="516" y="-72" type="curve" smooth="yes"/>
      <point x="516" y="-14"/>
      <point x="461" y="0"/>
      <point x="360" y="18" type="curve" smooth="yes"/>
      <point x="260" y="36"/>
      <point x="172" y="76"/>
      <point x="172" y="218" type="curve" smooth="yes"/>
      <point x="172" y="394"/>
      <point x="366" y="590"/>
      <point x="516" y="694" type="curve"/>
      <point x="520" y="694" type="line"/>
      <point x="520" y="722" type="line"/>
      <point x="170" y="722" type="line"/>
      <point x="170" y="694" type="line"/>
      <point x="248" y="696"/>
      <point x="398" y="696"/>
      <point x="477" y="696" type="curve"/>
      <point x="343" y="607"/>
      <point x="140" y="404"/>
      <point x="140" y="218" type="curve" smooth="yes"/>
      <point x="140" y="62"/>
      <point x="229" y="13"/>
      <point x="342" y="-8" type="curve" smooth="yes"/>
      <point x="457" y="-30"/>
      <point x="486" y="-42"/>
      <point x="486" y="-74" type="curve" smooth="yes"/>
      <point x="486" y="-102"/>
      <point x="476" y="-116"/>
      <point x="436" y="-164" type="curve"/>
    </contour>
  </outline>
</glyph>
<glyph name="iota" format="1">
  <advance width="600"/>
  <unicode hex="03B9"/>
  <outline>
    <contour>
      <point x="355" y="-12" type="curve" smooth="yes"/>
      <point x="387" y="-12"/>
      <point x="412" y="-3"/>
      <point x="431" y="6" type="curve"/>
      <point x="421" y="32" type="line"/>
      <point x="402" y="22"/>
      <point x="377" y="16"/>
      <point x="357" y="16" type="curve" smooth="yes"/>
      <point x="323" y="16"/>
      <point x="299" y="38"/>
      <point x="299" y="82" type="curve" smooth="yes"/>
      <point x="299" y="216"/>
      <point x="300" y="344"/>
      <point x="301" y="478" type="curve"/>
      <point x="271" y="478" type="line"/>
      <point x="271" y="88" type="line" smooth="yes"/>
      <point x="271" y="17"/>
      <point x="302" y="-12"/>
    </contour>
    <contour>
      <point x="276" y="500" type="move" name="aboveLC"/>
    </contour>
    <contour>
      <point x="350" y="-20" type="move" name="belowLC"/>
    </contour>
  </outline>
</glyph>
<glyph name="kappa" format="1">
  <advance width="600"/>
  <unicode hex="03BA"/>
  <outline>
    <contour>
      <point x="130" y="0" type="line"/>
      <point x="158" y="0" type="line"/>
      <point x="158" y="22" type="line" smooth="yes"/>
      <point x="158" y="75"/>
      <point x="169" y="126"/>
      <point x="192" y="166" type="curve" smooth="yes"/>
      <point x="272" y="308"/>
      <point x="426" y="422"/>
      <point x="546" y="460" type="curve"/>
      <point x="540" y="490" type="line"/>
      <point x="414" y="448"/>
      <point x="249" y="329"/>
      <point x="164" y="172" type="curve"/>
      <point x="160" y="172" type="line"/>
      <point x="160" y="372" type="line" smooth="yes"/>
      <point x="160" y="412"/>
      <point x="158" y="456"/>
      <point x="152" y="478" type="curve"/>
      <point x="122" y="478" type="line"/>
      <point x="130" y="442"/>
      <point x="130" y="398"/>
      <point x="130" y="360" type="curve" smooth="yes"/>
    </contour>
    <contour>
      <point x="536" y="-6" type="curve"/>
      <point x="570" y="0" type="line"/>
      <point x="476" y="101"/>
      <point x="366" y="225"/>
      <point x="312" y="333" type="curve"/>
      <point x="288" y="315" type="line"/>
      <point x="343" y="210"/>
      <point x="458" y="80"/>
    </contour>
  </outline>
</glyph>
<glyph name="lambda" format="1">
  <advance width="600"/>
  <unicode hex="03BB"/>
  <outline>
    <contour>
      <point x="106" y="-6" type="line"/>
      <point x="316" y="458" type="line"/>
      <point x="320" y="458" type="line"/>
      <point x="502" y="0" type="line"/>
      <point x="534" y="0" type="line"/>
      <point x="322" y="530" type="line"/>
      <point x="267" y="667"/>
      <point x="233" y="734"/>
      <point x="142" y="734" type="curve" smooth="yes"/>
      <point x="112" y="734"/>
      <point x="88" y="726"/>
      <point x="72" y="718" type="curve"/>
      <point x="84" y="690" type="line"/>
      <point x="98" y="698"/>
      <point x="116" y="706"/>
      <point x="140" y="706" type="curve" smooth="yes"/>
      <point x="214" y="706"/>
      <point x="245" y="653"/>
      <point x="292" y="526" type="curve" smooth="yes"/>
      <point x="304" y="496" type="line"/>
      <point x="74" y="0" type="line"/>
    </contour>
  </outline>
</glyph>
<glyph name="nu" format="1">
  <advance width="600"/>
  <unicode hex="03BD"/>
  <outline>
    <contour>
      <point x="285" y="0" type="curve"/>
      <point x="319" y="0" type="line"/>
      <point x="419" y="162"/>
      <point x="502" y="314"/>
      <point x="525" y="478" type="curve"/>
      <point x="493" y="478" type="line"/>
      <point x="479" y="334"/>
      <point x="387" y="166"/>
      <point x="309" y="32" type="curve"/>
      <point x="305" y="32" type="line"/>
      <point x="271" y="204"/>
      <point x="182" y="374"/>
      <point x="93" y="490" type="curve"/>
      <point x="65" y="478" type="line"/>
      <point x="160" y="352"/>
      <point x="243" y="194"/>
    </contour>
  </outline>
</glyph>
<glyph name="xi" format="1">
  <advance width="600"/>
  <unicode hex="03BE"/>
  <outline>
    <contour>
      <point x="466" y="-182" type="line"/>
      <point x="504" y="-134"/>
      <point x="520" y="-98"/>
      <point x="520" y="-72" type="curve" smooth="yes"/>
      <point x="520" y="-14"/>
      <point x="465" y="0"/>
      <point x="364" y="18" type="curve" smooth="yes"/>
      <point x="264" y="36"/>
      <point x="166" y="68"/>
      <point x="166" y="186" type="curve" smooth="yes"/>
      <point x="166" y="308"/>
      <point x="277" y="374"/>
      <point x="378" y="374" type="curve" smooth="yes"/>
      <point x="406" y="374"/>
      <point x="422" y="375"/>
      <point x="448" y="370" type="curve"/>
      <point x="448" y="404" type="line"/>
      <point x="420" y="399"/>
      <point x="408" y="400"/>
      <point x="380" y="400" type="curve" smooth="yes"/>
      <point x="312" y="400"/>
      <point x="216" y="458"/>
      <point x="216" y="548" type="curve" smooth="yes"/>
      <point x="216" y="642"/>
      <point x="295" y="694"/>
      <point x="373" y="694" type="curve" smooth="yes"/>
      <point x="520" y="694" type="line"/>
      <point x="520" y="722" type="line"/>
      <point x="118" y="722" type="line"/>
      <point x="118" y="694" type="line"/>
      <point x="187" y="696"/>
      <point x="218" y="696"/>
      <point x="287" y="696" type="curve"/>
      <point x="224" y="667"/>
      <point x="184" y="620"/>
      <point x="184" y="548" type="curve" smooth="yes"/>
      <point x="184" y="470"/>
      <point x="239" y="422"/>
      <point x="304" y="394" type="curve"/>
      <point x="304" y="390" type="line"/>
      <point x="213" y="366"/>
      <point x="134" y="290"/>
      <point x="134" y="186" type="curve" smooth="yes"/>
      <point x="134" y="56"/>
      <point x="233" y="13"/>
      <point x="346" y="-8" type="curve" smooth="yes"/>
      <point x="462" y="-29"/>
      <point x="490" y="-42"/>
      <point x="490" y="-74" type="curve" smooth="yes"/>
      <point x="490" y="-102"/>
      <point x="480" y="-116"/>
      <point x="440" y="-164" type="curve"/>
    </contour>
  </outline>
</glyph>
<glyph name="omicron" format="1">
  <advance width="600"/>
  <unicode hex="03BF"/>
  <outline>
    <contour>
      <point x="300" y="-12" type="curve" smooth="yes"/>
      <point x="425" y="-12"/>
      <point x="526" y="80"/>
      <point x="526" y="238" type="curve" smooth="yes"/>
      <point x="526" y="398"/>
      <point x="425" y="490"/>
      <point x="300" y="490" type="curve" smooth="yes"/>
      <point x="175" y="490"/>
      <point x="74" y="398"/>
      <point x="74" y="238" type="curve" smooth="yes"/>
      <point x="74" y="80"/>
      <point x="175" y="-12"/>
    </contour>
    <contour>
      <point x="300" y="16" type="curve" smooth="yes"/>
      <point x="186" y="16"/>
      <point x="106" y="106"/>
      <point x="106" y="238" type="curve" smooth="yes"/>
      <point x="106" y="370"/>
      <point x="186" y="462"/>
      <point x="300" y="462" type="curve" smooth="yes"/>
      <point x="414" y="462"/>
      <point x="494" y="370"/>
      <point x="494" y="238" type="curve" smooth="yes"/>
      <point x="494" y="106"/>
      <point x="414" y="16"/>
    </contour>
    <contour>
      <point x="300" y="500" type="move" name="aboveLC"/>
    </contour>
  </outline>
</glyph>
<glyph name="sigma" format="1">
  <advance width="600"/>
  <unicode hex="03C3"/>
  <outline>
    <contour>
      <point x="294" y="-12" type="curve" smooth="yes"/>
      <point x="413" y="-12"/>
      <point x="514" y="76"/>
      <point x="514" y="234" type="curve" smooth="yes"/>
      <point x="514" y="338"/>
      <point x="470" y="410"/>
      <point x="398" y="450" type="curve"/>
      <point x="398" y="454" type="line"/>
      <point x="456" y="454"/>
      <point x="510" y="452"/>
      <point x="568" y="448" type="curve"/>
      <point x="568" y="478" type="line"/>
      <point x="296" y="478" type="line" smooth="yes"/>
      <point x="178" y="478"/>
      <point x="70" y="404"/>
      <point x="70" y="234" type="curve" smooth="yes"/>
      <point x="70" y="76"/>
      <point x="175" y="-12"/>
    </contour>
    <contour>
      <point x="294" y="16" type="curve" smooth="yes"/>
      <point x="187" y="16"/>
      <point x="102" y="102"/>
      <point x="102" y="234" type="curve" smooth="yes"/>
      <point x="102" y="376"/>
      <point x="189" y="450"/>
      <point x="296" y="450" type="curve" smooth="yes"/>
      <point x="415" y="450"/>
      <point x="482" y="346"/>
      <point x="482" y="234" type="curve" smooth="yes"/>
      <point x="482" y="102"/>
      <point x="401" y="16"/>
    </contour>
  </outline>
</glyph>
<glyph name="tau" format="1">
  <advance width="600"/>
  <unicode hex="03C4"/>
  <outline>
    <contour>
      <point x="369" y="-12" type="curve" smooth="yes"/>
      <point x="395" y="-12"/>
      <point x="421" y="-7"/>
      <point x="433" y="-2" type="curve"/>
      <point x="427" y="24" type="line"/>
      <point x="411" y="19"/>
      <point x="390" y="16"/>
      <point x="371" y="16" type="curve" smooth="yes"/>
      <point x="330" y="16"/>
      <point x="313" y="38"/>
      <point x="313" y="86" type="curve" smooth="yes"/>
      <point x="313" y="208"/>
      <point x="313" y="328"/>
      <point x="315" y="450" type="curve"/>
      <point x="521" y="450" type="line"/>
      <point x="521" y="478" type="line"/>
      <point x="145" y="478" type="line"/>
      <point x="79" y="474" type="line"/>
      <point x="79" y="450" type="line"/>
      <point x="285" y="450" type="line"/>
      <point x="285" y="92" type="line" smooth="yes"/>
      <point x="285" y="18"/>
      <point x="307" y="-12"/>
    </contour>
  </outline>
</glyph>
<glyph name="psi" format="1">
  <advance width="600"/>
  <unicode hex="03C8"/>
  <outline>
    <contour>
      <point x="287" y="-12" type="curve"/>
      <point x="289" y="16" type="line"/>
      <point x="176" y="16"/>
      <point x="109" y="86"/>
      <point x="109" y="212" type="curve" smooth="yes"/>
      <point x="109" y="238"/>
      <point x="111" y="308"/>
      <point x="111" y="372" type="curve" smooth="yes"/>
      <point x="111" y="412"/>
      <point x="111" y="444"/>
      <point x="107" y="478" type="curve"/>
      <point x="77" y="478" type="line"/>
      <point x="81" y="430"/>
      <point x="81" y="398"/>
      <point x="81" y="360" type="curve" smooth="yes"/>
      <point x="81" y="211" type="line" smooth="yes"/>
      <point x="81" y="68"/>
      <point x="158" y="-12"/>
    </contour>
    <contour>
      <point x="299" y="-12" type="line"/>
      <point x="438" y="-12"/>
      <point x="530" y="84"/>
      <point x="530" y="254" type="curve" smooth="yes"/>
      <point x="530" y="343"/>
      <point x="515" y="402"/>
      <point x="481" y="490" type="curve"/>
      <point x="451" y="480" type="line"/>
      <point x="487" y="392"/>
      <point x="498" y="337"/>
      <point x="498" y="254" type="curve" smooth="yes"/>
      <point x="498" y="100"/>
      <point x="424" y="16"/>
      <point x="301" y="16" type="curve"/>
    </contour>
    <contour>
      <point x="286" y="-180" type="line"/>
      <point x="314" y="-180" type="line"/>
      <point x="314" y="618" type="line"/>
      <point x="286" y="618" type="line"/>
    </contour>
  </outline>
</glyph>
<glyph name="omega" format="1">
  <advance width="600"/>
  <unicode hex="03C9"/>
  <outline>
    <contour>
      <point x="186" y="-12" type="curve" smooth="yes"/>
      <point x="234" y="-12"/>
      <point x="276" y="17"/>
      <point x="298" y="72" type="curve"/>
      <point x="302" y="72" type="line"/>
      <point x="324" y="17"/>
      <point x="366" y="-12"/>
      <point x="414" y="-12" type="curve" smooth="yes"/>
      <point x="494" y="-12"/>
      <point x="554" y="55"/>
      <point x="554" y="212" type="curve" smooth="yes"/>
      <point x="554" y="334"/>
      <point x="516" y="408"/>
      <point x="458" y="490" type="curve"/>
      <point x="432" y="474" type="line"/>
      <point x="492" y="389"/>
      <point x="522" y="326"/>
      <point x="522" y="212" type="curve" smooth="yes"/>
      <point x="522" y="75"/>
      <point x="476" y="16"/>
      <point x="412" y="16" type="curve" smooth="yes"/>
      <point x="366" y="16"/>
      <point x="314" y="48"/>
      <point x="314" y="160" type="curve" smooth="yes"/>
      <point x="314" y="196"/>
      <point x="314" y="242"/>
      <point x="318" y="290" type="curve"/>
      <point x="280" y="290" type="line"/>
      <point x="284" y="242"/>
      <point x="284" y="196"/>
      <point x="284" y="160" type="curve" smooth="yes"/>
      <point x="284" y="48"/>
      <point x="234" y="16"/>
      <point x="188" y="16" type="curve" smooth="yes"/>
      <point x="129" y="16"/>
      <point x="76" y="80"/>
      <point x="76" y="206" type="curve" smooth="yes"/>
      <point x="76" y="324"/>
      <point x="110" y="393"/>
      <point x="170" y="472" type="curve"/>
      <point x="146" y="490" type="line"/>
      <point x="90" y="411"/>
      <point x="46" y="330"/>
      <point x="46" y="210" type="curve" smooth="yes"/>
      <point x="46" y="58"/>
      <point x="112" y="-12"/>
    </contour>
    <contour>
      <point x="300" y="500" type="move" name="aboveLC"/>
    </contour>
    <contour>
      <point x="300" y="-20" type="move" name="belowLC"/>
    </contour>
  </outline>
</glyph>
<glyph name="phi.a" format="1">
	<unicode hex="03D5"/>
	<advance width="600"/>
	<outline>
		<contour>
			<point x="286" y="-180" type="line"/>
			<point x="314" y="-180" type="line"/>
			<point x="312" y="-15"/>
			<point x="312" y="149"/>
			<point x="312" y="314" type="curve" smooth="yes"/>
			<point x="312" y="424"/>
			<point x="353" y="462"/>
			<point x="404" y="462" type="curve" smooth="yes"/>
			<point x="471" y="462"/>
			<point x="520" y="368"/>
			<point x="520" y="246" type="curve" smooth="yes"/>
			<point x="520" y="112"/>
			<point x="427" y="16"/>
			<point x="310" y="16" type="curve"/>
			<point x="308" y="-10" type="line"/>
			<point x="437" y="-10"/>
			<point x="552" y="84"/>
			<point x="552" y="246" type="curve" smooth="yes"/>
			<point x="552" y="394"/>
			<point x="499" y="490"/>
			<point x="406" y="490" type="curve" smooth="yes"/>
			<point x="336" y="490"/>
			<point x="286" y="438"/>
			<point x="286" y="327" type="curve" smooth="yes"/>
		</contour>
		<contour>
			<point x="292" y="-10" type="curve"/>
			<point x="292" y="16" type="line"/>
			<point x="183" y="16"/>
			<point x="78" y="86"/>
			<point x="78" y="226" type="curve" smooth="yes"/>
			<point x="78" y="336"/>
			<point x="116" y="399"/>
			<point x="182" y="472" type="curve"/>
			<point x="158" y="490" type="line"/>
			<point x="96" y="417"/>
			<point x="48" y="342"/>
			<point x="48" y="230" type="curve" smooth="yes"/>
			<point x="48" y="64"/>
			<point x="169" y="-10"/>
		</contour>
	</outline>
</glyph>
<glyph name="sampi" format="1">
	<unicode hex="03E1"/>
	<advance width="600"/>
	<outline>
		<contour>
			<point x="485" y="-178" type="line"/>
			<point x="498" y="-114"/>
			<point x="502" y="-54"/>
			<point x="502" y="14" type="curve" smooth="yes"/>
			<point x="502" y="288"/>
			<point x="366" y="554"/>
			<point x="132" y="682" type="curve"/>
			<point x="116" y="658" type="line"/>
			<point x="340" y="542"/>
			<point x="474" y="280"/>
			<point x="474" y="14" type="curve" smooth="yes"/>
			<point x="474" y="-48"/>
			<point x="470" y="-110"/>
			<point x="456" y="-173" type="curve"/>
		</contour>
		<contour>
			<point x="173" y="58" type="line"/>
			<point x="283" y="110"/>
			<point x="372" y="149"/>
			<point x="476" y="197" type="curve"/>
			<point x="472" y="226" type="line"/>
			<point x="160" y="83" type="line"/>
		</contour>
		<contour>
			<point x="103" y="218" type="line"/>
			<point x="213" y="270"/>
			<point x="302" y="309"/>
			<point x="406" y="357" type="curve"/>
			<point x="402" y="386" type="line"/>
			<point x="90" y="243" type="line"/>
		</contour>
	</outline>
</glyph>
<glyph name="Dje" format="1">
  <advance width="600"/>
  <unicode hex="0402"/>
  <outline>
    <contour>
      <point x="408" y="-12" type="curve" smooth="yes"/>
      <point x="486" y="-12"/>
      <point x="580" y="36"/>
      <point x="580" y="192" type="curve" smooth="yes"/>
      <point x="580" y="334"/>
      <point x="490" y="396"/>
      <point x="348" y="396" type="curve" smooth="yes"/>
      <point x="303" y="396"/>
      <point x="252" y="390"/>
      <point x="218" y="384" type="curve"/>
      <point x="218" y="632" type="line"/>
      <point x="466" y="632" type="line"/>
      <point x="466" y="660" type="line"/>
      <point x="-8" y="660" type="line"/>
      <point x="-8" y="632" type="line"/>
      <point x="186" y="632" type="line"/>
      <point x="186" y="0" type="line"/>
      <point x="218" y="0" type="line"/>
      <point x="218" y="354" type="line"/>
      <point x="251" y="360"/>
      <point x="302" y="366"/>
      <point x="346" y="366" type="curve" smooth="yes"/>
      <point x="472" y="366"/>
      <point x="546" y="314"/>
      <point x="546" y="192" type="curve" smooth="yes"/>
      <point x="546" y="60"/>
      <point x="468" y="18"/>
      <point x="406" y="18" type="curve" smooth="yes"/>
      <point x="390" y="18"/>
      <point x="365" y="24"/>
      <point x="356" y="28" type="curve"/>
      <point x="348" y="-2" type="line"/>
      <point x="360" y="-6"/>
      <point x="388" y="-12"/>
    </contour>
  </outline>
</glyph>
<glyph name="Lje" format="1">
  <advance width="600"/>
  <unicode hex="0409"/>
  <outline>
    <contour>
      <point x="28" y="-12" type="curve" smooth="yes"/>
      <point x="77" y="-12"/>
      <point x="112" y="20"/>
      <point x="134" y="208" type="curve" smooth="yes"/>
      <point x="150" y="347"/>
      <point x="164" y="492"/>
      <point x="168" y="632" type="curve"/>
      <point x="304" y="632" type="line"/>
      <point x="336" y="660" type="line"/>
      <point x="140" y="660" type="line"/>
      <point x="134" y="502"/>
      <point x="122" y="361"/>
      <point x="104" y="214" type="curve" smooth="yes"/>
      <point x="83" y="44"/>
      <point x="56" y="22"/>
      <point x="26" y="22" type="curve" smooth="yes"/>
      <point x="20" y="22"/>
      <point x="15" y="23"/>
      <point x="8" y="26" type="curve"/>
      <point x="-2" y="-6" type="line"/>
      <point x="10" y="-11"/>
      <point x="20" y="-12"/>
    </contour>
    <contour>
      <point x="304" y="0" type="line"/>
      <point x="370" y="0" type="line" smooth="yes"/>
      <point x="498" y="0"/>
      <point x="566" y="66"/>
      <point x="566" y="192" type="curve" smooth="yes"/>
      <point x="566" y="314"/>
      <point x="488" y="366"/>
      <point x="366" y="366" type="curve" smooth="yes"/>
      <point x="336" y="366" type="line"/>
      <point x="336" y="660" type="line"/>
      <point x="304" y="660" type="line"/>
    </contour>
    <contour>
      <point x="336" y="28" type="line"/>
      <point x="336" y="338" type="line"/>
      <point x="354" y="338" type="line" smooth="yes"/>
      <point x="474" y="338"/>
      <point x="534" y="294"/>
      <point x="534" y="190" type="curve" smooth="yes"/>
      <point x="534" y="78"/>
      <point x="476" y="28"/>
      <point x="358" y="28" type="curve" smooth="yes"/>
    </contour>
  </outline>
</glyph>
<glyph name="Nje" format="1">
  <advance width="600"/>
  <unicode hex="040A"/>
  <outline>
    <contour>
      <point x="46" y="0" type="line"/>
      <point x="78" y="0" type="line"/>
      <point x="78" y="338" type="line"/>
      <point x="284" y="338" type="line"/>
      <point x="284" y="366" type="line"/>
      <point x="78" y="366" type="line"/>
      <point x="78" y="660" type="line"/>
      <point x="46" y="660" type="line"/>
    </contour>
    <contour>
      <point x="284" y="0" type="line"/>
      <point x="370" y="0" type="line" smooth="yes"/>
      <point x="498" y="0"/>
      <point x="566" y="66"/>
      <point x="566" y="192" type="curve" smooth="yes"/>
      <point x="566" y="314"/>
      <point x="488" y="366"/>
      <point x="366" y="366" type="curve" smooth="yes"/>
      <point x="316" y="366" type="line"/>
      <point x="316" y="660" type="line"/>
      <point x="284" y="660" type="line"/>
    </contour>
    <contour>
      <point x="316" y="28" type="line"/>
      <point x="316" y="338" type="line"/>
      <point x="354" y="338" type="line" smooth="yes"/>
      <point x="474" y="338"/>
      <point x="534" y="294"/>
      <point x="534" y="190" type="curve" smooth="yes"/>
      <point x="534" y="78"/>
      <point x="476" y="28"/>
      <point x="358" y="28" type="curve" smooth="yes"/>
    </contour>
  </outline>
</glyph>
<glyph name="Dzhe" format="1">
  <advance width="600"/>
  <unicode hex="040F"/>
  <outline>
    <contour>
      <point x="85" y="0" type="line"/>
      <point x="515" y="0" type="line"/>
      <point x="515" y="660" type="line"/>
      <point x="483" y="660" type="line"/>
      <point x="483" y="28" type="line"/>
      <point x="117" y="28" type="line"/>
      <point x="117" y="660" type="line"/>
      <point x="85" y="660" type="line"/>
    </contour>
    <contour>
      <point x="287" y="-188" type="line"/>
      <point x="313" y="-188" type="line"/>
      <point x="319" y="12" type="line"/>
      <point x="287" y="0" type="line"/>
    </contour>
  </outline>
</glyph>
<glyph name="De" format="1">
  <advance width="600"/>
  <unicode hex="0414"/>
  <outline>
    <contour>
      <point x="36" y="-188" type="line"/>
      <point x="62" y="-188" type="line"/>
      <point x="62" y="0" type="line"/>
      <point x="538" y="0" type="line"/>
      <point x="538" y="-188" type="line"/>
      <point x="564" y="-188" type="line"/>
      <point x="570" y="12" type="line"/>
      <point x="570" y="28" type="line"/>
      <point x="30" y="28" type="line"/>
      <point x="30" y="12" type="line"/>
    </contour>
    <contour>
      <point x="470" y="0" type="line"/>
      <point x="502" y="0" type="line"/>
      <point x="502" y="660" type="line"/>
      <point x="214" y="660" type="line"/>
      <point x="190" y="506"/>
      <point x="176" y="415"/>
      <point x="150" y="272" type="curve" smooth="yes"/>
      <point x="116" y="86"/>
      <point x="86" y="40"/>
      <point x="60" y="28" type="curve"/>
      <point x="86" y="14" type="line"/>
      <point x="114" y="30"/>
      <point x="144" y="68"/>
      <point x="180" y="264" type="curve" smooth="yes"/>
      <point x="205" y="399"/>
      <point x="216" y="494"/>
      <point x="240" y="632" type="curve"/>
      <point x="470" y="632" type="line"/>
    </contour>
  </outline>
</glyph>
<glyph name="Ie" format="1">
	<unicode hex="0415"/>
	<advance width="600"/>
	<outline>
		<component base="E"/>
		<contour>
			<point name="aboveUC" x="338" y="680" type="move"/>
		</contour>
	</outline>
</glyph>
<glyph name="Tse" format="1">
  <advance width="600"/>
  <unicode hex="0426"/>
  <outline>
    <contour>
      <point x="91" y="0" type="line"/>
      <point x="508" y="0" type="line"/>
      <point x="508" y="660" type="line"/>
      <point x="476" y="660" type="line"/>
      <point x="476" y="28" type="line"/>
      <point x="123" y="28" type="line"/>
      <point x="123" y="660" type="line"/>
      <point x="91" y="660" type="line"/>
    </contour>
    <contour>
      <point x="544" y="-188" type="line"/>
      <point x="570" y="-188" type="line"/>
      <point x="576" y="12" type="line"/>
      <point x="576" y="28" type="line"/>
      <point x="498" y="28" type="line"/>
      <point x="498" y="0" type="line"/>
      <point x="544" y="0" type="line"/>
    </contour>
  </outline>
</glyph>
<glyph name="Che" format="1">
	<unicode hex="0427"/>
	<advance width="600"/>
	<outline>
		<contour>
			<point x="464" y="0" type="line"/>
			<point x="496" y="0" type="line"/>
			<point x="496" y="660" type="line"/>
			<point x="464" y="660" type="line"/>
			<point x="464" y="348" type="line"/>
			<point x="430" y="342"/>
			<point x="381" y="336"/>
			<point x="320" y="336" type="curve" smooth="yes"/>
			<point x="192" y="336"/>
			<point x="114" y="375"/>
			<point x="114" y="504" type="curve" smooth="yes"/>
			<point x="114" y="660" type="line"/>
			<point x="82" y="660" type="line"/>
			<point x="82" y="504" type="line" smooth="yes"/>
			<point x="82" y="357"/>
			<point x="172" y="306"/>
			<point x="318" y="306" type="curve" smooth="yes"/>
			<point x="380" y="306"/>
			<point x="428" y="312"/>
			<point x="464" y="318" type="curve"/>
		</contour>
	</outline>
</glyph>
<glyph name="Sha" format="1">
  <advance width="600"/>
  <unicode hex="0428"/>
  <outline>
    <contour>
      <point x="46" y="0" type="line"/>
      <point x="554" y="0" type="line"/>
      <point x="554" y="660" type="line"/>
      <point x="522" y="660" type="line"/>
      <point x="522" y="28" type="line"/>
      <point x="316" y="28" type="line"/>
      <point x="316" y="660" type="line"/>
      <point x="284" y="660" type="line"/>
      <point x="284" y="28" type="line"/>
      <point x="78" y="28" type="line"/>
      <point x="78" y="660" type="line"/>
      <point x="46" y="660" type="line"/>
    </contour>
  </outline>
</glyph>
<glyph name="Shcha" format="1">
  <advance width="600"/>
  <unicode hex="0429"/>
  <outline>
    <contour>
      <point x="44" y="0" type="line"/>
      <point x="512" y="0" type="line"/>
      <point x="512" y="660" type="line"/>
      <point x="480" y="660" type="line"/>
      <point x="480" y="28" type="line"/>
      <point x="294" y="28" type="line"/>
      <point x="294" y="660" type="line"/>
      <point x="262" y="660" type="line"/>
      <point x="262" y="28" type="line"/>
      <point x="76" y="28" type="line"/>
      <point x="76" y="660" type="line"/>
      <point x="44" y="660" type="line"/>
    </contour>
    <contour>
      <point x="548" y="-188" type="line"/>
      <point x="574" y="-188" type="line"/>
      <point x="580" y="12" type="line"/>
      <point x="580" y="28" type="line"/>
      <point x="502" y="28" type="line"/>
      <point x="502" y="0" type="line"/>
      <point x="548" y="0" type="line"/>
    </contour>
  </outline>
</glyph>
<glyph name="Hard" format="1">
	<unicode hex="042A"/>
	<advance width="600"/>
	<outline>
		<contour>
			<point x="230" y="0" type="line"/>
			<point x="348" y="0" type="line" smooth="yes"/>
			<point x="496" y="0"/>
			<point x="576" y="66"/>
			<point x="576" y="192" type="curve" smooth="yes"/>
			<point x="576" y="312"/>
			<point x="482" y="366"/>
			<point x="340" y="366" type="curve" smooth="yes"/>
			<point x="262" y="366" type="line"/>
			<point x="262" y="660" type="line"/>
			<point x="14" y="660" type="line"/>
			<point x="14" y="632" type="line"/>
			<point x="230" y="632" type="line"/>
		</contour>
		<contour>
			<point x="262" y="28" type="line"/>
			<point x="262" y="338" type="line"/>
			<point x="328" y="338" type="line" smooth="yes"/>
			<point x="468" y="338"/>
			<point x="544" y="291"/>
			<point x="544" y="190" type="curve" smooth="yes"/>
			<point x="544" y="78"/>
			<point x="474" y="28"/>
			<point x="336" y="28" type="curve" smooth="yes"/>
		</contour>
	</outline>
</glyph>
<glyph name="Yu" format="1">
  <advance width="600"/>
  <unicode hex="042E"/>
  <outline>
    <contour>
      <point x="54" y="0" type="line"/>
      <point x="86" y="0" type="line"/>
      <point x="86" y="338" type="line"/>
      <point x="216" y="338" type="line"/>
      <point x="216" y="366" type="line"/>
      <point x="86" y="366" type="line"/>
      <point x="86" y="660" type="line"/>
      <point x="54" y="660" type="line"/>
    </contour>
    <contour>
      <point x="375" y="-12" type="curve" smooth="yes"/>
      <point x="478" y="-12"/>
      <point x="551" y="98"/>
      <point x="551" y="332" type="curve" smooth="yes"/>
      <point x="551" y="566"/>
      <point x="478" y="672"/>
      <point x="375" y="672" type="curve" smooth="yes"/>
      <point x="272" y="672"/>
      <point x="202" y="564"/>
      <point x="202" y="338" type="curve" smooth="yes"/>
      <point x="202" y="96"/>
      <point x="272" y="-12"/>
    </contour>
    <contour>
      <point x="375" y="18" type="curve" smooth="yes"/>
      <point x="290" y="18"/>
      <point x="234" y="116"/>
      <point x="234" y="332" type="curve" smooth="yes"/>
      <point x="234" y="548"/>
      <point x="290" y="642"/>
      <point x="375" y="642" type="curve" smooth="yes"/>
      <point x="461" y="642"/>
      <point x="517" y="548"/>
      <point x="517" y="332" type="curve" smooth="yes"/>
      <point x="517" y="116"/>
      <point x="461" y="18"/>
    </contour>
    <contour>
      <point x="280" y="680" type="move" name="aboveUC"/>
    </contour>
  </outline>
</glyph>
<glyph name="acyr" format="1">
  <advance width="600"/>
  <unicode hex="0430"/>
  <outline>
    <component base="a"/>
    <contour>
      <point x="320" y="500" type="move" name="aboveLC"/>
    </contour>
  </outline>
</glyph>
<glyph name="zhe" format="1">
  <advance width="600"/>
  <unicode hex="0436"/>
  <outline>
    <contour>
      <point x="10" y="0" type="line"/>
      <point x="44" y="0" type="line"/>
      <point x="180" y="238" type="line"/>
      <point x="286" y="238" type="line"/>
      <point x="286" y="0" type="line"/>
      <point x="314" y="0" type="line"/>
      <point x="314" y="238" type="line"/>
      <point x="420" y="238" type="line"/>
      <point x="556" y="0" type="line"/>
      <point x="590" y="0" type="line"/>
      <point x="436" y="266" type="line"/>
      <point x="314" y="266" type="line"/>
      <point x="314" y="478" type="line"/>
      <point x="286" y="478" type="line"/>
      <point x="286" y="266" type="line"/>
      <point x="164" y="266" type="line"/>
    </contour>
    <contour>
      <point x="166" y="240" type="line"/>
      <point x="194" y="243" type="line"/>
      <point x="138" y="386" type="line" smooth="yes"/>
      <point x="106" y="468"/>
      <point x="72" y="490"/>
      <point x="34" y="490" type="curve" smooth="yes"/>
      <point x="27" y="490"/>
      <point x="18" y="488"/>
      <point x="14" y="486" type="curve"/>
      <point x="22" y="456" type="line"/>
      <point x="28" y="458"/>
      <point x="29" y="458"/>
      <point x="36" y="458" type="curve" smooth="yes"/>
      <point x="62" y="458"/>
      <point x="85" y="446"/>
      <point x="112" y="378" type="curve" smooth="yes"/>
    </contour>
    <contour>
      <point x="434" y="240" type="line"/>
      <point x="488" y="378" type="line" smooth="yes"/>
      <point x="515" y="446"/>
      <point x="538" y="458"/>
      <point x="564" y="458" type="curve" smooth="yes"/>
      <point x="571" y="458"/>
      <point x="572" y="458"/>
      <point x="578" y="456" type="curve"/>
      <point x="586" y="486" type="line"/>
      <point x="582" y="488"/>
      <point x="573" y="490"/>
      <point x="566" y="490" type="curve" smooth="yes"/>
      <point x="528" y="490"/>
      <point x="494" y="468"/>
      <point x="462" y="386" type="curve" smooth="yes"/>
      <point x="406" y="243" type="line"/>
    </contour>
    <contour>
      <point x="300" y="500" type="move" name="aboveLC"/>
    </contour>
  </outline>
</glyph>
<glyph name="ze" format="1">
  <advance width="600"/>
  <unicode hex="0437"/>
  <outline>
    <contour>
      <point x="281" y="-12" type="curve" smooth="yes"/>
      <point x="412" y="-12"/>
      <point x="492" y="42"/>
      <point x="492" y="128" type="curve" smooth="yes"/>
      <point x="492" y="200"/>
      <point x="438" y="236"/>
      <point x="378" y="252" type="curve"/>
      <point x="378" y="256" type="line"/>
      <point x="428" y="280"/>
      <point x="464" y="314"/>
      <point x="464" y="368" type="curve" smooth="yes"/>
      <point x="464" y="448"/>
      <point x="386" y="490"/>
      <point x="280" y="490" type="curve" smooth="yes"/>
      <point x="192" y="490"/>
      <point x="136" y="462"/>
      <point x="88" y="424" type="curve"/>
      <point x="106" y="402" type="line"/>
      <point x="155" y="439"/>
      <point x="200" y="462"/>
      <point x="280" y="462" type="curve" smooth="yes"/>
      <point x="372" y="462"/>
      <point x="432" y="432"/>
      <point x="432" y="366" type="curve" smooth="yes"/>
      <point x="432" y="305"/>
      <point x="371" y="266"/>
      <point x="248" y="266" type="curve" smooth="yes"/>
      <point x="206" y="266" type="line"/>
      <point x="206" y="238" type="line"/>
      <point x="262" y="238" type="line" smooth="yes"/>
      <point x="387" y="238"/>
      <point x="460" y="201"/>
      <point x="460" y="129" type="curve" smooth="yes"/>
      <point x="460" y="56"/>
      <point x="388" y="16"/>
      <point x="280" y="16" type="curve" smooth="yes"/>
      <point x="209" y="16"/>
      <point x="149" y="31"/>
      <point x="92" y="84" type="curve"/>
      <point x="74" y="62" type="line"/>
      <point x="134" y="6"/>
      <point x="203" y="-12"/>
    </contour>
    <contour>
      <point x="290" y="500" type="move" name="aboveLC"/>
    </contour>
  </outline>
</glyph>
<glyph name="ka" format="1">
  <advance width="600"/>
  <unicode hex="043A"/>
  <outline>
    <contour>
      <point x="136" y="0" type="line"/>
      <point x="166" y="0" type="line"/>
      <point x="166" y="236" type="line"/>
      <point x="334" y="236" type="line"/>
      <point x="508" y="0" type="line"/>
      <point x="542" y="0" type="line"/>
      <point x="349" y="264" type="line"/>
      <point x="166" y="264" type="line"/>
      <point x="166" y="478" type="line"/>
      <point x="136" y="478" type="line"/>
    </contour>
    <contour>
      <point x="352" y="240" type="line"/>
      <point x="432" y="378" type="line" smooth="yes"/>
      <point x="470" y="443"/>
      <point x="482" y="458"/>
      <point x="508" y="458" type="curve" smooth="yes"/>
      <point x="515" y="458"/>
      <point x="516" y="458"/>
      <point x="522" y="456" type="curve"/>
      <point x="530" y="486" type="line"/>
      <point x="526" y="488"/>
      <point x="517" y="490"/>
      <point x="510" y="490" type="curve" smooth="yes"/>
      <point x="471" y="490"/>
      <point x="451" y="468"/>
      <point x="404" y="386" type="curve" smooth="yes"/>
      <point x="322" y="243" type="line"/>
    </contour>
    <contour>
      <point x="320" y="500" type="move" name="aboveLC"/>
    </contour>
  </outline>
</glyph>
<glyph name="ieukran" format="1">
  <advance width="600"/>
  <unicode hex="0454"/>
  <outline>
    <contour>
      <point x="345" y="-12" type="curve" smooth="yes"/>
      <point x="422" y="-12"/>
      <point x="483" y="21"/>
      <point x="533" y="66" type="curve"/>
      <point x="515" y="88" type="line"/>
      <point x="471" y="48"/>
      <point x="414" y="16"/>
      <point x="345" y="16" type="curve" smooth="yes"/>
      <point x="208" y="16"/>
      <point x="123" y="96"/>
      <point x="123" y="238" type="curve" smooth="yes"/>
      <point x="123" y="380"/>
      <point x="218" y="462"/>
      <point x="345" y="462" type="curve" smooth="yes"/>
      <point x="410" y="462"/>
      <point x="460" y="433"/>
      <point x="501" y="394" type="curve"/>
      <point x="521" y="416" type="line"/>
      <point x="480" y="455"/>
      <point x="428" y="490"/>
      <point x="345" y="490" type="curve" smooth="yes"/>
      <point x="207" y="490"/>
      <point x="91" y="408"/>
      <point x="91" y="238" type="curve" smooth="yes"/>
      <point x="91" y="70"/>
      <point x="198" y="-12"/>
    </contour>
    <contour>
      <point x="109" y="238" type="line"/>
      <point x="434" y="238" type="line"/>
      <point x="434" y="266" type="line"/>
      <point x="109" y="266" type="line"/>
    </contour>
  </outline>
</glyph>
<glyph name="Izhitsa" format="1">
  <advance width="600"/>
  <unicode hex="0474"/>
  <outline>
    <contour>
      <point x="284" y="0" type="line"/>
      <point x="320" y="0" type="line"/>
      <point x="488" y="556" type="line" smooth="yes"/>
      <point x="506" y="614"/>
      <point x="520" y="638"/>
      <point x="548" y="638" type="curve" smooth="yes"/>
      <point x="558" y="638"/>
      <point x="564" y="636"/>
      <point x="570" y="632" type="curve"/>
      <point x="580" y="664" type="line"/>
      <point x="568" y="670"/>
      <point x="559" y="672"/>
      <point x="550" y="672" type="curve" smooth="yes"/>
      <point x="502" y="672"/>
      <point x="478" y="638"/>
      <point x="456" y="561" type="curve" smooth="yes"/>
      <point x="370" y="264" type="line" smooth="yes"/>
      <point x="344" y="182"/>
      <point x="328" y="122"/>
      <point x="302" y="41" type="curve"/>
      <point x="298" y="41" type="line"/>
      <point x="270" y="122"/>
      <point x="252" y="182"/>
      <point x="226" y="264" type="curve" smooth="yes"/>
      <point x="98" y="660" type="line"/>
      <point x="64" y="660" type="line"/>
    </contour>
    <contour>
      <point x="300" y="680" type="move" name="aboveUC"/>
    </contour>
  </outline>
</glyph>
<glyph name="Ghestroke" format="1">
  <advance width="600"/>
  <unicode hex="0492"/>
  <outline>
    <contour>
      <point x="164" y="0" type="line"/>
      <point x="196" y="0" type="line"/>
      <point x="196" y="632" type="line"/>
      <point x="518" y="632" type="line"/>
      <point x="518" y="660" type="line"/>
      <point x="164" y="660" type="line"/>
    </contour>
    <contour>
      <point x="82" y="326" type="line"/>
      <point x="370" y="326" type="line"/>
      <point x="370" y="354" type="line"/>
      <point x="166" y="354" type="line"/>
      <point x="82" y="352" type="line"/>
    </contour>
  </outline>
</glyph>
<glyph name="zhedescender" format="1">
  <advance width="600"/>
  <unicode hex="0497"/>
  <outline>
    <contour>
      <point x="574" y="-172" type="line"/>
      <point x="600" y="-172" type="line"/>
      <point x="604" y="12" type="line"/>
      <point x="604" y="28" type="line"/>
      <point x="560" y="28" type="line"/>
      <point x="560" y="0" type="line"/>
      <point x="574" y="0" type="line"/>
    </contour>
    <component base="zhe"/>
  </outline>
</glyph>
<glyph name="Kadescender" format="1">
  <advance width="600"/>
  <unicode hex="049A"/>
  <outline>
    <contour>
      <point x="542" y="-188" type="line"/>
      <point x="568" y="-188" type="line"/>
      <point x="574" y="12" type="line"/>
      <point x="574" y="28" type="line"/>
      <point x="532" y="28" type="line"/>
      <point x="532" y="0" type="line"/>
      <point x="542" y="0" type="line"/>
    </contour>
    <component base="Ka"/>
  </outline>
</glyph>
<glyph name="Kabashkir" format="1">
  <advance width="600"/>
  <unicode hex="04A0"/>
  <outline>
    <contour>
      <point x="230" y="0" type="line"/>
      <point x="262" y="0" type="line"/>
      <point x="262" y="338" type="line"/>
      <point x="337" y="338" type="line"/>
      <point x="562" y="0" type="line"/>
      <point x="600" y="0" type="line"/>
      <point x="356" y="366" type="line"/>
      <point x="262" y="366" type="line"/>
      <point x="262" y="660" type="line"/>
      <point x="230" y="660" type="line"/>
    </contour>
    <contour>
      <point x="14" y="632" type="line"/>
      <point x="230" y="632" type="line"/>
      <point x="262" y="660" type="line"/>
      <point x="14" y="660" type="line"/>
    </contour>
    <contour>
      <point x="363" y="349" type="line"/>
      <point x="464" y="536" type="line" smooth="yes"/>
      <point x="514" y="628"/>
      <point x="532" y="638"/>
      <point x="560" y="638" type="curve" smooth="yes"/>
      <point x="566" y="638"/>
      <point x="574" y="636"/>
      <point x="580" y="634" type="curve"/>
      <point x="586" y="668" type="line"/>
      <point x="580" y="670"/>
      <point x="572" y="672"/>
      <point x="564" y="672" type="curve" smooth="yes"/>
      <point x="517" y="672"/>
      <point x="494" y="654"/>
      <point x="436" y="546" type="curve" smooth="yes"/>
      <point x="333" y="355" type="line"/>
    </contour>
  </outline>
</glyph>
<glyph name="kabashkir" format="1">
  <advance width="600"/>
  <unicode hex="04A1"/>
  <outline>
    <contour>
      <point x="226" y="0" type="line"/>
      <point x="256" y="0" type="line"/>
      <point x="256" y="236" type="line"/>
      <point x="386" y="236" type="line"/>
      <point x="538" y="0" type="line"/>
      <point x="572" y="0" type="line"/>
      <point x="401" y="264" type="line"/>
      <point x="256" y="264" type="line"/>
      <point x="256" y="478" type="line"/>
      <point x="226" y="478" type="line"/>
    </contour>
    <contour>
      <point x="36" y="450" type="line"/>
      <point x="226" y="450" type="line"/>
      <point x="256" y="478" type="line"/>
      <point x="36" y="478" type="line"/>
    </contour>
    <contour>
      <point x="404" y="240" type="line"/>
      <point x="462" y="378" type="line" smooth="yes"/>
      <point x="491" y="447"/>
      <point x="512" y="458"/>
      <point x="538" y="458" type="curve" smooth="yes"/>
      <point x="545" y="458"/>
      <point x="546" y="458"/>
      <point x="552" y="456" type="curve"/>
      <point x="560" y="486" type="line"/>
      <point x="556" y="488"/>
      <point x="547" y="490"/>
      <point x="540" y="490" type="curve" smooth="yes"/>
      <point x="502" y="490"/>
      <point x="472" y="472"/>
      <point x="436" y="386" type="curve" smooth="yes"/>
      <point x="376" y="243" type="line"/>
    </contour>
  </outline>
</glyph>
<glyph name="endescender" format="1">
  <advance width="600"/>
  <unicode hex="04A3"/>
  <outline>
    <contour>
      <point x="110" y="0" type="line"/>
      <point x="140" y="0" type="line"/>
      <point x="140" y="238" type="line"/>
      <point x="460" y="238" type="line"/>
      <point x="460" y="0" type="line"/>
      <point x="490" y="0" type="line"/>
      <point x="490" y="478" type="line"/>
      <point x="460" y="478" type="line"/>
      <point x="460" y="266" type="line"/>
      <point x="140" y="266" type="line"/>
      <point x="140" y="478" type="line"/>
      <point x="110" y="478" type="line"/>
    </contour>
    <contour>
      <point x="524" y="-172" type="line"/>
      <point x="550" y="-172" type="line"/>
      <point x="554" y="12" type="line"/>
      <point x="554" y="28" type="line"/>
      <point x="480" y="28" type="line"/>
      <point x="480" y="0" type="line"/>
      <point x="524" y="0" type="line"/>
    </contour>
  </outline>
</glyph>
<glyph name="esdescender" format="1">
  <advance width="600"/>
  <unicode hex="04AB"/>
  <outline>
    <contour>
      <point x="325" y="-172" type="line"/>
      <point x="349" y="-172" type="line"/>
      <point x="353" y="10" type="line"/>
      <point x="323" y="10" type="line"/>
    </contour>
    <component base="es"/>
  </outline>
</glyph>
<glyph name="Germandbls" format="1">
  <advance width="600"/>
  <unicode hex="1E9E"/>
  <outline>
    <contour>
      <point x="388" y="-12" type="curve" smooth="yes"/>
      <point x="487" y="-12"/>
      <point x="561" y="64"/>
      <point x="561" y="166" type="curve" smooth="yes"/>
      <point x="561" y="264"/>
      <point x="508" y="338"/>
      <point x="328" y="368" type="curve"/>
      <point x="328" y="341" type="line"/>
      <point x="502" y="540" type="line"/>
      <point x="466" y="620"/>
      <point x="410" y="672"/>
      <point x="308" y="672" type="curve" smooth="yes"/>
      <point x="186" y="672"/>
      <point x="90" y="582"/>
      <point x="90" y="424" type="curve" smooth="yes"/>
      <point x="90" y="0" type="line"/>
      <point x="123" y="0" type="line"/>
      <point x="123" y="412" type="line" smooth="yes"/>
      <point x="123" y="570"/>
      <point x="200" y="642"/>
      <point x="306" y="642" type="curve" smooth="yes"/>
      <point x="390" y="642"/>
      <point x="444" y="600"/>
      <point x="474" y="518" type="curve"/>
      <point x="482" y="565" type="line"/>
      <point x="309" y="366" type="line"/>
      <point x="311" y="338" type="line"/>
      <point x="490" y="308"/>
      <point x="526" y="244"/>
      <point x="526" y="164" type="curve" smooth="yes"/>
      <point x="526" y="80"/>
      <point x="477" y="18"/>
      <point x="390" y="18" type="curve" smooth="yes"/>
      <point x="329" y="18"/>
      <point x="285" y="42"/>
      <point x="244" y="92" type="curve"/>
      <point x="220" y="68" type="line"/>
      <point x="261" y="16"/>
      <point x="323" y="-12"/>
    </contour>
  </outline>
</glyph>
<glyph name="questiondbl" format="1">
  <advance width="600"/>
  <unicode hex="2047"/>
  <outline>
    <contour>
      <point x="122" y="214" type="curve"/>
      <point x="150" y="214" type="line"/>
      <point x="126" y="362"/>
      <point x="284" y="412"/>
      <point x="284" y="552" type="curve" smooth="yes"/>
      <point x="284" y="623"/>
      <point x="237" y="682"/>
      <point x="154" y="682" type="curve" smooth="yes"/>
      <point x="95" y="682"/>
      <point x="56" y="656"/>
      <point x="18" y="608" type="curve"/>
      <point x="40" y="588" type="line"/>
      <point x="75" y="636"/>
      <point x="109" y="654"/>
      <point x="152" y="654" type="curve" smooth="yes"/>
      <point x="222" y="654"/>
      <point x="252" y="605"/>
      <point x="252" y="550" type="curve" smooth="yes"/>
      <point x="252" y="418"/>
      <point x="96" y="368"/>
    </contour>
    <contour>
      <point x="146" y="-12" type="curve" smooth="yes"/>
      <point x="172" y="-12"/>
      <point x="198" y="8"/>
      <point x="198" y="46" type="curve" smooth="yes"/>
      <point x="198" y="84"/>
      <point x="172" y="104"/>
      <point x="146" y="104" type="curve" smooth="yes"/>
      <point x="120" y="104"/>
      <point x="94" y="84"/>
      <point x="94" y="46" type="curve" smooth="yes"/>
      <point x="94" y="8"/>
      <point x="120" y="-12"/>
    </contour>
    <contour>
      <point x="402" y="214" type="curve"/>
      <point x="430" y="214" type="line"/>
      <point x="406" y="362"/>
      <point x="564" y="412"/>
      <point x="564" y="552" type="curve" smooth="yes"/>
      <point x="564" y="623"/>
      <point x="517" y="682"/>
      <point x="434" y="682" type="curve" smooth="yes"/>
      <point x="375" y="682"/>
      <point x="336" y="656"/>
      <point x="298" y="608" type="curve"/>
      <point x="320" y="588" type="line"/>
      <point x="355" y="636"/>
      <point x="389" y="654"/>
      <point x="432" y="654" type="curve" smooth="yes"/>
      <point x="502" y="654"/>
      <point x="532" y="605"/>
      <point x="532" y="550" type="curve" smooth="yes"/>
      <point x="532" y="418"/>
      <point x="376" y="368"/>
    </contour>
    <contour>
      <point x="426" y="-12" type="curve" smooth="yes"/>
      <point x="452" y="-12"/>
      <point x="478" y="8"/>
      <point x="478" y="46" type="curve" smooth="yes"/>
      <point x="478" y="84"/>
      <point x="452" y="104"/>
      <point x="426" y="104" type="curve" smooth="yes"/>
      <point x="400" y="104"/>
      <point x="374" y="84"/>
      <point x="374" y="46" type="curve" smooth="yes"/>
      <point x="374" y="8"/>
      <point x="400" y="-12"/>
    </contour>
  </outline>
</glyph>
<glyph name="colonmonetary" format="1">
  <advance width="600"/>
  <unicode hex="20A1"/>
  <outline>
    <contour>
      <point x="348" y="-12" type="curve" smooth="yes"/>
      <point x="432" y="-12"/>
      <point x="485" y="24"/>
      <point x="532" y="82" type="curve"/>
      <point x="510" y="100" type="line"/>
      <point x="463" y="44"/>
      <point x="416" y="16"/>
      <point x="350" y="16" type="curve" smooth="yes"/>
      <point x="220" y="16"/>
      <point x="144" y="138"/>
      <point x="144" y="322" type="curve" smooth="yes"/>
      <point x="144" y="506"/>
      <point x="224" y="624"/>
      <point x="364" y="624" type="curve" smooth="yes"/>
      <point x="420" y="624"/>
      <point x="464" y="596"/>
      <point x="500" y="554" type="curve"/>
      <point x="522" y="574" type="line"/>
      <point x="490" y="614"/>
      <point x="432" y="652"/>
      <point x="364" y="652" type="curve" smooth="yes"/>
      <point x="208" y="652"/>
      <point x="110" y="524"/>
      <point x="110" y="322" type="curve" smooth="yes"/>
      <point x="110" y="120"/>
      <point x="204" y="-12"/>
    </contour>
    <contour>
      <point x="228" y="-106" type="line"/>
      <point x="254" y="-110" type="line"/>
      <point x="354" y="746" type="line"/>
      <point x="328" y="750" type="line"/>
    </contour>
    <contour>
      <point x="328" y="-106" type="line"/>
      <point x="354" y="-110" type="line"/>
      <point x="454" y="746" type="line"/>
      <point x="428" y="750" type="line"/>
    </contour>
  </outline>
</glyph>
<glyph name="franc" format="1">
  <advance width="600"/>
  <unicode hex="20A3"/>
  <outline>
    <contour>
      <point x="164" y="0" type="line"/>
      <point x="195" y="0" type="line"/>
      <point x="195" y="326" type="line"/>
      <point x="475" y="326" type="line"/>
      <point x="475" y="354" type="line"/>
      <point x="195" y="354" type="line"/>
      <point x="195" y="612" type="line"/>
      <point x="530" y="612" type="line"/>
      <point x="530" y="640" type="line"/>
      <point x="164" y="640" type="line"/>
    </contour>
    <contour>
      <point x="82" y="146" type="line"/>
      <point x="370" y="146" type="line"/>
      <point x="370" y="174" type="line"/>
      <point x="166" y="174" type="line"/>
      <point x="82" y="172" type="line"/>
    </contour>
  </outline>
</glyph>
<glyph name="won" format="1">
  <advance width="600"/>
  <unicode hex="20A9"/>
  <outline>
    <contour>
      <point x="172" y="0" type="line"/>
      <point x="210" y="0" type="line"/>
      <point x="264" y="340" type="line"/>
      <point x="298" y="570" type="line"/>
      <point x="302" y="570" type="line"/>
      <point x="334" y="342" type="line"/>
      <point x="390" y="0" type="line"/>
      <point x="432" y="0" type="line"/>
      <point x="522" y="640" type="line"/>
      <point x="490" y="640" type="line"/>
      <point x="430" y="156" type="line"/>
      <point x="414" y="30" type="line"/>
      <point x="410" y="30" type="line"/>
      <point x="394" y="156" type="line"/>
      <point x="322" y="600" type="line"/>
      <point x="280" y="600" type="line"/>
      <point x="208" y="156" type="line"/>
      <point x="192" y="30" type="line"/>
      <point x="188" y="30" type="line"/>
      <point x="174" y="156" type="line"/>
      <point x="112" y="640" type="line"/>
      <point x="78" y="640" type="line"/>
    </contour>
    <contour>
      <point x="52" y="312" type="line"/>
      <point x="544" y="312" type="line"/>
      <point x="544" y="342" type="line"/>
      <point x="130" y="342" type="line"/>
      <point x="52" y="338" type="line"/>
    </contour>
  </outline>
</glyph>
<glyph name="dong" format="1">
  <advance width="600"/>
  <unicode hex="20AB"/>
  <outline>
    <contour>
      <point x="288" y="106" type="curve" smooth="yes"/>
      <point x="345" y="106"/>
      <point x="386" y="132"/>
      <point x="420" y="168" type="curve"/>
      <point x="422" y="168" type="line"/>
      <point x="426" y="116" type="line"/>
      <point x="450" y="116" type="line"/>
      <point x="450" y="676" type="line"/>
      <point x="420" y="676" type="line"/>
      <point x="420" y="516" type="line"/>
      <point x="424" y="420" type="line"/>
      <point x="422" y="420" type="line"/>
      <point x="386" y="452"/>
      <point x="352" y="472"/>
      <point x="296" y="472" type="curve" smooth="yes"/>
      <point x="205" y="472"/>
      <point x="124" y="402"/>
      <point x="124" y="294" type="curve" smooth="yes"/>
      <point x="124" y="172"/>
      <point x="188" y="106"/>
    </contour>
    <contour>
      <point x="290" y="134" type="curve" smooth="yes"/>
      <point x="204" y="134"/>
      <point x="156" y="198"/>
      <point x="156" y="296" type="curve" smooth="yes"/>
      <point x="156" y="376"/>
      <point x="216" y="444"/>
      <point x="294" y="444" type="curve" smooth="yes"/>
      <point x="344" y="444"/>
      <point x="374" y="428"/>
      <point x="420" y="390" type="curve"/>
      <point x="420" y="200" type="line"/>
      <point x="377" y="154"/>
      <point x="333" y="134"/>
    </contour>
    <contour>
      <point x="264" y="566" type="line"/>
      <point x="450" y="566" type="line"/>
      <point x="532" y="570" type="line"/>
      <point x="532" y="594" type="line"/>
      <point x="264" y="594" type="line"/>
    </contour>
    <contour>
      <point x="134" y="0" type="line"/>
      <point x="480" y="0" type="line"/>
      <point x="480" y="28" type="line"/>
      <point x="134" y="28" type="line"/>
    </contour>
  </outline>
</glyph>
<glyph name="tugrik" format="1">
  <advance width="600"/>
  <unicode hex="20AE"/>
  <outline>
    <contour>
      <point x="284" y="0" type="line"/>
      <point x="316" y="0" type="line"/>
      <point x="316" y="612" type="line"/>
      <point x="530" y="612" type="line"/>
      <point x="530" y="640" type="line"/>
      <point x="70" y="640" type="line"/>
      <point x="70" y="612" type="line"/>
      <point x="284" y="612" type="line"/>
    </contour>
    <contour>
      <point x="126" y="172" type="line"/>
      <point x="284" y="246" type="line"/>
      <point x="316" y="258" type="line"/>
      <point x="486" y="338" type="line"/>
      <point x="474" y="360" type="line"/>
      <point x="316" y="288" type="line"/>
      <point x="316" y="374" type="line"/>
      <point x="486" y="454" type="line"/>
      <point x="474" y="476" type="line"/>
      <point x="316" y="404" type="line"/>
      <point x="284" y="392" type="line"/>
      <point x="114" y="314" type="line"/>
      <point x="126" y="288" type="line"/>
      <point x="284" y="362" type="line"/>
      <point x="284" y="276" type="line"/>
      <point x="114" y="198" type="line"/>
    </contour>
  </outline>
</glyph>
<glyph name="hryvnia" format="1">
  <advance width="600"/>
  <unicode hex="20B4"/>
  <outline>
    <contour>
      <point x="320" y="-12" type="curve" smooth="yes"/>
      <point x="399" y="-12"/>
      <point x="458" y="28"/>
      <point x="502" y="76" type="curve"/>
      <point x="482" y="98" type="line"/>
      <point x="442" y="54"/>
      <point x="392" y="16"/>
      <point x="320" y="16" type="curve" smooth="yes"/>
      <point x="220" y="16"/>
      <point x="164" y="66"/>
      <point x="164" y="136" type="curve" smooth="yes"/>
      <point x="164" y="320"/>
      <point x="464" y="339"/>
      <point x="464" y="510" type="curve" smooth="yes"/>
      <point x="464" y="592"/>
      <point x="393" y="652"/>
      <point x="300" y="652" type="curve" smooth="yes"/>
      <point x="221" y="652"/>
      <point x="180" y="620"/>
      <point x="138" y="572" type="curve"/>
      <point x="160" y="552" type="line"/>
      <point x="204" y="602"/>
      <point x="234" y="624"/>
      <point x="302" y="624" type="curve" smooth="yes"/>
      <point x="380" y="624"/>
      <point x="432" y="573"/>
      <point x="432" y="512" type="curve" smooth="yes"/>
      <point x="432" y="354"/>
      <point x="132" y="335"/>
      <point x="132" y="138" type="curve" smooth="yes"/>
      <point x="132" y="41"/>
      <point x="218" y="-12"/>
    </contour>
    <contour>
      <point x="68" y="358" type="line"/>
      <point x="534" y="358" type="line"/>
      <point x="534" y="386" type="line"/>
      <point x="134" y="386" type="line"/>
      <point x="68" y="382" type="line"/>
    </contour>
    <contour>
      <point x="68" y="250" type="line"/>
      <point x="534" y="250" type="line"/>
      <point x="534" y="278" type="line"/>
      <point x="132" y="278" type="line"/>
      <point x="68" y="274" type="line"/>
    </contour>
  </outline>
</glyph>
<glyph name="rupeeindian" format="1">
  <advance width="600"/>
  <unicode hex="20B9"/>
  <outline>
    <contour>
      <point x="124" y="292" type="line"/>
      <point x="226" y="292" type="line" smooth="yes"/>
      <point x="364" y="292"/>
      <point x="457" y="354"/>
      <point x="457" y="478" type="curve" smooth="yes"/>
      <point x="457" y="540"/>
      <point x="421" y="592"/>
      <point x="362" y="612" type="curve"/>
      <point x="526" y="612" type="line"/>
      <point x="526" y="640" type="line"/>
      <point x="124" y="640" type="line"/>
      <point x="124" y="612" type="line"/>
      <point x="208" y="612" type="line" smooth="yes"/>
      <point x="344" y="612"/>
      <point x="425" y="574"/>
      <point x="425" y="476" type="curve" smooth="yes"/>
      <point x="425" y="368"/>
      <point x="344" y="320"/>
      <point x="208" y="320" type="curve" smooth="yes"/>
      <point x="124" y="320" type="line"/>
    </contour>
    <contour>
      <point x="124" y="476" type="line"/>
      <point x="526" y="476" type="line"/>
      <point x="526" y="504" type="line"/>
      <point x="196" y="504" type="line"/>
      <point x="124" y="500" type="line"/>
    </contour>
    <contour>
      <point x="444" y="0" type="line"/>
      <point x="481" y="0" type="line"/>
      <point x="241" y="310" type="line"/>
      <point x="216" y="294" type="line"/>
    </contour>
  </outline>
</glyph>
<glyph name="onetenth" format="1">
  <advance width="600"/>
  <unicode hex="2152"/>
  <outline>
    <contour>
      <point x="190" y="402" type="line"/>
      <point x="218" y="402" type="line"/>
      <point x="218" y="640" type="line"/>
      <point x="194" y="640" type="line"/>
      <point x="170" y="626"/>
      <point x="146" y="616"/>
      <point x="108" y="609" type="curve"/>
      <point x="108" y="585" type="line"/>
      <point x="190" y="585" type="line"/>
    </contour>
    <contour>
      <point x="124" y="284" type="line"/>
      <point x="570" y="478" type="line"/>
      <point x="556" y="508" type="line"/>
      <point x="115" y="303" type="line"/>
    </contour>
    <contour>
      <point x="190" y="0" type="line"/>
      <point x="218" y="0" type="line"/>
      <point x="218" y="238" type="line"/>
      <point x="194" y="238" type="line"/>
      <point x="170" y="224"/>
      <point x="146" y="214"/>
      <point x="108" y="207" type="curve"/>
      <point x="108" y="183" type="line"/>
      <point x="190" y="183" type="line"/>
    </contour>
    <contour>
      <point x="430" y="-12" type="curve" smooth="yes"/>
      <point x="496" y="-12"/>
      <point x="538" y="34"/>
      <point x="538" y="120" type="curve" smooth="yes"/>
      <point x="538" y="202"/>
      <point x="496" y="250"/>
      <point x="430" y="250" type="curve" smooth="yes"/>
      <point x="364" y="250"/>
      <point x="322" y="202"/>
      <point x="322" y="120" type="curve" smooth="yes"/>
      <point x="322" y="34"/>
      <point x="364" y="-12"/>
    </contour>
    <contour>
      <point x="430" y="14" type="curve" smooth="yes"/>
      <point x="384" y="14"/>
      <point x="352" y="50"/>
      <point x="352" y="120" type="curve" smooth="yes"/>
      <point x="352" y="186"/>
      <point x="384" y="224"/>
      <point x="430" y="224" type="curve" smooth="yes"/>
      <point x="476" y="224"/>
      <point x="508" y="186"/>
      <point x="508" y="120" type="curve" smooth="yes"/>
      <point x="508" y="50"/>
      <point x="476" y="14"/>
    </contour>
  </outline>
</glyph>
<glyph name="arrowboth" format="1">
	<unicode hex="2194"/>
	<advance width="600"/>
	<outline>
		<contour>
			<point x="612" y="254" type="line"/>
			<point x="434" y="458" type="line"/>
			<point x="414" y="438" type="line"/>
			<point x="568" y="266" type="line"/>
			<point x="32" y="266" type="line"/>
			<point x="186" y="438" type="line"/>
			<point x="166" y="458" type="line"/>
			<point x="-12" y="254" type="line"/>
			<point x="-12" y="250" type="line"/>
			<point x="166" y="46" type="line"/>
			<point x="186" y="66" type="line"/>
			<point x="32" y="238" type="line"/>
			<point x="568" y="238" type="line"/>
			<point x="414" y="66" type="line"/>
			<point x="434" y="46" type="line"/>
			<point x="612" y="250" type="line"/>
		</contour>
	</outline>
</glyph>
<glyph name="arrowdownleft" format="1">
	<unicode hex="2199"/>
	<advance width="600"/>
	<outline>
		<contour>
			<point x="107" y="55" type="line"/>
			<point x="483" y="58" type="line"/>
			<point x="483" y="86" type="line"/>
			<point x="148" y="79" type="line"/>
			<point x="504" y="436" type="line"/>
			<point x="485" y="455" type="line"/>
			<point x="128" y="99" type="line"/>
			<point x="135" y="434" type="line"/>
			<point x="107" y="434" type="line"/>
			<point x="104" y="58" type="line"/>
		</contour>
	</outline>
</glyph>
<glyph name="arrowdblleft" format="1">
  <advance width="600"/>
  <unicode hex="21D0"/>
  <outline>
    <contour>
      <point x="288" y="-14" type="line"/>
      <point x="308" y="6" type="line"/>
      <point x="54" y="250" type="line"/>
      <point x="54" y="254" type="line"/>
      <point x="308" y="498" type="line"/>
      <point x="288" y="518" type="line"/>
      <point x="20" y="254" type="line"/>
      <point x="20" y="250" type="line"/>
    </contour>
    <contour>
      <point x="136" y="338" type="line"/>
      <point x="570" y="338" type="line"/>
      <point x="570" y="366" type="line"/>
      <point x="136" y="366" type="line"/>
    </contour>
    <contour>
      <point x="136" y="138" type="line"/>
      <point x="570" y="138" type="line"/>
      <point x="570" y="166" type="line"/>
      <point x="136" y="166" type="line"/>
    </contour>
  </outline>
</glyph>
<glyph name="arrowdblup" format="1">
  <advance width="600"/>
  <unicode hex="21D1"/>
  <outline>
    <contour>
      <point x="54" y="238" type="line"/>
      <point x="298" y="492" type="line"/>
      <point x="302" y="492" type="line"/>
      <point x="546" y="238" type="line"/>
      <point x="566" y="258" type="line"/>
      <point x="302" y="526" type="line"/>
      <point x="298" y="526" type="line"/>
      <point x="34" y="258" type="line"/>
    </contour>
    <contour>
      <point x="386" y="-24" type="line"/>
      <point x="414" y="-24" type="line"/>
      <point x="414" y="410" type="line"/>
      <point x="386" y="410" type="line"/>
    </contour>
    <contour>
      <point x="186" y="-24" type="line"/>
      <point x="214" y="-24" type="line"/>
      <point x="214" y="410" type="line"/>
      <point x="186" y="410" type="line"/>
    </contour>
  </outline>
</glyph>
<glyph name="arrowdbldown" format="1">
  <advance width="600"/>
  <unicode hex="21D3"/>
  <outline>
    <contour>
      <point x="298" y="-24" type="line"/>
      <point x="302" y="-24" type="line"/>
      <point x="566" y="244" type="line"/>
      <point x="546" y="264" type="line"/>
      <point x="302" y="10" type="line"/>
      <point x="298" y="10" type="line"/>
      <point x="54" y="264" type="line"/>
      <point x="34" y="244" type="line"/>
    </contour>
    <contour>
      <point x="186" y="92" type="line"/>
      <point x="214" y="92" type="line"/>
      <point x="214" y="526" type="line"/>
      <point x="186" y="526" type="line"/>
    </contour>
    <contour>
      <point x="386" y="92" type="line"/>
      <point x="414" y="92" type="line"/>
      <point x="414" y="526" type="line"/>
      <point x="386" y="526" type="line"/>
    </contour>
  </outline>
</glyph>
<glyph name="orthogonal" format="1">
  <advance width="600"/>
  <unicode hex="221F"/>
  <outline>
    <contour>
      <point x="98" y="112" type="line"/>
      <point x="502" y="112" type="line"/>
      <point x="502" y="140" type="line"/>
      <point x="130" y="140" type="line"/>
      <point x="130" y="548" type="line"/>
      <point x="98" y="548" type="line"/>
    </contour>
  </outline>
</glyph>
<glyph name="lightvertbxd" format="1">
  <advance width="600"/>
  <unicode hex="2502"/>
  <outline>
    <contour>
      <point x="285" y="-400" type="line"/>
      <point x="315" y="-400" type="line"/>
      <point x="315" y="1000" type="line"/>
      <point x="285" y="1000" type="line"/>
    </contour>
  </outline>
</glyph>
<glyph name="heavydnrightbxd" format="1">
  <advance width="600"/>
  <unicode hex="250F"/>
  <outline>
    <contour>
      <point x="270" y="-400" type="line"/>
      <point x="330" y="-400" type="line"/>
      <point x="330" y="270" type="line"/>
      <point x="615" y="270" type="line"/>
      <point x="615" y="330" type="line"/>
      <point x="270" y="330" type="line"/>
    </contour>
  </outline>
</glyph>
<glyph name="vertlightleftheavybxd" format="1">
	<unicode hex="2525"/>
	<advance width="600"/>
	<outline>
		<contour>
			<point x="-15" y="270" type="line"/>
			<point x="285" y="270" type="line"/>
			<point x="285" y="-400" type="line"/>
			<point x="315" y="-400" type="line"/>
			<point x="315" y="1000" type="line"/>
			<point x="285" y="1000" type="line"/>
			<point x="285" y="330" type="line"/>
			<point x="-15" y="330" type="line"/>
		</contour>
	</outline>
</glyph>
<glyph name="heavyleftbxd" format="1">
  <advance width="600"/>
  <unicode hex="2578"/>
  <outline>
    <contour>
      <point x="-15" y="270" type="line"/>
      <point x="315" y="270" type="line"/>
      <point x="315" y="330" type="line"/>
      <point x="-15" y="330" type="line"/>
    </contour>
  </outline>
</glyph>
<glyph name="dnquarterblock" format="1">
	<unicode hex="2582"/>
	<advance width="600"/>
	<outline>
		<contour>
			<point x="0" y="-400" type="line"/>
			<point x="600" y="-400" type="line"/>
			<point x="600" y="-50" type="line"/>
			<point x="0" y="-50" type="line"/>
		</contour>
	</outline>
</glyph>
<glyph name="leftseveneighthsblock" format="1">
	<unicode hex="2589"/>
	<advance width="600"/>
	<outline>
		<contour>
			<point x="0" y="-400" type="line"/>
			<point x="525" y="-400" type="line"/>
			<point x="525" y="1000" type="line"/>
			<point x="0" y="1000" type="line"/>
		</contour>
	</outline>
</glyph>
<glyph name="trianglewhiteup" format="1">
  <advance width="600"/>
  <unicode hex="25B3"/>
  <outline>
    <contour>
      <point x="60" y="108" type="line"/>
      <point x="540" y="108" type="line"/>
      <point x="540" y="109" type="line"/>
      <point x="301" y="612" type="line"/>
      <point x="299" y="612" type="line"/>
      <point x="60" y="109" type="line"/>
    </contour>
    <contour>
      <point x="96" y="130" type="line"/>
      <point x="300" y="562" type="line"/>
      <point x="504" y="130" type="line"/>
    </contour>
  </outline>
</glyph>
<glyph name="trianglesmallrightwhite" format="1">
  <advance width="600"/>
  <unicode hex="25B9"/>
  <outline>
    <contour>
      <point x="172" y="101" type="line"/>
      <point x="174" y="101" type="line"/>
      <point x="460" y="262" type="line"/>
      <point x="460" y="264" type="line"/>
      <point x="174" y="425" type="line"/>
      <point x="172" y="425" type="line"/>
    </contour>
    <contour>
      <point x="194" y="139" type="line"/>
      <point x="194" y="387" type="line"/>
      <point x="416" y="263" type="line"/>
    </contour>
  </outline>
</glyph>
<glyph name="invcircle" format="1">
  <advance width="600"/>
  <unicode hex="25D9"/>
  <outline>
    <contour>
      <point x="88" y="118" type="line"/>
      <point x="512" y="118" type="line"/>
      <point x="512" y="542" type="line"/>
      <point x="88" y="542" type="line"/>
    </contour>
    <contour>
      <point x="300" y="122" type="curve" smooth="yes"/>
      <point x="178" y="122"/>
      <point x="92" y="212"/>
      <point x="92" y="330" type="curve" smooth="yes"/>
      <point x="92" y="448"/>
      <point x="178" y="538"/>
      <point x="300" y="538" type="curve" smooth="yes"/>
      <point x="422" y="538"/>
      <point x="508" y="448"/>
      <point x="508" y="330" type="curve" smooth="yes"/>
      <point x="508" y="212"/>
      <point x="422" y="122"/>
    </contour>
    <contour>
      <point x="300" y="150" type="curve" smooth="yes"/>
      <point x="402" y="150"/>
      <point x="476" y="226"/>
      <point x="476" y="330" type="curve" smooth="yes"/>
      <point x="476" y="434"/>
      <point x="402" y="510"/>
      <point x="300" y="510" type="curve" smooth="yes"/>
      <point x="198" y="510"/>
      <point x="124" y="434"/>
      <point x="124" y="330" type="curve" smooth="yes"/>
      <point x="124" y="226"/>
      <point x="198" y="150"/>
    </contour>
  </outline>
</glyph>
<glyph name="smileface" format="1">
  <advance width="600"/>
  <unicode hex="263A"/>
  <outline>
    <contour>
      <point x="300" y="48" type="curve" smooth="yes"/>
      <point x="462" y="48"/>
      <point x="580" y="168"/>
      <point x="580" y="330" type="curve" smooth="yes"/>
      <point x="580" y="492"/>
      <point x="462" y="612"/>
      <point x="300" y="612" type="curve" smooth="yes"/>
      <point x="138" y="612"/>
      <point x="20" y="492"/>
      <point x="20" y="330" type="curve" smooth="yes"/>
      <point x="20" y="168"/>
      <point x="138" y="48"/>
    </contour>
    <contour>
      <point x="300" y="74" type="curve" smooth="yes"/>
      <point x="154" y="74"/>
      <point x="50" y="180"/>
      <point x="50" y="330" type="curve" smooth="yes"/>
      <point x="50" y="480"/>
      <point x="154" y="586"/>
      <point x="300" y="586" type="curve" smooth="yes"/>
      <point x="446" y="586"/>
      <point x="550" y="480"/>
      <point x="550" y="330" type="curve" smooth="yes"/>
      <point x="550" y="180"/>
      <point x="446" y="74"/>
    </contour>
    <contour>
      <point x="218" y="354" type="curve" smooth="yes"/>
      <point x="246" y="354"/>
      <point x="266" y="378"/>
      <point x="266" y="408" type="curve" smooth="yes"/>
      <point x="266" y="438"/>
      <point x="246" y="462"/>
      <point x="218" y="462" type="curve" smooth="yes"/>
      <point x="190" y="462"/>
      <point x="170" y="438"/>
      <point x="170" y="408" type="curve" smooth="yes"/>
      <point x="170" y="378"/>
      <point x="190" y="354"/>
    </contour>
    <contour>
      <point x="382" y="354" type="curve" smooth="yes"/>
      <point x="410" y="354"/>
      <point x="430" y="378"/>
      <point x="430" y="408" type="curve" smooth="yes"/>
      <point x="430" y="438"/>
      <point x="410" y="462"/>
      <point x="382" y="462" type="curve" smooth="yes"/>
      <point x="354" y="462"/>
      <point x="334" y="438"/>
      <point x="334" y="408" type="curve" smooth="yes"/>
      <point x="334" y="378"/>
      <point x="354" y="354"/>
    </contour>
    <contour>
      <point x="300" y="166" type="curve" smooth="yes"/>
      <point x="394" y="166"/>
      <point x="443" y="214"/>
      <point x="464" y="292" type="curve"/>
      <point x="440" y="302" type="line"/>
      <point x="419" y="242"/>
      <point x="374" y="206"/>
      <point x="300" y="206" type="curve" smooth="yes"/>
      <point x="226" y="206"/>
      <point x="181" y="242"/>
      <point x="160" y="302" type="curve"/>
      <point x="136" y="292" type="line"/>
      <point x="157" y="214"/>
      <point x="206" y="166"/>
    </contour>
  </outline>
</glyph>
<glyph name="male" format="1">
  <advance width="600"/>
  <unicode hex="2642"/>
  <outline>
    <contour>
      <point x="224" y="22" type="curve" smooth="yes"/>
      <point x="352" y="22"/>
      <point x="452" y="118"/>
      <point x="452" y="246" type="curve" smooth="yes"/>
      <point x="452" y="374"/>
      <point x="352" y="470"/>
      <point x="224" y="470" type="curve" smooth="yes"/>
      <point x="96" y="470"/>
      <point x="-4" y="374"/>
      <point x="-4" y="246" type="curve" smooth="yes"/>
      <point x="-4" y="118"/>
      <point x="96" y="22"/>
    </contour>
    <contour>
      <point x="224" y="50" type="curve" smooth="yes"/>
      <point x="114" y="50"/>
      <point x="28" y="130"/>
      <point x="28" y="246" type="curve" smooth="yes"/>
      <point x="28" y="362"/>
      <point x="114" y="442"/>
      <point x="224" y="442" type="curve" smooth="yes"/>
      <point x="334" y="442"/>
      <point x="420" y="362"/>
      <point x="420" y="246" type="curve" smooth="yes"/>
      <point x="420" y="130"/>
      <point x="334" y="50"/>
    </contour>
    <contour>
      <point x="372" y="398" type="line"/>
      <point x="576" y="603" type="line"/>
      <point x="569" y="388" type="line"/>
      <point x="597" y="388" type="line"/>
      <point x="600" y="644" type="line"/>
      <point x="597" y="647" type="line"/>
      <point x="342" y="644" type="line"/>
      <point x="342" y="616" type="line"/>
      <point x="556" y="623" type="line"/>
      <point x="352" y="418" type="line"/>
    </contour>
  </outline>
</glyph>
<glyph name="club" format="1">
  <advance width="600"/>
  <unicode hex="2663"/>
  <outline>
    <contour>
      <point x="112" y="0" type="line"/>
      <point x="488" y="0" type="line"/>
      <point x="488" y="26" type="line"/>
      <point x="398" y="40"/>
      <point x="332" y="88"/>
      <point x="312" y="272" type="curve"/>
      <point x="288" y="272" type="line"/>
      <point x="268" y="88"/>
      <point x="202" y="40"/>
      <point x="112" y="26" type="curve"/>
    </contour>
    <contour>
      <point x="152" y="162" type="curve" smooth="yes"/>
      <point x="202" y="162"/>
      <point x="251" y="183"/>
      <point x="278" y="248" type="curve"/>
      <point x="322" y="248" type="line"/>
      <point x="349" y="183"/>
      <point x="398" y="162"/>
      <point x="448" y="162" type="curve" smooth="yes"/>
      <point x="531" y="162"/>
      <point x="584" y="228"/>
      <point x="584" y="320" type="curve" smooth="yes"/>
      <point x="584" y="410"/>
      <point x="524" y="460"/>
      <point x="442" y="460" type="curve" smooth="yes"/>
      <point x="422" y="460"/>
      <point x="402" y="454"/>
      <point x="376" y="440" type="curve"/>
      <point x="372" y="444" type="line"/>
      <point x="436" y="506"/>
      <point x="444" y="559"/>
      <point x="444" y="594" type="curve" smooth="yes"/>
      <point x="444" y="668"/>
      <point x="380" y="722"/>
      <point x="300" y="722" type="curve" smooth="yes"/>
      <point x="220" y="722"/>
      <point x="156" y="668"/>
      <point x="156" y="594" type="curve" smooth="yes"/>
      <point x="156" y="559"/>
      <point x="164" y="506"/>
      <point x="228" y="444" type="curve"/>
      <point x="224" y="440" type="line"/>
      <point x="198" y="454"/>
      <point x="178" y="460"/>
      <point x="158" y="460" type="curve" smooth="yes"/>
      <point x="76" y="460"/>
      <point x="16" y="410"/>
      <point x="16" y="320" type="curve" smooth="yes"/>
      <point x="16" y="228"/>
      <point x="70" y="162"/>
    </contour>
  </outline>
</glyph>
<glyph name="heart" format="1">
  <advance width="600"/>
  <unicode hex="2665"/>
  <outline>
    <contour>
      <point x="302" y="-12" type="line"/>
      <point x="540" y="252"/>
      <point x="584" y="382"/>
      <point x="584" y="524" type="curve" smooth="yes"/>
      <point x="584" y="656"/>
      <point x="524" y="722"/>
      <point x="444" y="722" type="curve" smooth="yes"/>
      <point x="382" y="722"/>
      <point x="330" y="690"/>
      <point x="302" y="602" type="curve"/>
      <point x="298" y="602" type="line"/>
      <point x="270" y="690"/>
      <point x="220" y="722"/>
      <point x="156" y="722" type="curve" smooth="yes"/>
      <point x="76" y="722"/>
      <point x="16" y="656"/>
      <point x="16" y="524" type="curve" smooth="yes"/>
      <point x="16" y="382"/>
      <point x="60" y="252"/>
      <point x="298" y="-12" type="curve"/>
    </contour>
  </outline>
</glyph>
<glyph name="musicalnotedbl" format="1">
  <advance width="600"/>
  <unicode hex="266B"/>
  <outline>
    <contour>
      <point x="108" y="-20" type="curve" smooth="yes"/>
      <point x="178" y="-20"/>
      <point x="260" y="26"/>
      <point x="260" y="120" type="curve"/>
      <point x="260" y="546" type="line"/>
      <point x="252" y="674" type="line"/>
      <point x="226" y="674" type="line"/>
      <point x="226" y="140" type="line"/>
      <point x="216" y="146"/>
      <point x="190" y="152"/>
      <point x="164" y="152" type="curve" smooth="yes"/>
      <point x="72" y="152"/>
      <point x="16" y="100"/>
      <point x="16" y="48" type="curve" smooth="yes"/>
      <point x="16" y="6"/>
      <point x="56" y="-20"/>
    </contour>
    <contour>
      <point x="420" y="40" type="curve" smooth="yes"/>
      <point x="490" y="40"/>
      <point x="572" y="86"/>
      <point x="572" y="180" type="curve"/>
      <point x="572" y="734" type="line"/>
      <point x="538" y="724" type="line"/>
      <point x="538" y="200" type="line"/>
      <point x="528" y="206"/>
      <point x="502" y="212"/>
      <point x="476" y="212" type="curve" smooth="yes"/>
      <point x="384" y="212"/>
      <point x="328" y="160"/>
      <point x="328" y="108" type="curve" smooth="yes"/>
      <point x="328" y="66"/>
      <point x="368" y="40"/>
    </contour>
    <contour>
      <point x="226" y="540" type="line"/>
      <point x="572" y="600" type="line"/>
      <point x="572" y="734" type="line"/>
      <point x="226" y="674" type="line"/>
    </contour>
  </outline>
</glyph>
<glyph name="brackhalftopright" format="1">
  <advance width="600"/>
  <unicode hex="2E23"/>
  <outline>
    <contour>
      <point x="326" y="278" type="line"/>
      <point x="354" y="278" type="line"/>
      <point x="354" y="688" type="line"/>
      <point x="94" y="688" type="line"/>
      <point x="94" y="666" type="line"/>
      <point x="326" y="666" type="line"/>
    </contour>
  </outline>
</glyph>
<glyph name="uniE0A1" format="1">
  <advance width="600"/>
  <unicode hex="E0A1"/>
  <outline>
    <contour>
      <point x="98" y="360" type="line"/>
      <point x="366" y="360" type="line"/>
      <point x="366" y="388" type="line"/>
      <point x="128" y="388" type="line"/>
      <point x="128" y="840" type="line"/>
      <point x="98" y="840" type="line"/>
    </contour>
    <contour>
      <point x="224" y="-246" type="line"/>
      <point x="254" y="-246" type="line"/>
      <point x="254" y="-14" type="line"/>
      <point x="252" y="172" type="line"/>
      <point x="471" y="-246" type="line"/>
      <point x="502" y="-246" type="line"/>
      <point x="502" y="232" type="line"/>
      <point x="472" y="232" type="line"/>
      <point x="472" y="18" type="line"/>
      <point x="474" y="-192" type="line"/>
      <point x="254" y="232" type="line"/>
      <point x="224" y="232" type="line"/>
    </contour>
  </outline>
</glyph>
<glyph name="uniE0A2" format="1">
  <advance width="600"/>
  <unicode hex="E0A2"/>
  <outline>
    <contour>
      <point x="100" y="-70" type="line"/>
      <point x="500" y="-70" type="line"/>
      <point x="540" y="-30" type="line"/>
      <point x="540" y="480" type="line"/>
      <point x="500" y="520" type="line"/>
      <point x="454" y="520" type="line"/>
      <point x="454" y="680" type="line" smooth="yes"/>
      <point x="454" y="792"/>
      <point x="398" y="856"/>
      <point x="300" y="856" type="curve" smooth="yes"/>
      <point x="202" y="856"/>
      <point x="146" y="792"/>
      <point x="146" y="680" type="curve"/>
      <point x="146" y="520" type="line"/>
      <point x="100" y="520" type="line"/>
      <point x="60" y="480" type="line"/>
      <point x="60" y="-30" type="line"/>
    </contour>
    <contour>
      <point x="244" y="52" type="line"/>
      <point x="272" y="226" type="line"/>
      <point x="230" y="242"/>
      <point x="214" y="270"/>
      <point x="214" y="308" type="curve" smooth="yes"/>
      <point x="214" y="357"/>
      <point x="252" y="392"/>
      <point x="300" y="392" type="curve" smooth="yes"/>
      <point x="348" y="392"/>
      <point x="386" y="357"/>
      <point x="386" y="308" type="curve" smooth="yes"/>
      <point x="386" y="270"/>
      <point x="370" y="242"/>
      <point x="328" y="226" type="curve"/>
      <point x="356" y="52" type="line"/>
      <point x="310" y="32" type="line"/>
      <point x="290" y="32" type="line"/>
    </contour>
    <contour>
      <point x="178" y="520" type="line"/>
      <point x="178" y="680" type="line" smooth="yes"/>
      <point x="178" y="772"/>
      <point x="218" y="826"/>
      <point x="300" y="826" type="curve" smooth="yes"/>
      <point x="382" y="826"/>
      <point x="422" y="772"/>
      <point x="422" y="680" type="curve" smooth="yes"/>
      <point x="422" y="520" type="line"/>
    </contour>
  </outline>
</glyph>
<glyph name="uniE0B0" format="1">
  <advance width="600"/>
  <unicode hex="E0B0"/>
  <outline>
    <contour>
      <point x="20" y="-320" type="line"/>
      <point x="600" y="300" type="line"/>
      <point x="20" y="920" type="line"/>
    </contour>
  </outline>
</glyph>
<glyph name="Bsmall" format="1">
  <advance width="600"/>
  <outline>
    <contour>
      <point x="242" y="502" type="move" name="aboveLC"/>
    </contour>
    <contour>
      <point x="264" y="-22" type="move" name="belowLC"/>
    </contour>
    <component base="ve"/>
  </outline>
</glyph>
<glyph name="Chedescender" format="1">
  <advance width="600"/>
  <outline>
    <contour>
      <point x="464" y="0" type="line"/>
      <point x="496" y="0" type="line"/>
      <point x="496" y="660" type="line"/>
      <point x="464" y="660" type="line"/>
      <point x="464" y="348" type="line"/>
      <point x="430" y="342"/>
      <point x="381" y="336"/>
      <point x="320" y="336" type="curve" smooth="yes"/>
      <point x="192" y="336"/>
      <point x="114" y="375"/>
      <point x="114" y="504" type="curve" smooth="yes"/>
      <point x="114" y="660" type="line"/>
      <point x="82" y="660" type="line"/>
      <point x="82" y="504" type="line" smooth="yes"/>
      <point x="82" y="357"/>
      <point x="172" y="306"/>
      <point x="318" y="306" type="curve" smooth="yes"/>
      <point x="380" y="306"/>
      <point x="428" y="312"/>
      <point x="464" y="318" type="curve"/>
    </contour>
    <contour>
      <point x="532" y="-188" type="line"/>
      <point x="558" y="-188" type="line"/>
      <point x="564" y="12" type="line"/>
      <point x="564" y="28" type="line"/>
      <point x="486" y="28" type="line"/>
      <point x="486" y="0" type="line"/>
      <point x="532" y="0" type="line"/>
    </contour>
  </outline>
</glyph>
<glyph name="E" format="1">
  <advance width="600"/>
  <outline>
    <contour>
      <point x="132" y="0" type="line"/>
      <point x="526" y="0" type="line"/>
      <point x="526" y="28" type="line"/>
      <point x="164" y="28" type="line"/>
      <point x="164" y="338" type="line"/>
      <point x="460" y="338" type="line"/>
      <point x="460" y="366" type="line"/>
      <point x="164" y="366" type="line"/>
      <point x="164" y="632" type="line"/>
      <point x="516" y="632" type="line"/>
      <point x="516" y="660" type="line"/>
      <point x="132" y="660" type="line"/>
    </contour>
    <contour>
      <point x="338" y="680" type="move" name="aboveUC"/>
    </contour>
    <contour>
      <point x="429" y="0" type="move" name="ogonekUC"/>
    </contour>
    <contour>
      <point x="330" y="0" type="move" name="baseLC"/>
    </contour>
    <contour>
      <point x="340" y="-20" type="move" name="belowLC"/>
    </contour>
  </outline>
</glyph>
<glyph name="Ef" format="1">
  <advance width="600"/>
  <outline>
    <contour>
      <point x="288" y="88" type="curve"/>
      <point x="312" y="88" type="line" smooth="yes"/>
      <point x="473" y="88"/>
      <point x="564" y="182"/>
      <point x="564" y="332" type="curve" smooth="yes"/>
      <point x="564" y="482"/>
      <point x="473" y="572"/>
      <point x="312" y="572" type="curve" smooth="yes"/>
      <point x="288" y="572" type="line" smooth="yes"/>
      <point x="127" y="572"/>
      <point x="36" y="482"/>
      <point x="36" y="332" type="curve" smooth="yes"/>
      <point x="36" y="182"/>
      <point x="127" y="88"/>
    </contour>
    <contour>
      <point x="288" y="116" type="line"/>
      <point x="144" y="116"/>
      <point x="70" y="202"/>
      <point x="70" y="332" type="curve" smooth="yes"/>
      <point x="70" y="462"/>
      <point x="144" y="544"/>
      <point x="288" y="544" type="curve" smooth="yes"/>
      <point x="312" y="544" type="line" smooth="yes"/>
      <point x="456" y="544"/>
      <point x="530" y="462"/>
      <point x="530" y="332" type="curve" smooth="yes"/>
      <point x="530" y="202"/>
      <point x="456" y="116"/>
      <point x="312" y="116" type="curve" smooth="yes"/>
    </contour>
    <contour>
      <point x="286" y="-12" type="line"/>
      <point x="314" y="-12" type="line"/>
      <point x="314" y="672" type="line"/>
      <point x="286" y="672" type="line"/>
    </contour>
  </outline>
</glyph>
<glyph name="Endescender" format="1">
  <advance width="600"/>
  <outline>
    <contour>
      <point x="92" y="0" type="line"/>
      <point x="124" y="0" type="line"/>
      <point x="124" y="338" type="line"/>
      <point x="476" y="338" type="line"/>
      <point x="476" y="0" type="line"/>
      <point x="508" y="0" type="line"/>
      <point x="508" y="660" type="line"/>
      <point x="476" y="660" type="line"/>
      <point x="476" y="366" type="line"/>
      <point x="124" y="366" type="line"/>
      <point x="124" y="660" type="line"/>
      <point x="92" y="660" type="line"/>
    </contour>
    <contour>
      <point x="544" y="-188" type="line"/>
      <point x="570" y="-188" type="line"/>
      <point x="576" y="12" type="line"/>
      <point x="576" y="28" type="line"/>
      <point x="498" y="28" type="line"/>
      <point x="498" y="0" type="line"/>
      <point x="544" y="0" type="line"/>
    </contour>
  </outline>
</glyph>
<glyph name="Eng.a" format="1">
  <advance width="600"/>
  <outline>
    <contour>
      <point x="412" y="-152" type="curve" smooth="yes"/>
      <point x="474" y="-152"/>
      <point x="504" y="-113"/>
      <point x="504" y="-20" type="curve"/>
      <point x="504" y="660" type="line"/>
      <point x="474" y="660" type="line"/>
      <point x="474" y="231" type="line" smooth="yes"/>
      <point x="474" y="169"/>
      <point x="477" y="109"/>
      <point x="478" y="46" type="curve"/>
      <point x="476" y="46" type="line"/>
      <point x="403" y="174" type="line"/>
      <point x="129" y="660" type="line"/>
      <point x="96" y="660" type="line"/>
      <point x="96" y="0" type="line"/>
      <point x="126" y="0" type="line"/>
      <point x="126" y="433" type="line" smooth="yes"/>
      <point x="126" y="495"/>
      <point x="123" y="551"/>
      <point x="122" y="614" type="curve"/>
      <point x="124" y="614" type="line"/>
      <point x="197" y="486" type="line"/>
      <point x="471" y="0" type="line"/>
      <point x="476" y="0" type="line"/>
      <point x="476" y="-76"/>
      <point x="466" y="-120"/>
      <point x="414" y="-120" type="curve" smooth="yes"/>
      <point x="396" y="-120"/>
      <point x="377" y="-114"/>
      <point x="366" y="-110" type="curve"/>
      <point x="358" y="-140" type="line"/>
      <point x="371" y="-146"/>
      <point x="393" y="-152"/>
    </contour>
    <contour>
      <point x="310" y="680" type="move" name="aboveUC"/>
    </contour>
  </outline>
</glyph>
<glyph name="Epsilontonos" format="1">
  <advance width="600"/>
  <outline>
    <contour>
      <point x="192" y="0" type="line"/>
      <point x="526" y="0" type="line"/>
      <point x="526" y="28" type="line"/>
      <point x="224" y="28" type="line"/>
      <point x="224" y="338" type="line"/>
      <point x="460" y="338" type="line"/>
      <point x="460" y="366" type="line"/>
      <point x="224" y="366" type="line"/>
      <point x="224" y="632" type="line"/>
      <point x="516" y="632" type="line"/>
      <point x="516" y="660" type="line"/>
      <point x="192" y="660" type="line"/>
    </contour>
    <component base="tonos.cap" xOffset="-220"/>
  </outline>
</glyph>
<glyph name="Fita" format="1">
  <advance width="600"/>
  <outline>
    <contour>
      <point x="300" y="-12" type="curve" smooth="yes"/>
      <point x="444" y="-12"/>
      <point x="544" y="116"/>
      <point x="544" y="332" type="curve" smooth="yes"/>
      <point x="544" y="548"/>
      <point x="444" y="672"/>
      <point x="300" y="672" type="curve" smooth="yes"/>
      <point x="156" y="672"/>
      <point x="56" y="548"/>
      <point x="56" y="332" type="curve" smooth="yes"/>
      <point x="56" y="116"/>
      <point x="156" y="-12"/>
    </contour>
    <contour>
      <point x="300" y="18" type="curve" smooth="yes"/>
      <point x="172" y="18"/>
      <point x="88" y="132"/>
      <point x="88" y="338" type="curve" smooth="yes"/>
      <point x="88" y="528"/>
      <point x="172" y="642"/>
      <point x="300" y="642" type="curve" smooth="yes"/>
      <point x="428" y="642"/>
      <point x="512" y="528"/>
      <point x="512" y="338" type="curve" smooth="yes"/>
      <point x="512" y="132"/>
      <point x="428" y="18"/>
    </contour>
    <contour>
      <point x="76" y="338" type="line"/>
      <point x="520" y="338" type="line"/>
      <point x="520" y="366" type="line"/>
      <point x="76" y="366" type="line"/>
    </contour>
    <contour>
      <point x="300" y="680" type="move" name="aboveUC"/>
    </contour>
  </outline>
</glyph>
<glyph name="Ghook" format="1">
  <advance width="600"/>
  <outline>
    <contour>
      <point x="516" y="594" type="line"/>
      <point x="483" y="645"/>
      <point x="471" y="666"/>
      <point x="471" y="706" type="curve" smooth="yes"/>
      <point x="471" y="735"/>
      <point x="489" y="764"/>
      <point x="527" y="764" type="curve" smooth="yes"/>
      <point x="543" y="764"/>
      <point x="554" y="758"/>
      <point x="565" y="754" type="curve"/>
      <point x="573" y="780" type="line"/>
      <point x="560" y="786"/>
      <point x="545" y="792"/>
      <point x="529" y="792" type="curve" smooth="yes"/>
      <point x="481" y="792"/>
      <point x="441" y="763"/>
      <point x="441" y="710" type="curve" smooth="yes"/>
      <point x="441" y="670"/>
      <point x="453" y="649"/>
      <point x="486" y="598" type="curve"/>
    </contour>
    <component base="G"/>
  </outline>
</glyph>
<glyph name="Hbar" format="1">
  <advance width="600"/>
  <outline>
    <contour>
      <point x="16" y="496" type="line"/>
      <point x="584" y="496" type="line"/>
      <point x="584" y="524" type="line"/>
      <point x="92" y="524" type="line"/>
      <point x="16" y="520" type="line"/>
    </contour>
    <component base="H"/>
  </outline>
</glyph>
<glyph name="IJ" format="1">
  <advance width="600"/>
  <outline>
    <contour>
      <point x="142" y="0" type="line"/>
      <point x="174" y="0" type="line"/>
      <point x="174" y="660" type="line"/>
      <point x="142" y="660" type="line"/>
    </contour>
    <contour>
      <point x="358" y="-152" type="curve" smooth="yes"/>
      <point x="424" y="-152"/>
      <point x="458" y="-112"/>
      <point x="458" y="-20" type="curve" smooth="yes"/>
      <point x="458" y="660" type="line"/>
      <point x="426" y="660" type="line"/>
      <point x="426" y="-12" type="line" smooth="yes"/>
      <point x="426" y="-74"/>
      <point x="416" y="-120"/>
      <point x="360" y="-120" type="curve" smooth="yes"/>
      <point x="340" y="-120"/>
      <point x="320" y="-114"/>
      <point x="308" y="-110" type="curve"/>
      <point x="300" y="-140" type="line"/>
      <point x="314" y="-146"/>
      <point x="338" y="-152"/>
    </contour>
  </outline>
</glyph>
<glyph name="Icyr" format="1">
  <advance width="600"/>
  <outline>
    <contour>
      <point x="92" y="0" type="line"/>
      <point x="128" y="0" type="line"/>
      <point x="404" y="484" type="line"/>
      <point x="476" y="614" type="line"/>
      <point x="480" y="614" type="line"/>
      <point x="478" y="552"/>
      <point x="476" y="496"/>
      <point x="476" y="434" type="curve" smooth="yes"/>
      <point x="476" y="0" type="line"/>
      <point x="508" y="0" type="line"/>
      <point x="508" y="660" type="line"/>
      <point x="472" y="660" type="line"/>
      <point x="196" y="176" type="line"/>
      <point x="124" y="46" type="line"/>
      <point x="120" y="46" type="line"/>
      <point x="122" y="110"/>
      <point x="124" y="170"/>
      <point x="124" y="232" type="curve" smooth="yes"/>
      <point x="124" y="660" type="line"/>
      <point x="92" y="660" type="line"/>
    </contour>
    <contour>
      <point x="304" y="680" type="move" name="aboveUC"/>
    </contour>
  </outline>
</glyph>
<glyph name="Ieukran" format="1">
  <advance width="600"/>
  <outline>
    <contour>
      <point x="347" y="-12" type="curve" smooth="yes"/>
      <point x="433" y="-12"/>
      <point x="491" y="24"/>
      <point x="541" y="82" type="curve"/>
      <point x="521" y="102" type="line"/>
      <point x="471" y="46"/>
      <point x="419" y="18"/>
      <point x="349" y="18" type="curve" smooth="yes"/>
      <point x="197" y="18"/>
      <point x="107" y="132"/>
      <point x="107" y="338" type="curve" smooth="yes"/>
      <point x="107" y="526"/>
      <point x="197" y="642"/>
      <point x="351" y="642" type="curve" smooth="yes"/>
      <point x="413" y="642"/>
      <point x="465" y="614"/>
      <point x="501" y="572" type="curve"/>
      <point x="521" y="594" type="line"/>
      <point x="487" y="634"/>
      <point x="427" y="672"/>
      <point x="351" y="672" type="curve" smooth="yes"/>
      <point x="181" y="672"/>
      <point x="75" y="548"/>
      <point x="75" y="332" type="curve" smooth="yes"/>
      <point x="75" y="116"/>
      <point x="181" y="-12"/>
    </contour>
    <contour>
      <point x="81" y="338" type="line"/>
      <point x="421" y="338" type="line"/>
      <point x="421" y="366" type="line"/>
      <point x="81" y="366" type="line"/>
    </contour>
  </outline>
</glyph>
<glyph name="Iogonek" format="1">
  <advance width="600"/>
  <outline>
    <contour>
      <point x="300" y="682" type="move" name="aboveUC"/>
    </contour>
    <contour>
      <point x="302" y="-224" type="curve" smooth="yes"/>
      <point x="340" y="-224"/>
      <point x="360" y="-208"/>
      <point x="380" y="-188" type="curve"/>
      <point x="362" y="-170" type="line"/>
      <point x="348" y="-184"/>
      <point x="330" y="-196"/>
      <point x="304" y="-196" type="curve" smooth="yes"/>
      <point x="271" y="-196"/>
      <point x="240" y="-176"/>
      <point x="240" y="-134" type="curve" smooth="yes"/>
      <point x="240" y="-90"/>
      <point x="266" y="-46"/>
      <point x="316" y="0" type="curve"/>
      <point x="488" y="0" type="line"/>
      <point x="488" y="28" type="line"/>
      <point x="316" y="28" type="line"/>
      <point x="316" y="632" type="line"/>
      <point x="488" y="632" type="line"/>
      <point x="488" y="660" type="line"/>
      <point x="112" y="660" type="line"/>
      <point x="112" y="632" type="line"/>
      <point x="284" y="632" type="line"/>
      <point x="284" y="28" type="line"/>
      <point x="112" y="28" type="line"/>
      <point x="112" y="0" type="line"/>
      <point x="286" y="0" type="line"/>
      <point x="246" y="-40"/>
      <point x="210" y="-82"/>
      <point x="210" y="-136" type="curve" smooth="yes"/>
      <point x="210" y="-196"/>
      <point x="249" y="-224"/>
    </contour>
  </outline>
</glyph>
<glyph name="Ka" format="1">
  <advance width="600"/>
  <outline>
    <contour>
      <point x="128" y="0" type="line"/>
      <point x="160" y="0" type="line"/>
      <point x="160" y="338" type="line"/>
      <point x="305" y="338" type="line"/>
      <point x="530" y="0" type="line"/>
      <point x="568" y="0" type="line"/>
      <point x="324" y="366" type="line"/>
      <point x="160" y="366" type="line"/>
      <point x="160" y="660" type="line"/>
      <point x="128" y="660" type="line"/>
    </contour>
    <contour>
      <point x="331" y="349" type="line"/>
      <point x="432" y="536" type="line" smooth="yes"/>
      <point x="482" y="628"/>
      <point x="500" y="638"/>
      <point x="528" y="638" type="curve" smooth="yes"/>
      <point x="534" y="638"/>
      <point x="542" y="636"/>
      <point x="548" y="634" type="curve"/>
      <point x="554" y="668" type="line"/>
      <point x="548" y="670"/>
      <point x="540" y="672"/>
      <point x="532" y="672" type="curve" smooth="yes"/>
      <point x="485" y="672"/>
      <point x="462" y="654"/>
      <point x="404" y="546" type="curve" smooth="yes"/>
      <point x="301" y="355" type="line"/>
    </contour>
  </outline>
</glyph>
<glyph name="L" format="1">
  <advance width="600"/>
  <outline>
    <contour>
      <point x="156" y="0" type="line"/>
      <point x="538" y="0" type="line"/>
      <point x="538" y="28" type="line"/>
      <point x="186" y="28" type="line"/>
      <point x="186" y="660" type="line"/>
      <point x="156" y="660" type="line"/>
    </contour>
    <contour>
      <point x="186" y="680" type="move" name="aboveUC"/>
    </contour>
    <contour>
      <point x="174" y="330" type="move" name="center"/>
    </contour>
    <contour>
      <point x="360" y="0" type="move" name="baseLC"/>
    </contour>
    <contour>
      <point x="360" y="-20" type="move" name="belowLC"/>
    </contour>
  </outline>
</glyph>
<glyph name="Lcat" format="1">
  <advance width="600"/>
  <outline>
    <contour>
      <point x="94" y="0" type="line"/>
      <point x="276" y="0" type="line"/>
      <point x="276" y="28" type="line"/>
      <point x="124" y="28" type="line"/>
      <point x="124" y="660" type="line"/>
      <point x="94" y="660" type="line"/>
    </contour>
    <contour>
      <point x="244" y="284" type="curve" smooth="yes"/>
      <point x="270" y="284"/>
      <point x="296" y="304"/>
      <point x="296" y="342" type="curve" smooth="yes"/>
      <point x="296" y="380"/>
      <point x="270" y="400"/>
      <point x="244" y="400" type="curve" smooth="yes"/>
      <point x="218" y="400"/>
      <point x="192" y="380"/>
      <point x="192" y="342" type="curve" smooth="yes"/>
      <point x="192" y="304"/>
      <point x="218" y="284"/>
    </contour>
    <contour>
      <point x="354" y="0" type="line"/>
      <point x="536" y="0" type="line"/>
      <point x="536" y="28" type="line"/>
      <point x="384" y="28" type="line"/>
      <point x="384" y="660" type="line"/>
      <point x="354" y="660" type="line"/>
    </contour>
  </outline>
</glyph>
<glyph name="Lsmall" format="1">
  <advance width="600"/>
  <outline>
    <contour>
      <point x="170" y="0" type="line"/>
      <point x="528" y="0" type="line"/>
      <point x="528" y="28" type="line"/>
      <point x="200" y="28" type="line"/>
      <point x="200" y="478" type="line"/>
      <point x="170" y="478" type="line"/>
    </contour>
  </outline>
</glyph>
<glyph name="OEsmall" format="1">
  <advance width="600"/>
  <outline>
    <contour>
      <point x="236" y="-12" type="curve" smooth="yes"/>
      <point x="264" y="-12"/>
      <point x="294" y="-10"/>
      <point x="328" y="0" type="curve"/>
      <point x="582" y="0" type="line"/>
      <point x="582" y="28" type="line"/>
      <point x="356" y="28" type="line"/>
      <point x="356" y="238" type="line"/>
      <point x="530" y="238" type="line"/>
      <point x="530" y="266" type="line"/>
      <point x="356" y="266" type="line"/>
      <point x="356" y="450" type="line"/>
      <point x="572" y="450" type="line"/>
      <point x="572" y="478" type="line"/>
      <point x="328" y="478" type="line"/>
      <point x="294" y="488"/>
      <point x="264" y="490"/>
      <point x="236" y="490" type="curve" smooth="yes"/>
      <point x="124" y="490"/>
      <point x="44" y="400"/>
      <point x="44" y="240" type="curve" smooth="yes"/>
      <point x="44" y="80"/>
      <point x="124" y="-12"/>
    </contour>
    <contour>
      <point x="238" y="16" type="curve" smooth="yes"/>
      <point x="145" y="16"/>
      <point x="76" y="96"/>
      <point x="76" y="240" type="curve" smooth="yes"/>
      <point x="76" y="384"/>
      <point x="145" y="462"/>
      <point x="238" y="462" type="curve" smooth="yes"/>
      <point x="264" y="462"/>
      <point x="297" y="454"/>
      <point x="324" y="446" type="curve"/>
      <point x="324" y="32" type="line"/>
      <point x="297" y="24"/>
      <point x="264" y="16"/>
    </contour>
  </outline>
</glyph>
<glyph name="Obarcyr" format="1">
  <advance width="600"/>
  <outline>
    <component base="Fita"/>
    <contour>
      <point x="300" y="680" type="move" name="aboveUC"/>
    </contour>
    <contour>
      <point x="300" y="-20" type="move" name="belowLC"/>
    </contour>
  </outline>
</glyph>
<glyph name="Oogonek" format="1">
  <advance width="600"/>
  <outline>
    <contour>
      <point x="328" y="-224" type="curve" smooth="yes"/>
      <point x="366" y="-224"/>
      <point x="386" y="-208"/>
      <point x="406" y="-188" type="curve"/>
      <point x="388" y="-170" type="line"/>
      <point x="374" y="-184"/>
      <point x="356" y="-196"/>
      <point x="330" y="-196" type="curve" smooth="yes"/>
      <point x="297" y="-196"/>
      <point x="266" y="-176"/>
      <point x="266" y="-134" type="curve" smooth="yes"/>
      <point x="266" y="-86"/>
      <point x="306" y="-30"/>
      <point x="360" y="-6" type="curve" smooth="yes"/>
      <point x="482" y="48"/>
      <point x="544" y="160"/>
      <point x="544" y="332" type="curve" smooth="yes"/>
      <point x="544" y="540"/>
      <point x="442" y="672"/>
      <point x="300" y="672" type="curve" smooth="yes"/>
      <point x="158" y="672"/>
      <point x="56" y="540"/>
      <point x="56" y="332" type="curve" smooth="yes"/>
      <point x="56" y="158"/>
      <point x="130" y="-12"/>
      <point x="308" y="-12" type="curve"/>
      <point x="268" y="-44"/>
      <point x="236" y="-84"/>
      <point x="236" y="-136" type="curve" smooth="yes"/>
      <point x="236" y="-196"/>
      <point x="275" y="-224"/>
    </contour>
    <contour>
      <point x="300" y="18" type="curve" smooth="yes"/>
      <point x="175" y="18"/>
      <point x="90" y="142"/>
      <point x="90" y="332" type="curve" smooth="yes"/>
      <point x="90" y="522"/>
      <point x="175" y="642"/>
      <point x="300" y="642" type="curve" smooth="yes"/>
      <point x="425" y="642"/>
      <point x="510" y="522"/>
      <point x="510" y="332" type="curve" smooth="yes"/>
      <point x="510" y="142"/>
      <point x="425" y="18"/>
    </contour>
    <contour>
      <point x="300" y="680" type="move" name="aboveUC"/>
    </contour>
  </outline>
</glyph>
<glyph name="Rsmallinverted" format="1">
  <advance width="600"/>
  <outline>
    <contour>
      <point x="291" y="0" type="curve" smooth="yes"/>
      <point x="437" y="0" type="line"/>
      <point x="437" y="478" type="line"/>
      <point x="407" y="478" type="line"/>
      <point x="407" y="266" type="line"/>
      <point x="283" y="266" type="line"/>
      <point x="195" y="266"/>
      <point x="124" y="224"/>
      <point x="124" y="130" type="curve" smooth="yes"/>
      <point x="124" y="36"/>
      <point x="193" y="0"/>
    </contour>
    <contour>
      <point x="301" y="28" type="line"/>
      <point x="212" y="28"/>
      <point x="156" y="59"/>
      <point x="156" y="130" type="curve" smooth="yes"/>
      <point x="156" y="201"/>
      <point x="212" y="238"/>
      <point x="301" y="238" type="curve" smooth="yes"/>
      <point x="407" y="238" type="line"/>
      <point x="407" y="28" type="line"/>
    </contour>
    <contour>
      <point x="265" y="252" type="line"/>
      <point x="289" y="264" type="line"/>
      <point x="147" y="478" type="line"/>
      <point x="113" y="478" type="line"/>
    </contour>
  </outline>
</glyph>
<glyph name="Shha" format="1">
  <advance width="600"/>
  <outline>
    <contour>
      <point x="114" y="0" type="line"/>
      <point x="146" y="0" type="line"/>
      <point x="146" y="354" type="line"/>
      <point x="178" y="360"/>
      <point x="223" y="366"/>
      <point x="280" y="366" type="curve" smooth="yes"/>
      <point x="406" y="366"/>
      <point x="482" y="328"/>
      <point x="482" y="202" type="curve" smooth="yes"/>
      <point x="482" y="0" type="line"/>
      <point x="514" y="0" type="line"/>
      <point x="514" y="202" type="line" smooth="yes"/>
      <point x="514" y="346"/>
      <point x="426" y="396"/>
      <point x="282" y="396" type="curve" smooth="yes"/>
      <point x="224" y="396"/>
      <point x="180" y="390"/>
      <point x="146" y="384" type="curve"/>
      <point x="146" y="660" type="line"/>
      <point x="114" y="660" type="line"/>
    </contour>
  </outline>
</glyph>
<glyph name="Soft" format="1">
  <advance width="600"/>
  <outline>
    <contour>
      <point x="118" y="0" type="line"/>
      <point x="304" y="0" type="line" smooth="yes"/>
      <point x="452" y="0"/>
      <point x="532" y="66"/>
      <point x="532" y="192" type="curve" smooth="yes"/>
      <point x="532" y="314"/>
      <point x="442" y="366"/>
      <point x="300" y="366" type="curve" smooth="yes"/>
      <point x="150" y="366" type="line"/>
      <point x="150" y="660" type="line"/>
      <point x="118" y="660" type="line"/>
    </contour>
    <contour>
      <point x="150" y="28" type="line"/>
      <point x="150" y="338" type="line"/>
      <point x="288" y="338" type="line" smooth="yes"/>
      <point x="428" y="338"/>
      <point x="500" y="294"/>
      <point x="500" y="190" type="curve" smooth="yes"/>
      <point x="500" y="78"/>
      <point x="430" y="28"/>
      <point x="292" y="28" type="curve" smooth="yes"/>
    </contour>
  </outline>
</glyph>
